<?xml version="1.0" encoding="utf-8"?>
<svg version="1.1" id="Layer_1" xmlns="http://www.w3.org/2000/svg" xmlns:xlink="http://www.w3.org/1999/xlink" x="0px" y="0px"
	 viewBox="0 0 150 150" style="enable-background:new 0 0 150 150;" xml:space="preserve">
<style type="text/css">
	.st0{fill:#FFECF4;stroke:#000000;stroke-linecap:round;stroke-miterlimit:10;}
	.st1{fill:#FF9EC7;}
	.st2{fill:#FFFFFF;stroke:#000000;stroke-miterlimit:10;}
	.st3{fill:none;stroke:#000000;stroke-miterlimit:10;}
	.st4{fill:none;stroke:#000000;stroke-linecap:round;stroke-miterlimit:10;}
	.st5{fill:#FFC5DD;stroke:#000000;stroke-miterlimit:10;}
	.st6{fill:#FFC5DD;stroke:#000000;stroke-width:0.9453;stroke-miterlimit:10;}
	.st7{fill:#FFFFFF;stroke:#000000;stroke-linecap:round;stroke-miterlimit:10;}
	.st8{fill:#FFECF4;stroke:#000000;stroke-linecap:round;stroke-linejoin:round;stroke-miterlimit:10;}
	.st9{fill:#F56CB5;}
	.st10{fill:none;stroke:#000000;stroke-width:0.8;stroke-linejoin:round;stroke-miterlimit:10;}
	.st11{fill:none;stroke:#000000;stroke-width:0.8;stroke-linecap:round;stroke-miterlimit:10;}
	.st12{fill:#FFECF4;}
	.st13{fill:#FFC5DD;stroke:#000000;stroke-width:0.9022;stroke-miterlimit:10;}
	.st14{fill:#FF8FF3;stroke:#000000;stroke-miterlimit:10;}
	.st15{fill:none;stroke:#000000;stroke-width:0.7746;stroke-miterlimit:10;}
	.st16{fill:none;stroke:#000000;stroke-width:0.8458;stroke-linecap:round;stroke-linejoin:round;stroke-miterlimit:10;}
	.st17{fill:#F49DC3;stroke:#231F20;stroke-miterlimit:10;}
	.st18{fill:none;stroke:#231F20;stroke-linecap:round;stroke-miterlimit:10;}
	.st19{fill:#F49DC3;}
	.st20{fill:none;stroke:#231F20;stroke-miterlimit:10;}
	.st21{fill:#FFFFFF;}
	.st22{fill:none;stroke:#000000;stroke-width:0.8;stroke-miterlimit:10;}
	.st23{fill:none;stroke:#231F20;stroke-width:0.9174;stroke-miterlimit:10;}
	.st24{fill:none;stroke:#231F20;stroke-width:0.9174;stroke-linecap:round;stroke-miterlimit:10;}
	.st25{fill:none;stroke:#231F20;stroke-width:1.068;stroke-miterlimit:10;}
	.st26{fill:none;stroke:#231F20;stroke-width:1.068;stroke-linecap:round;stroke-miterlimit:10;}
</style>
<g>
	<path class="st12" d="M112.6188,111.8677c-0.1182-0.2754-0.0899-0.7178-0.2012-1.0498c-0.1152-0.3438-0.2959-0.6504-0.3613-1.0127
		c-0.1035-0.5723-0.1465-0.6807,0.3125-0.8887c0.3515-0.1601,0.7471-0.1357,1.1094-0.0332
		c0.9961,0.2803,0.8496,0.9199,0.4062,1.6875c-0.1777,0.3067-0.2881,0.5635-0.5801,0.7813c-0.292,0.2177-0.6738,0.1455-0.748,0.5781
		"/>
	<g>
		<path class="st1" d="M78.7301,122.355c-5.0137-3.6992-5.8428-14.79-13.7959-14.582c3.499,4.7578,5.3858,10.9795,11.335,13.7812
			L78.7301,122.355z"/>
	</g>
	<path class="st1" d="M113.2203,99.7173c2.2832-4.0322,1.3038-7.2285,2.2149-11.6875c1.0781-5.2822,5.3428-6.1611,7.626-10.3603
		c-2.044,6.5673-0.5586,13.9062-6.4502,19.038L113.2203,99.7173z"/>
	<path class="st1" d="M109.0582,84.0708c0.0264-3.0088,2.8106-5.1982,3.668-7.3593c1.3262-3.334-0.3379-5.8106,0.0908-9.2364
		c-4.7734,4.6846-4.6904,9.6416-3.7412,16.5938L109.0582,84.0708z"/>
	<g>
		<path class="st3" d="M75.445,61.2251c1.5693,0.1221,7.8388,3.1768,7.8388,3.1768"/>
		<g>
			<g>
				<path class="st2" d="M95.4655,131.6333c0,0-20.7608-22.4951-23.8448-32.8593c-3.0859-10.3643-1.83-20.3545-2.7519-24.0323
					c-1.0635-4.2324-3.9649-27.167-3.9649-27.167l-1.4687-2.4101c0,0-7.9004-4.5489-10.9902-9.1817
					c-3.0528-4.5839,2.2109-6.0927,2.2109-6.0927s14.9697,10.8427,15.9678,10.9453c1.3037,0.1377,8.9179-3.836,18.583,6.2705
					c-3.2617-13.6729,1.6884-13.2578,1.6884-13.2578s6.2696,19.5107,7.2881,22.2627c1.0196,2.7529,3.9912,3.3955,5.1719,8.7412
					c1.1817,5.3486-5.0488,23.4775-3.4267,30.0566c1.624,6.5762,12.3642,24.957,12.3642,24.957L95.4655,131.6333z"/>
				<line class="st3" x1="87.8336" y1="45.6656" x2="98.4489" y2="56.7886"/>
				<path class="st4" d="M70.6237,40.8355c6.1054,4.6318,20.8408,14.9697,23.9922,21.9717
					c0.6396,2.5761-0.7833,5.3007-0.7833,5.3007"/>
				<path class="st3" d="M63.4352,45.1646c1.0918,1.2392,20.2617,16.6513,20.8301,21.4287
					c0.4941,4.1494-0.2325,12.8164-3.4766,12.4717c-4.2334-0.4903-4.374-23.6055-8.3047-25.9366"/>
				<path class="st5" d="M66.3121,56.1216c-0.8378,0.0469-6.956-8.874-6.4433-9.8232c0.5117-0.9502,3.3359,0.4033,4.5332,0.9726
					c1.1943,0.5703,3.4463,3.0723,4.1387,4.6709C69.2321,53.5396,67.15,56.0757,66.3121,56.1216z"/>
				<path class="st13" d="M93.5358,40.8355c-0.5694-1.9883-2.7158-9.2364-3.8408-9.1367c-1.126,0.0976,0.249,6.6865,0.7148,8.0449
					C90.8737,41.1031,93.7194,41.4741,93.5358,40.8355z"/>
				<path class="st14" d="M62.3278,35.3687c0.9463-0.8262-9.0625-7.7022-10.666-6.9043c-1.6036,0.7959,6.8085,7.751,7.6962,7.9922
					C60.2467,36.6968,61.3834,36.1939,62.3278,35.3687z"/>
			</g>
			<g>
				<g>
					<path class="st7" d="M96.2086,136.5913c-1.707-3.6142-6.665-7.0127-10.7539-6.208c0.9571-3.1054,1.4854-3.5605,4.8076-3.7842
						c2.4707-0.1669,6.1475,0.1358,7.3682-2.5371c-4.4053,1.2618-3.4131-3.2246,0.1592-4.1582
						c2.5254-0.6621,7.5088-0.1611,8.8711-2.6582c-3.8174-0.289-4.1055-4.3134-0.2285-4.7939
						c2.3125-0.2871,7.1533,1.1406,8.0302-2.9268c-0.9121-0.4658-1.8789-0.7226-2.9072-0.7695
						c0.9629-2.3037,3.8184-4.1963,5.8516-5.5488c-0.0703,4.9736,4.4658,15.7939,4.4658,15.7939L96.2086,136.5913z"/>
					<line class="st2" x1="114.4625" y1="109.5249" x2="117.7409" y2="117.5845"/>
					<line class="st2" x1="106.6608" y1="117.2456" x2="109.2741" y2="123.8609"/>
					<line class="st2" x1="97.6305" y1="124.062" x2="100.0651" y2="130.6646"/>
					<line class="st7" x1="103.7174" y1="115.2525" x2="104.736" y2="118.7486"/>
					<line class="st2" x1="95.6891" y1="125.8843" x2="94.7145" y2="122.9439"/>
					<line class="st7" x1="111.5553" y1="108.7554" x2="112.6471" y2="111.7759"/>
					<path class="st0" d="M96.2086,136.5913c-1.707-3.6142-6.665-7.0127-10.7539-6.208c0.9571-3.1054,1.4854-3.5605,4.8076-3.7842
						c2.4707-0.1669,6.1475,0.1358,7.3682-2.5371c-4.4053,1.2618-3.4131-3.2246,0.1592-4.1582
						c2.5254-0.6621,7.5088-0.1611,8.8711-2.6582c-3.8174-0.289-4.1055-4.3134-0.2285-4.7939
						c2.3125-0.2871,7.1533,1.1406,8.0302-2.9268c-0.9121-0.4658-1.8789-0.7226-2.9072-0.7695
						c0.9629-2.3037,3.8184-4.1963,5.8516-5.5488c-0.0703,4.9736,4.4658,15.7939,4.4658,15.7939L96.2086,136.5913z"/>
					<line class="st2" x1="114.4625" y1="109.5249" x2="117.7409" y2="117.5845"/>
					<line class="st2" x1="106.6608" y1="117.2456" x2="109.2741" y2="123.8609"/>
					<line class="st2" x1="97.6305" y1="124.062" x2="100.0651" y2="130.6646"/>
					<line class="st7" x1="103.7174" y1="115.2525" x2="104.736" y2="118.7486"/>
					<line class="st2" x1="95.6891" y1="125.8843" x2="94.7145" y2="122.9439"/>
					<line class="st7" x1="111.5553" y1="108.7554" x2="112.6471" y2="111.7759"/>
				</g>
				<polygon class="st0" points="122.1188,118.7486 123.9918,121.4907 97.8317,139.5406 95.9938,136.9507 				"/>
			</g>
			<g>
				<path class="st4" d="M111.1032,112.3911c-4.4512-7.624,0.1923-11.0507,5.5078-15.6836
					c5.8916-5.1318,4.4062-12.4707,6.4502-19.038c-2.2832,4.1992-6.5479,5.0781-7.626,10.3603
					c-0.9111,4.459,0.0683,7.6553-2.2149,11.6875"/>
				<path class="st4" d="M109.8864,103.4859c-1.0459-1.6504,0.6601-7.6534,0.4824-10.0547
					c-0.2305-3.1104-1.4776-6.4737-1.3242-9.5752c0.1162-2.3613,2.8847-4.5947,3.7422-6.7559
					c1.3261-3.334-0.375-6.1133,0.0537-9.539c-4.7745,4.6855-4.6202,10.1386-3.7793,16.2929"/>
				<path class="st4" d="M114.567,97.9888c0.9961-0.665,1.3389-2.4766,2.1699-3.4824c1.5684-1.8955,1.5811-4.1006,2.2754-6.461"/>
				<path class="st4" d="M110.0319,80.9458c-0.2744-2.1289,1.4834-4.8105,1.2705-6.8603"/>
			</g>
			<g>
				<path class="st4" d="M87.86,126.9527c-1.8604-5.5401-7.3701-3.4092-11.5908-5.3985c-5.9492-2.8017-7.836-9.0234-11.335-13.7812
					c7.9531-0.208,8.7822,10.8828,13.7959,14.582"/>
				<path class="st4" d="M77.3551,121.9829c-0.4531-1.2089-3.2978-3.7714-4.2861-4.7353c-1.3828-1.3516-1.6153-2.6592-2.4893-4.168"
					/>
			</g>
		</g>
	</g>
	<g>
		<g>
			<polygon class="st9" points="63.8082,41.9048 63.6998,44.2495 62.7946,46.2779 60.3405,47.8765 58.8639,49.2935 57.2174,50.6968
				54.5016,51.9859 54.7741,52.8609 55.4157,54.3726 53.653,55.8872 51.8727,57.2779 50.9762,59.1743 49.1266,60.9937
				46.361,62.939 45.7409,62.5698 45.9909,60.3638 46.2233,58.3032 46.1979,57.1402 44.9489,58.2495 43.9723,58.4966
				41.3209,57.8003 39.5055,57.8081 37.8248,59.0972 36.0358,59.5132 33.6813,58.4312 31.0748,56.5747 29.5963,54.899
				32.1276,53.854 34.2692,53.2163 36.0993,52.5034 38.6383,50.9361 39.9235,49.7652 36.611,49.271 33.0612,47.1616 29.816,45.5152
				26.2067,43.8521 26.2877,42.1402 28.1637,40.5015 27.4791,38.5152 27.0104,36.774 28.1325,34.2632 29.5123,32.0698
				29.5231,30.3804 30.1061,28.0484 30.9332,27.4126 32.8473,26.9693 33.7672,25.9439 34.7555,23.979 36.9127,22.7798
				37.8951,21.1128 39.1832,20.1031 41.402,20.1978 41.8873,18.3072 43.65,16.7818 45.7233,16.6929 47.1979,15.5415 48.36,13.5034
				50.111,12.8609 53.0719,14.1831 54.1793,13.812 56.5407,14.7671 58.1676,16.6841 58.027,14.3491 57.8493,12.3443 58.985,12.274
				60.2994,11.1099 61.5035,10.4595 63.0934,11.8667 63.0934,11.8667 63.3239,12.3443 63.8522,13.3404 64.4996,14.8052
				65.6295,18.7075 67.5573,23.1499 71.1686,20.4282 72.3961,19.1236 74.3405,16.3062 76.1471,17.0103 78.2272,19.0562
				79.5602,21.9556 79.3522,23.7866 76.4127,25.7642 75.5612,27.5249 76.2946,29.9351 75.8356,31.3872 74.6266,31.8316
				75.1618,33.2027 77.2116,35.7642 77.1744,37.8013 74.9938,38.9048 73.2692,39.7866 73.236,41.7798 72.2653,42.3599
				69.7184,41.9536 67.6696,41.1529 			"/>
			<path class="st15" d="M63.8522,41.9761c1.1123,0.084,2.2344-0.7393,3.2236-0.8086c1.1182-0.0771,1.7061,0.585,2.6426,0.7861
				c0.4883,0.1055,2.6601,0.5811,3.0488,0.3438c1.166-0.7041-0.1074-1.5957,0.502-2.5108c0.8047-1.2148,3.7646-0.6093,4.2627-2.7529
				c0.3672-1.5928-2.8203-3.3164-2.9034-5.2002"/>
			<path class="st15" d="M46.2731,57.1509c0.5049,1.1494-0.6074,4.1689-0.3946,5.4346c0.2178,1.2676,2.9043-1.3926,4.2276-2.3897
				c1.2822-0.9677,1.3047-2.6406,2.251-3.5771c1.04-1.0332,2.7246-0.6367,3.0713-2.3789c0.2666-1.3379-2.2461-1.7217-0.1729-2.8623"
				/>
			<path class="st15" d="M48.0778,43.2095c-1.168-0.71-3.4942-0.6367-4.9659-1.2012c-1.4716-0.5595-2.4941-1.3135-3.6142-2.3769
				c-1.4473-1.3701-6.0859-4.502-4.9072-6.0254c1.1796-1.5235,3.4843,0.332,4.663-0.4951c1.5889-1.1123,0.6104-2.6993,1.3897-4.1885
				c0.792-1.5088,2.6006-1.4317,4.0352-2.2627c1.7832-1.0371,2.79-2.5176,4.0986-4.0078c1.9541-2.2285,4.9912-4.0576,7.1904-2.1992
				c1.582,1.33,4.249,5.9834,3.7383,8.0703"/>
			<path class="st15" d="M39.9235,49.7652c-0.9414-0.4981-3.0205-0.4346-4.1221-0.9795c-1.8066-0.8926-3.3193-2.1612-5.1953-2.9903
				c-1.7568-0.7734-5.6729-0.9482-4.3184-3.6552c1.0821-2.1612,3.7666-0.9766,5.3506-2.3047
				c0.6865-0.5752,0.5791-1.5323,1.6152-2.083c0.9209-0.4883,2.0801-0.3282,2.5977-1.2793"/>
			<path class="st15" d="M52.0153,20.1353c0.832-1.835-1.168-5.8594,2.164-6.3233c1.9219-0.2685,2.8955,1.7051,3.9883,2.8721
				c0.3359-1.458-0.5254-2.9355-0.3183-4.3398c2.0664,0.4482,2.1875-1.8975,3.6542-1.8848
				c1.1231,0.0078,2.6377,3.4014,2.9961,4.3457c0.5186,1.3613,0.6475,2.9473,1.2989,4.2832
				c0.7353,1.5088,1.3828,2.3887,1.7588,4.0615"/>
			<path class="st15" d="M49.6715,21.7368c-0.4961-0.0566-1.9404-0.3378-2.418-0.1767c-0.9492,0.3222-4.121,0.5674-4.6865,1.4189
				c-0.3955,0.5948-1.8183,1.8516-2.5322,2.0362c-0.3975,0.1025-4.6875,0.3056-2.9131,6.2226"/>
			<path class="st15" d="M53.0719,14.1831c-1.2353-0.0927-1.7627-1.1914-2.9609-1.3222c-1.2002-0.1309-1.5596,0.2822-2.2422,1.3447
				c-0.5342,0.835-0.6778,1.8994-1.6426,2.334c-1.1885,0.5361-2.3369-0.2735-3.4502,0.6826
				c-1.71,1.4697-1.2988,3.1435-0.8193,4.9873c0.3056,1.1738-0.2334,1.4268-1.1602,2.3672"/>
			<path class="st15" d="M41.402,20.1978c-2.125-0.2403-3.0293-0.4463-3.875,1.6816c-0.5733,1.4385-1.0508,0.7744-2.3389,1.7051
				c-0.7236,0.5254-0.8935,1.168-1.2275,1.9131c-0.2852,0.6338-0.418,1.1465-1.1133,1.4717
				c-0.959,0.4492-2.0205,0.0576-2.7412,1.0791c-0.7393,1.0439-0.4561,2.789-0.5938,4.0214"/>
			<path class="st15" d="M54.6461,39.7212c-1.9726-0.7871-4.5781,1.7529-6.0342,3.3731c-1.5175,1.6845-2.7724,5.9951-2.8242,8.3984
				c0.3565,0.1035,3.7539,1.8984,10.9317-0.5791c1.6816-0.5791,2.1787-1.9971,3.6269-3.0264
				c1.9405-1.3799,2.8018-1.0439,3.375-3.6025c0.4746-2.1143-0.331-4.0352,0.2061-6.0234c0.5761-2.1241,2.0049-3.6416,1.1777-6.1182
				c-0.5166-1.5527-2.8789-4.333-4.8994-3.5752c-1.2705,0.4795-3.0742,3.9893-4.1231,5.292
				C54.6744,35.604,53.9528,37.4136,54.6461,39.7212z"/>
			<path class="st15" d="M46.8258,46.0806c-2.8808-0.5606-6.1728,3.1113-8.1875,4.8555c-2.8457,2.458-7.8789,3.0712-8.9375,3.6474
				c-1.0557,0.5762,5.0244,5.1074,6.7959,4.959c2.3545-0.1953,1.9844-2.4648,4.834-1.7412
				c2.3135,0.5859,3.3887,1.6641,4.9971-1.1231c0.4267-0.7294,0.582-1.6357,1.0254-2.3593
				c0.4287-0.7032,2.6845-1.5625,3.0761-2.1778"/>
			<path class="st15" d="M62.2741,28.8257c0.0087-2.7969,5.3603-5.3838,7.3847-6.8418c2.6094-1.873,3.9512-5.0244,4.6817-5.6777
				c0.7285-0.6543,4.4013,2.7431,5.0459,4.2344c1.7675,4.0996-3.0655,3.9277-3.7549,6.538
				c-0.3076,1.1553,1.083,1.9639,0.5752,3.3077c-0.5576,1.4707-2.7608,1.8271-3.9951,2.2793
				c-2.0665,0.7587-4.8184,1.1962-7.0196,0.6562"/>
			<path class="st15" d="M28.3268,40.98c-0.0029-1.2148-1.3887-2.9766-1.3164-4.206c0.0664-1.1143,0.5615-1.6504,1.1221-2.5108
				c0.3486-0.5244,0.9023-2.0488,1.5293-2.2695c0.8095-0.2822,2.707,2.0127,3.0488,1.3535
				c0.3398-0.6592-0.8916-1.7324,0.0566-2.1572c0.6026-0.2715,1.8291,0.2822,2.4961,0.2548
				c1.4385-0.0576,3.6309-1.1289,4.9385,0.1397"/>
		</g>
		<path class="st16" d="M55.1491,35.2339c0.2587-1.8769,1.6533-5.9287-0.8096-7.2158"/>
		<path class="st16" d="M46.2946,33.1724c0.7558,2.4658,5.1757,5.999,7.7949,6.1142"/>
		<path class="st16" d="M50.9147,40.9136c-3.209-0.0303-7.752-1.7881-8.5977-5.2051"/>
		<path class="st16" d="M54.7711,35.9195c-1.3281-2.8614-1.9931-6.2784-3.8955-8.8721"/>
		<path class="st16" d="M54.0026,38.6919c-0.8213-0.7734-3.6553-3.7373-3.667-4.7002"/>
		<path class="st16" d="M62.3043,28.2476c-0.0117-0.6279,0.501-0.8975,0.6778-1.5459c0.416-1.5469,0.3984-3.4942,0.2334-5.0947
			c-0.1651-1.6104-0.2832-3.7569-1.2071-5.1329"/>
		<path class="st16" d="M61.7819,28.1831c0.7109-2.2343-1.4463-6.0742-2.5342-7.8545"/>
		<path class="st16" d="M48.0778,43.2095c-1.4268,1.1855-4.8379,2.0889-6.6641,2.4521c-2.835,0.5674-4.5576-0.0019-7.1328-1.2285"/>
		<path class="st16" d="M65.4469,34.0464c0.7627,0.7881,2.668,1.4551,3.4131,1.8096c-1.1514-0.5488-2.3047-1.1416-3.4766-1.6289
			c-0.542,1.7383,3.1114,6.122,4.9278,4.7207"/>
		<path class="st16" d="M51.5563,54.1216c-0.0889-0.6269-0.3906-1.3008-0.6944-1.9101c-0.8085,1.1601-1.3427,3.1015-1.4062,4.4345"
			/>
		<path class="st16" d="M57.0739,37.2847c0.8134,0.9219,2.58,1.2705,3.6679,1.876c1.2334,0.6884,0.9258,1,2.0821,1.7597"/>
		<path class="st16" d="M54.0133,41.0884c-0.4004,0.8418-1.0752,1.7939-1.2744,2.6973c-0.2295,1.0605,0.1094,3.7685,1.2402,4.3476"
			/>
		<path class="st16" d="M56.0993,41.9439c0.9951,1.457,1.7714,3.1269,3.0449,4.3584"/>
		<path class="st16" d="M68.1188,25.2476c-1.6162,1.0244-4.5117,1.3398-5.4678,3.0137c2.6113-0.5987,5.1065-0.754,7.54,0.5654"/>
		<path class="st16" d="M46.5563,46.1626c-0.8028,1.0694-2.2227,1.7617-2.8828,2.8408c0.5781-0.5722,1.709-1.5791,2.4912-1.4882
			c-0.5762,1.4804-1.7149,2.3037-2.7178,3.4951c-0.4902,0.581-0.834,1.1748-1.1826,1.8349
			c-0.0713,0.1377-0.4932,1.0284-0.2666,0.5596"/>
	</g>
</g>
</svg>
