<?xml version="1.0" encoding="utf-8"?>
<svg version="1.1" id="Layer_1" xmlns="http://www.w3.org/2000/svg" xmlns:xlink="http://www.w3.org/1999/xlink" x="0px" y="0px"
	 viewBox="0 0 150 150" style="enable-background:new 0 0 150 150;" xml:space="preserve">
<style type="text/css">

	.st0{fill:#FFECF4;stroke:#000000;stroke-linecap:round;stroke-miterlimit:10;}
	.st1{fill:#FF9EC7;}
	.st2{fill:#FFFFFF;stroke:#000000;stroke-miterlimit:10;}
	.st3{fill:none;stroke:#000000;stroke-miterlimit:10;}
	.st4{fill:none;stroke:#000000;stroke-linecap:round;stroke-miterlimit:10;}
	.st5{fill:#FFC5DD;stroke:#000000;stroke-miterlimit:10;}
	.st6{fill:#FFC5DD;stroke:#000000;stroke-width:0.9453;stroke-miterlimit:10;}
	.st7{fill:#FFFFFF;stroke:#000000;stroke-linecap:round;stroke-miterlimit:10;}
	.st8{fill:#FFECF4;stroke:#000000;stroke-linecap:round;stroke-linejoin:round;stroke-miterlimit:10;}
	.st9{fill:#F56CB5;}
	.st10{fill:none;stroke:#000000;stroke-width:0.8;stroke-linejoin:round;stroke-miterlimit:10;}
	.st11{fill:none;stroke:#000000;stroke-width:0.8;stroke-linecap:round;stroke-miterlimit:10;}
	.st12{fill:#FFECF4;}
	.st13{fill:#FFC5DD;stroke:#000000;stroke-width:0.9022;stroke-miterlimit:10;}
	.st14{fill:#FF8FF3;stroke:#000000;stroke-miterlimit:10;}
	.st15{fill:none;stroke:#000000;stroke-width:0.7746;stroke-miterlimit:10;}
	.st16{fill:none;stroke:#000000;stroke-width:0.8458;stroke-linecap:round;stroke-linejoin:round;stroke-miterlimit:10;}
	.st17{fill:#F49DC3;stroke:#231F20;stroke-miterlimit:10;}
	.st18{fill:none;stroke:#231F20;stroke-linecap:round;stroke-miterlimit:10;}
	.st19{fill:#F49DC3;}
	.st20{fill:none;stroke:#231F20;stroke-miterlimit:10;}
	.st21{fill:#FFFFFF;}
	.st22{fill:none;stroke:#000000;stroke-width:0.8;stroke-miterlimit:10;}
	.st23{fill:none;stroke:#231F20;stroke-width:0.9174;stroke-miterlimit:10;}
	.st24{fill:none;stroke:#231F20;stroke-width:0.9174;stroke-linecap:round;stroke-miterlimit:10;}
	.st25{fill:none;stroke:#231F20;stroke-width:1.068;stroke-miterlimit:10;}
	.st26{fill:none;stroke:#231F20;stroke-width:1.068;stroke-linecap:round;stroke-miterlimit:10;}
	
</style>
<g>
	<g>
		<g>
			<path class="st19" d="M73.7931,126.6735c-1.7207,0.4873-3.5108,1.251-5.5938,1.9092c-6.1064,1.9336-7.914-2.4844-13.1328-5.5879
				c5.7803-2.957,13.0625-0.0156,18.253,3.8203L73.7931,126.6735z"/>
		</g>
		<g>
			<path class="st20" d="M82.9562,128.3933c-5.6787-4.1055-9.1612-1.5782-14.7569,0.1894
				c-6.1064,1.9336-7.914-2.4844-13.1328-5.5879c5.7803-2.957,13.0625-0.0156,18.253,3.8203"/>
			<path class="st18" d="M62.6388,125.0339c3.2871,0.0195,6.125,1.5752,9.6064,1.5752"/>
		</g>
	</g>
	<g>
		<g>
			<path class="st19" d="M108.9825,99.3044c6.1016-3.3028,14.9375-8.3867,14.2725-16.9951
				c-3.1279,1.2207-7.4551,2.7675-9.1172,6.0761C112.7246,91.1999,111.2217,97.1755,108.9825,99.3044"/>
		</g>
		<g>
			<path class="st23" d="M104.4082,116.4665c0,0-2.2041-6.5625-1.6279-10.417c0.6074-4.0615,3.1103-5.0723,6.2021-6.7451
				c6.1016-3.3028,14.9375-8.3867,14.2725-16.9951c-3.1279,1.2207-7.4551,2.7675-9.1172,6.0761
				c-1.4131,2.8145-2.916,8.7901-5.1553,10.919"/>
			<path class="st24" d="M110.6017,98.4147c-0.0567-0.8506,1.7168-2.375,2.2031-2.9492c1.1973-1.416,2.5527-2.4805,3.9219-3.665
				c1.6172-1.3975,2.9883-3.0742,3.9619-5.0196"/>
		</g>
	</g>
	<path class="st12" d="M105.8185,111.4245c-0.1182-0.2754-0.0899-0.7178-0.2012-1.0498c-0.1152-0.3438-0.2959-0.6504-0.3613-1.0127
		c-0.1035-0.5723-0.1465-0.6807,0.3125-0.8887c0.3515-0.1601,0.7471-0.1357,1.1094-0.0332
		c0.9961,0.2803,0.8496,0.9199,0.4062,1.6875c-0.1777,0.3067-0.2881,0.5635-0.5801,0.7813c-0.292,0.2177-0.6738,0.1455-0.748,0.5781
		"/>
	<path class="st3" d="M68.6447,60.7819c1.5693,0.1221,7.8388,3.1768,7.8388,3.1768"/>
	<g>
		<path class="st2" d="M88.6652,131.1901c0,0-20.7608-22.4951-23.8448-32.8593c-3.0859-10.3643-1.83-20.3545-2.7519-24.0323
			c-1.0635-4.2324-3.9649-27.167-3.9649-27.167l-1.4687-2.4101c0,0-7.9004-4.5489-10.9902-9.1817
			c-3.0528-4.5839,2.2109-6.0927,2.2109-6.0927s14.9697,10.8427,15.9678,10.9453c1.3037,0.1377,8.9179-3.836,18.583,6.2705
			c-3.2617-13.6729,1.6884-13.2578,1.6884-13.2578s6.2696,19.5107,7.2881,22.2627c1.0196,2.7529,3.9912,3.3955,5.1719,8.7412
			c1.1817,5.3486-5.0488,23.4775-3.4267,30.0566c1.624,6.5762,12.3642,24.957,12.3642,24.957L88.6652,131.1901z"/>
		<line class="st3" x1="81.0332" y1="45.2224" x2="91.6486" y2="56.3454"/>
		<path class="st4" d="M63.8234,40.3923c6.1054,4.6318,20.8408,14.9697,23.9922,21.9717c0.6396,2.5761-0.7833,5.3007-0.7833,5.3007"
			/>
		<path class="st3" d="M56.6349,44.7214c1.0918,1.2392,20.2617,16.6513,20.8301,21.4287
			c0.4941,4.1494-0.2325,12.8164-3.4766,12.4717c-4.2334-0.4903-4.374-23.6055-8.3047-25.9366"/>
		<path class="st5" d="M59.5118,55.6784c-0.8378,0.0469-6.956-8.874-6.4433-9.8232c0.5117-0.9502,3.3359,0.4033,4.5332,0.9726
			c1.1943,0.5703,3.4463,3.0723,4.1387,4.6709C62.4318,53.0964,60.3497,55.6325,59.5118,55.6784z"/>
		<path class="st13" d="M86.7355,40.3923c-0.5694-1.9883-2.7158-9.2364-3.8408-9.1367c-1.126,0.0976,0.249,6.6865,0.7148,8.0449
			C84.0733,40.6599,86.9191,41.0309,86.7355,40.3923z"/>
		<path class="st5" d="M55.5275,34.9255c0.9463-0.8262-9.0625-7.7022-10.666-6.9043c-1.6036,0.7959,6.8085,7.751,7.6962,7.9922
			C53.4464,36.2536,54.5831,35.7507,55.5275,34.9255z"/>
	</g>
	<g>
		<g>
			<path class="st7" d="M89.4082,136.1481c-1.707-3.6142-6.665-7.0127-10.7539-6.208c0.9571-3.1054,1.4854-3.5605,4.8076-3.7842
				c2.4707-0.1669,6.1475,0.1358,7.3682-2.5371c-4.4053,1.2618-3.4131-3.2246,0.1592-4.1582
				c2.5254-0.6621,7.5088-0.1611,8.8711-2.6582c-3.8174-0.289-4.1055-4.3134-0.2285-4.7939
				c2.3125-0.2871,7.1533,1.1406,8.0302-2.9268c-0.9121-0.4658-1.8789-0.7226-2.9072-0.7695
				c0.9629-2.3037,3.8184-4.1963,5.8516-5.5488c-0.0703,4.9736,4.4658,15.7939,4.4658,15.7939L89.4082,136.1481z"/>
			<line class="st2" x1="107.6622" y1="109.0817" x2="110.9406" y2="117.1413"/>
			<line class="st2" x1="99.8605" y1="116.8024" x2="102.4737" y2="123.4177"/>
			<line class="st2" x1="90.8302" y1="123.6188" x2="93.2647" y2="130.2214"/>
			<line class="st7" x1="96.9171" y1="114.8093" x2="97.9357" y2="118.3054"/>
			<line class="st2" x1="88.8887" y1="125.4411" x2="87.9142" y2="122.5007"/>
			<line class="st7" x1="104.755" y1="108.3122" x2="105.8467" y2="111.3327"/>
			<path class="st0" d="M89.4082,136.1481c-1.707-3.6142-6.665-7.0127-10.7539-6.208c0.9571-3.1054,1.4854-3.5605,4.8076-3.7842
				c2.4707-0.1669,6.1475,0.1358,7.3682-2.5371c-4.4053,1.2618-3.4131-3.2246,0.1592-4.1582
				c2.5254-0.6621,7.5088-0.1611,8.8711-2.6582c-3.8174-0.289-4.1055-4.3134-0.2285-4.7939
				c2.3125-0.2871,7.1533,1.1406,8.0302-2.9268c-0.9121-0.4658-1.8789-0.7226-2.9072-0.7695
				c0.9629-2.3037,3.8184-4.1963,5.8516-5.5488c-0.0703,4.9736,4.4658,15.7939,4.4658,15.7939L89.4082,136.1481z"/>
			<line class="st2" x1="107.6622" y1="109.0817" x2="110.9406" y2="117.1413"/>
			<line class="st2" x1="99.8605" y1="116.8024" x2="102.4737" y2="123.4177"/>
			<line class="st2" x1="90.8302" y1="123.6188" x2="93.2647" y2="130.2214"/>
			<line class="st7" x1="96.9171" y1="114.8093" x2="97.9357" y2="118.3054"/>
			<line class="st2" x1="88.8887" y1="125.4411" x2="87.9142" y2="122.5007"/>
			<line class="st7" x1="104.755" y1="108.3122" x2="105.8467" y2="111.3327"/>
		</g>
		<polygon class="st0" points="115.3185,118.3054 117.1915,121.0475 91.0313,139.0974 89.1935,136.5075 		"/>
	</g>
	<g>
		<path class="st9" d="M54.9689,44.112c2.8047-2.2656,5.8125-6.1064,6.8603-9.6211c1.3037-4.3906-0.5801-9.0068-1.9287-13.2519
			c-0.6797-2.1475-1.7451-4.3389-3.6084-5.6963c-1.2451-0.9063-2.5976-1.7012-4.0342-2.2588
			c-1.3115-0.5088-1.6777-1.7344-2.9707-2.2569c-0.8408-0.3418-2.4179,0.1319-3.3252,0.1055
			c-2.1552-0.0615-4.333,0.0498-6.1728,1.2988l-0.5947,0.0811c-1.6612-0.917-3.8135,0.5859-4.8125,1.7519
			c-0.6289,0.7344-1.085,1.7852-1.8321,2.3858c-0.665,0.5351-1.5127,0.3789-2.25,0.7451c-1.2197,0.6094-1.9736,2.6231-2.3388,3.876
			c-0.2217,0.751-0.3428,1.5078-0.2764,2.29c0.0547,0.5977,0.2178,1.2071,0.0361,1.7783l-0.1289,0.1856
			c-0.7138,1.0742-0.9453,2.1767-0.8681,3.4551c0.0781,1.2675,1.7187,7.1943,3.3046,7.2461
			c1.7217,2.7539,4.3125,5.3437,5.7989,6.747c1.4404,1.3614,3.1181,2.4903,4.9521,3.2481c1.6914,0.6972,3.2295,1.4443,5.2188,1.2656
			c1.9902-0.1797,5.6689-0.9316,7.8603-2.4629L54.9689,44.112z"/>
		<g>
			<path class="st25" d="M35.8273,42.9733c-2.9698-2.8076-10.3623-10.3603-6.3897-14.4775
				c1.6416-1.6973,3.6074-0.3086,4.9834-1.4902c0.5635-0.4834-0.6855-1.834,0.7842-2.3155c0.4941-0.1621,2.3164,1.2012,2.7939,1.461
				c3.0704,1.6836,2.6866,1.4082,4.5782-1.1534c1.7842-2.413,2.7451-2.0293,5.2822-0.7685
				c3.8984,1.9307,8.5117,6.2178,9.7051,10.5137c1.0586,3.8232-0.4492,8.0087-3.7061,10.2812
				c-2.1914,1.5313-5.8701,2.2832-7.8603,2.4629c-1.9893,0.1787-3.5274-0.5684-5.2188-1.2656
				C38.9454,45.4636,37.2677,44.3347,35.8273,42.9733z"/>
			<path class="st25" d="M54.9689,44.112c2.8047-2.2656,5.8125-6.1064,6.8603-9.6211c1.3037-4.3906-0.5801-9.0068-1.9287-13.2519
				c-0.6797-2.1475-1.7451-4.3389-3.6084-5.6963c-1.2451-0.9063-2.5976-1.7012-4.0342-2.2588
				c-1.3115-0.5088-1.6777-1.7344-2.9707-2.2569c-0.8408-0.3418-2.4179,0.1319-3.3252,0.1055
				c-2.1552-0.0615-4.333,0.0498-6.1728,1.2988c-1.0078,0.6836-1.75,1.2871-2.2334,2.4327
				c-0.3145,0.7363-0.6094,2.3271-1.5625,2.4921"/>
			<path class="st25" d="M48.2443,10.9069c-3.3819-0.0615-5.1953,1.4414-6.17,2.7715c-0.1953,0.2666-0.7949,1.0703-0.7285,1.4258
				c0.1328,0.6992,0.4356,0.2051,0.9727,0.3213c0.789,0.1738,1.4756,0.5879,1.3642,1.4511
				c-0.1416,1.0665-1.1816,1.4141-1.9072,2.004c-1.8291,1.4853-1.1133,3.1464-0.8447,5.0927
				c0.1377,1.0147-0.5947,3.0528-1.9141,2.5283"/>
			<path class="st25" d="M29.7765,35.655c-1.5889-0.0528-2.9746-5.4073-3.0527-6.6748c-0.0772-1.2784,0.1543-2.3809,0.8681-3.4551
				c0.6758-1.0195,1.7149-1.5723,2.5606-2.4258c1.8086-1.8154,1.707-5.1484,4.4746-5.6514
				c1.6855-0.3076,2.9658,0.5635,4.5937,0.8252c0.7305,0.1192,1.5908,0.6563,1.7813,1.4522"/>
			<path class="st25" d="M39.1945,12.5124c-1.6612-0.917-3.8135,0.5859-4.8125,1.7519c-0.6289,0.7344-1.085,1.7852-1.8321,2.3858
				c-0.665,0.5351-1.5127,0.3789-2.25,0.7451c-1.2197,0.6094-1.9736,2.6231-2.3388,3.876c-0.2217,0.751-0.3428,1.5078-0.2764,2.29
				c0.0547,0.5977,0.2178,1.2071,0.0361,1.7783"/>
			<path class="st26" d="M54.9689,44.112c1.3828-3.6553-1.2559-7.709-3.0225-8.3662c-0.9902,1.1748-0.2051,2.709,0.1651,3.9805
				c0.4169,1.4423,0.498,2.957,0.7812,4.4306c-1.6914-0.9658-5.1211-5.9443-6.5156-4.2939
				c-1.3936,1.6455,3.4023,3.416,4.3867,4.9775c-2.3066,0.5713-5.1055-0.6562-7.083-1.7578
				c-2.1514-1.1963-6.4053-4.46-5.8399-7.4394"/>
			<path class="st26" d="M57.1515,42.0573c2.2773-2.0332,2.79-6.4599,2.916-9.3135c0.1377-3.2207-0.2783-7.0478-2.3105-9.6621"/>
			<path class="st26" d="M57.7687,39.8093c1.4804-0.833,0.5185-4.1983,0.331-5.4844c-0.4853-3.2529-1.1738-6.7568-2.7685-9.6816
				c-0.7715-1.419-2.0254-3.75-3.5635-4.5215"/>
		</g>
	</g>
</g>
</svg>
