<?xml version="1.0" encoding="utf-8"?>
<svg version="1.1" id="Layer_1" xmlns="http://www.w3.org/2000/svg" xmlns:xlink="http://www.w3.org/1999/xlink" x="0px" y="0px"
	 viewBox="0 0 150 150" style="enable-background:new 0 0 150 150;" xml:space="preserve">
<style type="text/css">
	.st0{fill:#FFECF4;stroke:#000000;stroke-linecap:round;stroke-miterlimit:10;}
	.st1{fill:#FF9EC7;}
	.st2{fill:#FFFFFF;stroke:#000000;stroke-miterlimit:10;}
	.st3{fill:none;stroke:#000000;stroke-miterlimit:10;}
	.st4{fill:none;stroke:#000000;stroke-linecap:round;stroke-miterlimit:10;}
	.st5{fill:#FFC5DD;stroke:#000000;stroke-miterlimit:10;}
	.st6{fill:#FFC5DD;stroke:#000000;stroke-width:0.9453;stroke-miterlimit:10;}
	.st7{fill:#FFFFFF;stroke:#000000;stroke-linecap:round;stroke-miterlimit:10;}
	.st8{fill:#FFECF4;stroke:#000000;stroke-linecap:round;stroke-linejoin:round;stroke-miterlimit:10;}
	.st9{fill:#F56CB5;}
	.st10{fill:none;stroke:#000000;stroke-width:0.8;stroke-linejoin:round;stroke-miterlimit:10;}
	.st11{fill:none;stroke:#000000;stroke-width:0.8;stroke-linecap:round;stroke-miterlimit:10;}
	.st12{fill:#FFECF4;}
	.st13{fill:#FFC5DD;stroke:#000000;stroke-width:0.9022;stroke-miterlimit:10;}
	.st14{fill:#FF8FF3;stroke:#000000;stroke-miterlimit:10;}
	.st15{fill:none;stroke:#000000;stroke-width:0.7746;stroke-miterlimit:10;}
	.st16{fill:none;stroke:#000000;stroke-width:0.8458;stroke-linecap:round;stroke-linejoin:round;stroke-miterlimit:10;}
	.st17{fill:#F49DC3;stroke:#231F20;stroke-miterlimit:10;}
	.st18{fill:none;stroke:#231F20;stroke-linecap:round;stroke-miterlimit:10;}
	.st19{fill:#F49DC3;}
	.st20{fill:none;stroke:#231F20;stroke-miterlimit:10;}
	.st21{fill:#FFFFFF;}
	.st22{fill:none;stroke:#000000;stroke-width:0.8;stroke-miterlimit:10;}
	.st23{fill:none;stroke:#231F20;stroke-width:0.9174;stroke-miterlimit:10;}
	.st24{fill:none;stroke:#231F20;stroke-width:0.9174;stroke-linecap:round;stroke-miterlimit:10;}
	.st25{fill:none;stroke:#231F20;stroke-width:1.068;stroke-miterlimit:10;}
	.st26{fill:none;stroke:#231F20;stroke-width:1.068;stroke-linecap:round;stroke-miterlimit:10;}
</style>
<g>
	<g>
		<path class="st17" d="M48.9239,124.5672c0.5166-0.9199-0.0371-2.958-0.1836-4.0479c-0.3857-2.8564-0.4414-5.6572-0.4414-8.5341
			c0-3.4971-0.0176-6.5996-1.2783-9.9219c-1.3194-3.4766-3.1026-6.4844-4.8115-9.7393c-0.7442-1.4179-1.3389-3.0713-2.1319-4.3769
			c0.041,3.3662-1.9258,8.625,0.3467,11.6201c1.6895,2.2266,6.1836,6.1504,7.793,8.4727"/>
		<path class="st1" d="M48.2402,115.0955c-1.584-2.9375-5.7881-1.6513-8.5098-2.2763c-2.5527-0.585-5.3242-2.9131-7.6699-3.9063
			C37.6905,108.2518,46.9102,107.5526,48.2402,115.0955z"/>
		<path class="st4" d="M48.2402,115.0955c-1.584-2.9375-5.7881-1.6513-8.5098-2.2763c-2.5527-0.585-5.3242-2.9131-7.6699-3.9063
			C37.6905,108.2518,46.9102,107.5526,48.2402,115.0955"/>
		<path class="st4" d="M47.834,113.6219c-1.9844-1.3252-3.9278-2.4893-6.2569-2.4453"/>
		<path class="st18" d="M43.0489,99.4422c1.3105,2.3857,3.8008,4.2139,4.625,6.875"/>
	</g>
	<g>
		<path class="st19" d="M86.0938,119.3367c-0.0351-0.6611,0.4512-1.0507,0.667-1.6035c0.2432-0.625,0.2647-1.3164,0.461-1.9687
			c0.3544-1.1778,0.7392-2.3125,1.4062-3.3721c0.3311-0.5264,0.7637-0.9541,1.0693-1.4941
			c0.3018-0.5352,0.3946-1.1221,0.8086-1.5918c0.7725-0.8789,2.1973-1.4209,3.1504-2.1993
			c0.6485-0.5302,1.2989-0.9179,2.1699-0.6904c-0.0722,1.457-0.3974,2.5537-0.8769,3.835c-0.4473,1.1982-0.6084,2.4912-1.0488,3.665
			c-0.1905,0.5098-0.5674,0.916-0.8106,1.4063c-0.2724,0.5468-0.3965,1.1777-0.7988,1.7041
			c-0.6172,0.8076-1.8692,1.2812-2.8047,1.7041c-0.917,0.413-2.1191,0.7705-3.1348,0.5478"/>
		<g>
			<path class="st20" d="M77.1855,131.9656c0.9697-5.3232,5.8985-7.7168,8.4014-12.125
				c2.7754-4.8828,2.2295-11.0752,10.7324-13.8281c-2.0703,4.7266-1.6016,13.1621-10.7324,13.8281"/>
			<path class="st18" d="M86.293,119.0223c2.0772,0.6445,4.8497-4.8994,6.0176-6.1846"/>
		</g>
	</g>
	<g>
		<g>
			<g>
				<path class="st21" d="M68.1386,33.3836c0,0,6.6338-7.2246,8.5557-10.2432c1.5488-2.4296,2.2774-4.1162,0.8369-6.5029
					c-1.0176-1.6836-9.2402,6.9834-9.2402,6.9834l0.0683-0.5566c0.4659-3.6114,1.125-7.0987,1.3848-9.9991
					c0.5313-5.9277-3.4961-5.6845-4.1601-3.5166c-0.6661,2.169-3.3301,8.961-4.3311,13.5821
					c-0.4307,1.9873-0.7373,4.583-0.6572,8.5039l0.0176,0.5889c0,0-6.0313,7.9697-5.9493,9.2265
					c0.0371,0.5879-0.0605,1.6338-0.0058,3.958l0.0185,0.6358c0,0-3.2881,4.2998-3.8935,6.5507
					c-0.6055,2.25-0.544,14.8653-1.0449,15.0635c-0.5,0.1973-5.6465-8.2949-5.9551-9.707
					c-0.3106-1.4121,0.5244-7.1484,0.5429-8.8721c0.0274-2.7871,0.2081-5.2187-2.9882-3.7607
					c-0.6172,0.2822-2.8389,12.9092-2.5411,14.8935c0.2989,1.9844,7.2969,14.9532,9.9717,20.0284
					c2.3057,6.0703,5.6748,18.8671,6.4092,23.9824c0.7344,5.1152-8.1728,32.3427-8.1728,32.3427l24.5947,7.7579
					c0,0,7.3291-28.4522,10.333-40.1719c3.0049-11.7207,8.1601-17.0547,8.7109-27.3848c0.5498-10.3301-1.7031-16.3418-2.917-21.6103
					c-1.2675-5.501,0.2412-18.4639-1.7578-19.5147c-2-1.0498-5.4707-1.3418-7.0517,6.999
					c-0.9327,6.7891,1.6132,18.4063-0.1084,17.4952c-1.7227-0.9102-7.4991-14.5137-9.291-20.919
					c-0.5977-2.1377-1.0059-3.8027-1.2715-5.2158L68.1386,33.3836z"/>
			</g>
			<g>
				<path class="st18" d="M63.5889,55.911c-3.6728-20.2403-3.3369-28.1583-2.3359-32.7803
					c1.001-4.6211,3.665-11.4131,4.3311-13.5821c0.664-2.1679,4.6914-2.4111,4.1601,3.5166
					c-0.3242,3.6182-1.2685,8.1504-1.6855,12.6963c-0.418,4.545-0.4873,6.4991,1.459,13.4551
					c1.7919,6.4053,7.5683,20.0088,9.291,20.919c1.7216,0.9111-0.8243-10.7061,0.1084-17.4952
					c1.581-8.3408,5.0517-8.0488,7.0517-6.999c1.999,1.0508,0.4903,14.0137,1.7578,19.5147
					c1.2139,5.2685,3.4668,11.2802,2.917,21.6103c-0.5508,10.3301-5.706,15.6641-8.7109,27.3848
					c-3.0039,11.7197-10.333,40.1719-10.333,40.1719l-24.5947-7.7579c0,0,8.9072-27.2275,8.1728-32.3427
					c-0.7344-5.1153-4.1025-17.9121-6.4092-23.9824c-2.6748-5.0752-9.6728-18.044-9.9717-20.0284
					c-0.2978-1.9843,1.9239-14.6113,2.5411-14.8935c3.1963-1.458,3.0156,0.9736,2.9882,3.7607
					c-0.0185,1.7237-0.8535,7.46-0.5429,8.8721c0.3086,1.4121,5.4551,9.9043,5.9551,9.707
					c0.5009-0.1982,0.4394-12.8135,1.0449-15.0635c0.6054-2.2509,3.8935-6.5507,3.8935-6.5507"/>
				<path class="st18" d="M60.6133,32.2235c0,0-6.0313,7.9697-5.9493,9.2265c0.0821,1.2529-0.457,4.5869,1.1797,17.9268"/>
				<path class="st18" d="M68.2911,23.6209c0,0,8.2226-8.667,9.2392-6.9844c1.4415,2.3877,0.7129,4.0743-0.8359,6.5039
					c-1.9219,3.0186-8.5557,10.2432-8.5557,10.2432"/>
			</g>
		</g>
		<path class="st5" d="M86.8594,42.6824c0.7989-0.3672,0.5518-9.7705-1.4345-10.1953c-1.9873-0.4199-3.5508,5.3408-3.5371,7.4453
			C81.8995,42.036,86.0595,43.0486,86.8594,42.6824z"/>
		<path class="st5" d="M63.838,14.5926c-0.2452-1.167,2.2714-8.7031,4.0175-8.7852c1.7471-0.082-0.2929,6.7149-0.9716,7.7198
			C66.2041,14.532,65.001,15.076,63.838,14.5926z"/>
		<path class="st5" d="M39.8985,49.9412c-0.1797-1.3789,1.0274-8.2929,2.1807-7.582c1.1523,0.7109,0.4482,6.581,0.1406,7.0615
			C41.9122,49.9012,40.2589,50.0262,39.8985,49.9412z"/>
		<path class="st5" d="M70.6386,21.0779c-0.498-1.2265,7.4317-7.9638,8.4307-6.8252c1.001,1.1397-3.3818,5.7969-4.6182,6.6719
			C73.213,21.7996,72.1377,21.8211,70.6386,21.0779z"/>
	</g>
	<g>
		<path class="st12" d="M73.5547,130.3026c0.2255-0.6065,0.6298-1.0811,1.0097-1.585c0.2168-0.2842,0.374-0.666,0.6114-0.8916
			c0.7597,0.6084,1.6455,1.4541,0.7812,2.4131c-0.541,0.5976-1.7519,0.3242-2.4053,0.1562"/>
		<g>
			<g>
				<path class="st7" d="M44.0509,133.3885c1.6914-3.6211,1.1406-9.6074-2.0899-12.2393c3-1.2461,3.6885-1.1308,5.9805,1.2823
					c1.709,1.7959,3.8222,4.8183,6.6601,4.0507c-3.7841-2.5849,0.2989-4.6875,3.3008-2.5341
					c2.1211,1.5195,4.918,5.6738,7.711,5.1289c-2.2149-3.1221,0.6972-5.9151,3.5429-3.2393
					c1.6983,1.5957,3.6905,6.2334,7.3809,4.3106c-0.2246-0.9981-0.6436-1.9082-1.2666-2.7286
					c2.3877-0.7295,5.6689,0.2579,8.0078,0.96c-3.8721,3.1201-9.3008,13.5234-9.3008,13.5234L44.0509,133.3885z"/>
				<line class="st2" x1="76.5371" y1="130.1483" x2="72.4277" y2="137.8182"/>
				<line class="st2" x1="65.6133" y1="129.077" x2="62.1934" y2="135.3113"/>
				<line class="st2" x1="54.6016" y1="126.4822" x2="51.0742" y2="132.5721"/>
				<line class="st7" x1="65.2676" y1="125.5369" x2="63.2276" y2="128.5545"/>
				<line class="st2" x1="51.959" y1="126.1512" x2="53.5997" y2="123.5223"/>
				<line class="st7" x1="75.2706" y1="127.4197" x2="73.6456" y2="130.1893"/>
				<path class="st0" d="M44.0509,133.3885c1.6914-3.6211,1.1406-9.6074-2.0899-12.2393c3-1.2461,3.6885-1.1308,5.9805,1.2823
					c1.709,1.7959,3.8222,4.8183,6.6601,4.0507c-3.7841-2.5849,0.2989-4.6875,3.3008-2.5341
					c2.1211,1.5195,4.918,5.6738,7.711,5.1289c-2.2149-3.1221,0.6972-5.9151,3.5429-3.2393
					c1.6983,1.5957,3.6905,6.2334,7.3809,4.3106c-0.2246-0.9981-0.6436-1.9082-1.2666-2.7286
					c2.3877-0.7295,5.6689,0.2579,8.0078,0.96c-3.8721,3.1201-9.3008,13.5234-9.3008,13.5234L44.0509,133.3885z"/>
				<line class="st2" x1="76.5371" y1="130.1483" x2="72.4277" y2="137.8182"/>
				<line class="st2" x1="65.6133" y1="129.077" x2="62.1934" y2="135.3113"/>
				<line class="st2" x1="54.6016" y1="126.4822" x2="51.0742" y2="132.5721"/>
				<line class="st7" x1="65.2676" y1="125.5369" x2="63.2276" y2="128.5545"/>
				<line class="st2" x1="51.959" y1="126.1512" x2="53.0899" y2="124.2918"/>
				<line class="st7" x1="75.2706" y1="127.4197" x2="73.6456" y2="130.1893"/>
			</g>
			<polygon class="st8" points="74.3419,141.7508 73.414,145.1238 42.8438,136.5281 43.8027,133.3006 			"/>
		</g>
	</g>
	<g>
		<g>
			<path class="st9" d="M76.3194,48.0633c-0.6406,1.6309-1.5205,2.4336-0.1377,3.9648c1.1758,1.2998,3.1123,1.4629,4.4082,2.8145
				c1.6172,1.6855,2.3848,4.3262,4.0684,5.9473c1.7851,1.7158,4.2246,1.0312,6.4853,1.2802
				c1.7578,0.1934,2.5459,1.9463,3.9961,2.1123c1.1123,0.1289,2.3985-1.0195,3.4912-2.3642l0.6993-0.2168
				c0.7509,0.7099,1.1035,0.8301,2.0078,0.2822c0.8789-0.5371,1.5244-0.9512,2.5068-1.2178
				c1.3525-0.3672,2.8828-0.3779,3.4824-1.8242c0.7188-1.7275-0.8476-3.2471-1.667-4.6601
				c1.1162-1.0645,3.4102-0.0225,4.2237-1.1807c0.4951-0.7061-0.2227-1.5762-0.503-2.3252l0.2403,0.876
				c1.6689-1.4297,4.8037-0.5498,6.3095-2.1289c0.7276-0.7617,0.4131-2.4034,0.5703-3.292
				c0.2989-1.6944,0.4512-1.0918,1.4385-2.3516c-0.6933-1.7451-3.0791-2.2744-4.2793-3.5049
				c1.3174-1.1504,3.4942,0.3623,3.1153-2.2549c-0.1875-1.289-1.7911-2.9892-2.5186-4.0996l-0.0703,0.6827
				c0.2285-1.7198-0.7549-2.0411-1.4424-3.3418c-0.1875-0.3526-0.2998-0.7696-0.4121-1.2002l0.1064-0.6514
				c2.7481-2.3916-0.6054-5.3105-2.2617-7.1943c-1.7705-2.0186-0.956-5.8067-3.6963-7.1944
				c-1.1416-0.581-2.2783-0.2636-3.3437,0.1836c-1.6221,0.6758-1.3467,0.711-2.9668,0.3526l1.2695-0.1475
				c-1.373-2.0918-1.6279-4.7217-3.1748-6.585c-2.0986-2.5293-3.8203-1.0752-6.583-0.9882
				c-1.5058,0.0468-1.8808-1.2823-2.6553-2.2618c-0.3925-0.4941-0.7558-0.7011-1.3886-0.6894
				c-0.627,0.0117-1.7578-0.083-2.3184,0.165c-0.6426,0.2881-1.1455,0.6543-1.498,1.251c-0.4209,0.708-1.4258,4.5234-1.419,5.3418
				l-0.709-1.9971c-1.5849-3.5342-6.1914-5.7461-8.957-3.9082c-0.5547,0.8711,1.4199,3.1143,1.7852,4.7881
				c0.4472,2.0254,0.5302,2.2236-1.3008,2.624c-2.0196,0.4444-4.791-0.2129-5.0235,2.6084c-0.1513,1.8252,1.7852,4.836,3.17,5.8916
				l2.4043,0.9532c-1.043,0.4902-3.5137-1.3536-4.5469-0.6827c-1.2149,0.7891-0.7246,2.0889-2.1397,3.0049
				c-1.0547,0.6797-2.8574,0.5528-3.667,1.7139c-0.6972,1.001-0.3964,2.8828-0.7187,4.1142c0.9668-0.1406,2.2109-0.2959,2.709,0.71
				c-1.1719,0.8604-3.1289,1.6748-2.3946,3.1992c0.3184,0.6592,0.2149,2.7666,0.2012,3.5078
				c-0.1064,5.6563,7.2383-2.3808,8.168-2.8017c1.0957,1.7773-1.0078,4.416-0.9844,6.3623
				c0.0313,2.1162,1.8516,2.5928,3.3096,3.6533c0.8857,0.6426,1.2685,0.6758,2.0088,1.7588
				c0.7636,1.1221,1.4228,2.2422,2.9648,2.1699"/>
			<g>
				<path class="st22" d="M84.1592,46.8026c-2.4141-1.6006-3.336-5.8594-4.1778-8.4385c-1.039-3.1856-2.7978-6.0625,0.4219-8.7158
					c1.1943-0.9903,2.6601-1.6954,4.206-1.5645c2.086,0.1768,2.4112,1.5898,3.8936,2.6436c1.4785,1.0507,3.0742,0.0449,4.625,0.7841
					c1.3291,0.6358,1.9395,2.5791,2.6494,3.792c1.7617,3.0039,5.4131,2.2686,7.3164,5.2451
					c2.0147,3.1524,0.0528,5.2715-2.2783,7.3721c-3.0742,2.7744-4.9824,2.9268-8.8643,1.8115
					C89.2354,48.9549,86.622,47.5711,84.1592,46.8026z"/>
				<path class="st22" d="M95.836,35.0447c1.0498-0.1845,2.0713-1.3545,3.2695-1.6347c1.1485-0.2705,2.3067,0.1494,3.336,0.4912
					c1.2519,0.4121,2.4365,1.415,3.7588,1.6543c1.2959,0.2363,2.7949-0.7998,4.0478-0.375
					c4.9883,1.709-4.4453,9.7793-6.9902,10.0537"/>
				<path class="st22" d="M88.503,30.7274c2.6191-1.8838,0.541-3.4131,0.2305-5.5655c-0.168-1.167,0.83-1.3144-0.1006-2.5068
					c-0.666-0.8574-1.916-0.3535-2.376-1.5899c0.9502-0.998,0.2803-2.4218-0.6016-3.2939c-0.8339-0.8252-0.7734-0.4336-1.624-0.8174
					c-0.2969-0.1347-1.4336-0.791-1.749-0.8535c-2.4707-0.4824-6.0439,1.4424-6.1797,4.0547
					c-0.0732,1.3799,0.2656,2.6992,0.0225,4.0342c-0.2227,1.2256-0.9151,2.3691-0.9942,3.6162
					c-0.164,2.5263,1.878,5.2285,3.5137,7.1015"/>
				<path class="st22" d="M73.7716,22.6024c-1.043,0.4902-3.5137-1.3536-4.5469-0.6827c-1.2149,0.7891-0.7246,2.0889-2.1397,3.0049
					c-1.0547,0.6797-2.8574,0.5528-3.667,1.7139c-0.6972,1.001-0.3964,2.8828-0.7187,4.1142c0.9668-0.1406,2.2109-0.2959,2.709,0.71
					c-1.1719,0.8604-3.1289,1.6748-2.3946,3.1992c0.3184,0.6592,0.2149,2.7666,0.2012,3.5078
					c-0.1064,5.6563,7.2383-2.3808,8.168-2.8017c1.0957,1.7773-1.0078,4.416-0.9844,6.3623
					c0.0313,2.1162,1.8516,2.5928,3.3096,3.6533c0.8857,0.6426,1.2685,0.6758,2.0088,1.7588
					c0.7636,1.1221,1.4228,2.2422,2.9648,2.1699c1.5488-0.0752,4.0772-2.2217,4.585-3.5224"/>
				<path class="st22" d="M111.9024,37.2869c1.1651-0.1103,2.1162-1.4297,2.2842-2.6845c0.2285-1.7198-0.7549-2.0411-1.4424-3.3418
					c-0.5312-1.001-0.4463-2.5274-1.5058-3.3555c-0.754-0.5869-2.6563-0.7422-3.1192-0.9131"/>
				<path class="st22" d="M114.2569,33.9197c0.7275,1.1104,2.3311,2.8106,2.5186,4.0996c0.3789,2.6172-1.7979,1.1045-3.1153,2.2549
					c1.2002,1.2305,3.586,1.7598,4.2793,3.5049c-0.9873,1.2598-1.1396,0.6572-1.4385,2.3516
					c-0.1572,0.8886,0.1573,2.5303-0.5703,3.292c-1.5058,1.5791-4.6406,0.6992-6.3095,2.1289"/>
				<path class="st22" d="M82.4024,11.6424c-0.0068-0.8184,0.9981-4.6338,1.419-5.3418c0.3525-0.5967,0.8554-0.9629,1.498-1.251
					c0.5606-0.248,1.6914-0.1533,2.3184-0.165c0.6328-0.0117,0.9961,0.1953,1.3886,0.6894
					c0.7745,0.9795,1.1495,2.3086,2.6553,2.2618c2.7627-0.087,4.4844-1.5411,6.583,0.9882c1.5469,1.8633,1.8018,4.4932,3.1748,6.585
					"/>
				<path class="st22" d="M112.4384,29.409c2.7481-2.3916-0.6054-5.3105-2.2617-7.1943c-1.7705-2.0186-0.956-5.8067-3.6963-7.1944
					c-1.1416-0.581-2.2783-0.2636-3.3437,0.1836c-1.6221,0.6758-1.3467,0.711-2.9668,0.3526
					c-2.6416-0.583-2.793,0.1836-5.082,1.6845"/>
				<path class="st22" d="M100.6114,33.283c0.2041-1.2226,0.4697-3.1845-1.0225-4.3535c-1.1318-0.8867-2.9629-0.0977-3.8681-1.0615
					c1.2549-1.75,2.5136-2.9531,0.5146-4.4883c-1.5927-1.2227-2.831-1.1074-3.7793-3.2305
					c-0.4931-1.1074-0.7031-3.8427-2.0859-4.5097c-1.1895-0.5782-4.0752,1-5.042,1.83"/>
				<path class="st22" d="M106.4941,35.4705c1.6709-1.039,1.4512-2.6279,1.3467-4.4179c-0.0371-0.6709-0.1816-1.3604-0.1787-2.0225
					c0.0019-0.7178,0.3564-1.1983,0.5303-1.8887c0.8964-3.5556-4.4288-1.3174-5.3907-3.3906"/>
				<path class="st22" d="M95.7431,19.9412c1.9629-1.2861,3.3252-1.8144,5.3965-0.1181c0.5967,0.4882,1.6553,1.5019,1.8447,2.3261
					c0.1504,0.6504-0.2519,1.041-0.4091,1.6084c-0.3379,1.211,0.6006,2.1621,0.5283,3.4444
					c-0.0859,1.5478-0.8652,3.0703-2.5742,2.8281"/>
				<path class="st22" d="M95.2969,22.8543c0.0479-1.2539,0.5772-2.8867,0.3965-4.2109c-0.1357-1.0059-0.9257-1.6289-1.1914-2.5723
					c-0.247-0.875-0.123-1.7959-0.5615-2.6582c-0.8057-1.5918-4.1924-2.0254-5.9072-1.8769
					c-1.3028,0.1093-4.6992,2.1728-4.9346,3.5332"/>
				<path class="st22" d="M76.3194,48.0633c-0.6406,1.6309-1.5205,2.4336-0.1377,3.9648c1.1758,1.2998,3.1123,1.4629,4.4082,2.8145
					c1.6172,1.6855,2.3848,4.3262,4.0684,5.9473c1.7851,1.7158,4.2246,1.0312,6.4853,1.2802
					c1.7578,0.1934,2.5459,1.9463,3.9961,2.1123c2.1348,0.2481,4.9033-4.2041,5.7188-5.7373
					c2.2187-4.167-0.5381-5.7314-1.3467-9.4433"/>
				<path class="st22" d="M105.8438,44.2225c0.294,1.2256,1.5821,2.5888,2.2832,3.6601c0.6172,0.9405,0.8848,1.8067,1.2539,2.793
					c0.2803,0.749,0.9981,1.6191,0.503,2.3252c-0.8135,1.1582-3.1075,0.1162-4.2237,1.1807c0.8194,1.413,2.3858,2.9326,1.667,4.6601
					c-0.5996,1.4463-2.1299,1.457-3.4824,1.8242c-0.9824,0.2666-1.6279,0.6807-2.5068,1.2178
					c-0.9043,0.5479-1.2569,0.4277-2.0078-0.2822"/>
				<path class="st22" d="M83.0752,16.2684c0.2822-1.46-0.6602-5.0117-1.3819-6.6231c-1.5849-3.5342-6.1914-5.7461-8.957-3.9082
					c-0.5547,0.8711,1.4199,3.1143,1.7852,4.7881c0.4472,2.0254,0.5302,2.2236-1.3008,2.624
					c-2.0196,0.4444-4.791-0.2129-5.0235,2.6084c-0.1513,1.8252,1.7852,4.836,3.17,5.8916
					c1.8457,1.4043,3.4482,0.3975,4.7578,2.5401"/>
			</g>
		</g>
		<path class="st11" d="M83.6964,45.9881c-0.1651-1.4609,0.3964-5.9111,1.4384-7.3711c0.6455,1.4375-0.8964,6.4609-0.2226,8.0615
			c1.1513-0.2451,2.5986-2.416,3.5459-3.0996c0.1025,0.8643-1.0791,2.6787-1.3203,3.6172c2.5107,1.6152,8.292-0.8769,8.5058-4.2197"
			/>
		<path class="st11" d="M81.5909,24.4627c-0.7578,0.3828-1.5547,2.207-1.9492,3.1826c-0.4082,1.0108-0.7715,3.5801-1.4551,4.0977"/>
		<path class="st11" d="M78.129,33.9041c0.833-1.1279-0.2793-3.2793-0.4922-4.5957c-0.5049-3.084,0.5156-6.0439,0.8672-8.9385"/>
		<path class="st11" d="M103.88,44.4373c1.5566-0.4228,2.5947-3.2803,3.3789-4.6611"/>
		<path class="st11" d="M91.7979,51.0311c-0.6191,1.0918-1.5371,3.7236-2.6679,4.1845"/>
		<path class="st11" d="M93.0312,51.4363c1.293,2.2666,1.3076,5.9151,0.4151,8.2803"/>
		<path class="st11" d="M95.6816,51.9197c0.8779,0.9854,1.6787,1.378,1.6651,2.9756c-0.0088,1.2412-0.709,2.6338-0.6534,3.7403"/>
		<path class="st11" d="M73.914,26.3924c-1.6425-0.7666-3.957,0.1074-5.3437,0.9131"/>
		<path class="st11" d="M73.3027,28.2391c-2.4922,0.7949-3.6777,3.0674-5.3809,4.8398"/>
		<path class="st11" d="M82.7559,15.7293c-1.0742-1.0801-1.4873-2.9658-3.0674-3.584c-0.1552,0.9922,1.2862,2.1504,1.2344,3.4278
			c-1.5224-0.5411-4.3418,0.0712-5.4238,1.3359"/>
		<path class="st11" d="M104.1787,44.1688c1.4726-2.1241,0.5088-4.0909,0.2197-6.3086"/>
		<path class="st11" d="M89.1534,30.5887c0.4228,0.4805,1.8428,0.3027,2.3838,0.1494c0.9922-0.2822,1.7666-1.002,2.5879-1.5664"/>
		<path class="st11" d="M89.5684,30.2401c0.3672-1.0762,2.2178-1.3682,2.8106-2.4981"/>
		<path class="st11" d="M89.585,27.2498c0.378-0.2803,0.7159-1.0947,0.9541-1.5674c-0.4638-0.1943-1.4472,0.8506-1.8076,0.2647
			c-0.2744-0.4473,1.2617-2.9561,1.6709-2.8399"/>
	</g>
</g>
</svg>
