<?xml version="1.0" encoding="utf-8"?>
<svg version="1.1" id="Layer_1" xmlns="http://www.w3.org/2000/svg" xmlns:xlink="http://www.w3.org/1999/xlink" x="0px" y="0px"
	 viewBox="0 0 150 150" style="enable-background:new 0 0 150 150;" xml:space="preserve">
<style type="text/css">
	.st0{fill:#FFECF4;stroke:#000000;stroke-linecap:round;stroke-miterlimit:10;}
	.st1{fill:#FF9EC7;}
	.st2{fill:#FFFFFF;stroke:#000000;stroke-miterlimit:10;}
	.st3{fill:none;stroke:#000000;stroke-miterlimit:10;}
	.st4{fill:none;stroke:#000000;stroke-linecap:round;stroke-miterlimit:10;}
	.st5{fill:#FFC5DD;stroke:#000000;stroke-miterlimit:10;}
	.st6{fill:#FFC5DD;stroke:#000000;stroke-width:0.9453;stroke-miterlimit:10;}
	.st7{fill:#FFFFFF;stroke:#000000;stroke-linecap:round;stroke-miterlimit:10;}
	.st8{fill:#FFECF4;stroke:#000000;stroke-linecap:round;stroke-linejoin:round;stroke-miterlimit:10;}
	.st9{fill:#F56CB5;}
	.st10{fill:none;stroke:#000000;stroke-width:0.8;stroke-linejoin:round;stroke-miterlimit:10;}
	.st11{fill:none;stroke:#000000;stroke-width:0.8;stroke-linecap:round;stroke-miterlimit:10;}
	.st12{fill:#FFECF4;}
	.st13{fill:#FFC5DD;stroke:#000000;stroke-width:0.9022;stroke-miterlimit:10;}
	.st14{fill:#FF8FF3;stroke:#000000;stroke-miterlimit:10;}
	.st15{fill:none;stroke:#000000;stroke-width:0.7746;stroke-miterlimit:10;}
	.st16{fill:none;stroke:#000000;stroke-width:0.8458;stroke-linecap:round;stroke-linejoin:round;stroke-miterlimit:10;}
	.st17{fill:#F49DC3;stroke:#231F20;stroke-miterlimit:10;}
	.st18{fill:none;stroke:#231F20;stroke-linecap:round;stroke-miterlimit:10;}
	.st19{fill:#F49DC3;}
	.st20{fill:none;stroke:#231F20;stroke-miterlimit:10;}
	.st21{fill:#FFFFFF;}
	.st22{fill:none;stroke:#000000;stroke-width:0.8;stroke-miterlimit:10;}
	.st23{fill:none;stroke:#231F20;stroke-width:0.9174;stroke-miterlimit:10;}
	.st24{fill:none;stroke:#231F20;stroke-width:0.9174;stroke-linecap:round;stroke-miterlimit:10;}
	.st25{fill:none;stroke:#231F20;stroke-width:1.068;stroke-miterlimit:10;}
	.st26{fill:none;stroke:#231F20;stroke-width:1.068;stroke-linecap:round;stroke-miterlimit:10;}
</style>
<g>
	<path class="st0" d="M40.0338,112.3867c0.4726-0.4404,0.7568-0.999,1.0732-1.542c0.1807-0.3096,0.4717-0.6016,0.5889-0.9072
		c-0.8565-0.4678-1.9766-0.959-2.5284,0.208c-0.3447,0.7305,0.377,1.7422,0.7833,2.2822"/>
	<path class="st1" d="M69.772,132.1347c1.7696,0.3155,3.6153,0.7911,5.752,1.2032c6.4629,1.248,8.375-1.6035,13.8984-3.6074
		c-6.1172-1.9083-13.8242-0.0098-19.3164,2.4658L69.772,132.1347z"/>
	<path class="st1" d="M68.2213,131.6777c1.8593-4.3144,8.1103-8.1885,7.8896-12.8896c-5.0439,0.83-9.2383,7.5195-8.8379,12.7529
		L68.2213,131.6777z"/>
	<path class="st1" d="M34.2291,92.6299c-6.7168-3.6006-14.2783-8.8282-13.6045-16.876c3.6982,1.333,6.3183,3.0391,8.2832,6.6514
		c1.6709,3.0732,2.0176,7.3232,4.666,9.6484L34.2291,92.6299z"/>
	<path class="st1" d="M38.3463,94.7305c-1.5645-2.9473,1.8388-5.7315,2.8291-8.3428c0.9296-2.4492,0.5302-6.0469,1.0058-8.5498
		C38.5074,82.1553,32.8092,89.4385,38.3463,94.7305z"/>
	<g>
		<g>
			<path class="st2" d="M37.6588,118.9668c0,0,8.9697-6.7071,12.417-18.9121c3.166-11.211-2.4756-24.2989-4.7569-27.9834
				c-2.2832-3.6836-10.7568-9.7256-12.6269-14.7744c-1.8711-5.0479,0.4443-18.4825,1.4062-21.2588
				c2.6299-2.417,3.4033,3.3408,3.3213,4.3681c-0.084,1.0284,0.0469,6.1153,0.0127,12.3555c1.4121,6.249,5.5449,7.793,5.5449,7.793
				s-2.9238-8.4453-2.9619-11.0323c-0.0361-2.5888,6.0254-22.4853,7.1748-28.5283c4.3438-2.1074,4.793,3.6953,4.6553,5.4375
				c-0.1367,1.7442-2.1807,11.4561-1.5332,11.4971c0.6494,0.041,10.5478-13.1524,13.1387-15.999
				c3.4023-5.042,12.1455-2.628,1.333,8.582c-5.4932,6.4941-11.2891,14.377-11.5342,16.7773
				c-0.3184,3.129,2.9092,6.8731,3.709,7.9239c1.2089-0.252-0.4844-5.834,2.9892-9.5674c5.6612-5.9141,31.044-6.6221,31.044-6.6221
				s7.7578,2.6875-0.666,5.8633c-4.5909,1.2266-16.3233,1.5254-21.6924,5.4697c-2.6211,2.4033-1.9678,11.1319-1.2481,15.4932
				c0.7188,4.3594,3.208,8.9248,6.8985,7.8125c3.6875-1.1113,6.0175-1.0606,8.3105-11.541
				c0.2607-16.9844,8.7197-17.6123,9.874-16.4297c1.1534,1.1836-3.5273,24.7842-4.7939,30.2656
				c-1.2676,5.4824,1.4277,19.209-6.2402,28.4219c-7.667,9.2148-31.3897,34.7207-31.3897,34.7207L37.6588,118.9668z"/>
			<path class="st3" d="M34.0982,36.0381c2.6299-2.417,3.4483,3.3466,3.3213,4.3681"/>
			<path class="st4" d="M57.3277,54.7773c-0.2461,4.875,1.0918,15.3418,1.0918,15.3418"/>
			<path class="st4" d="M51.0113,37.0058c0,0-5.876,7.458-6.1104,11.293c-0.2314,3.834,4.5489,15.7754,4.5489,15.7754"/>
			<path class="st5" d="M91.8023,54.3808c0.6758-0.082,3.4766-12.1435,0.9365-10.208c-2.539,1.9346-4.7812,9.1026-4.5156,9.4502
				C88.4898,53.9668,91.1285,54.4629,91.8023,54.3808z"/>
			<path class="st5" d="M86.1842,39.3262c0.1601-0.836,10.4042-0.7774,10.7246,0.498c0.3193,1.2754-9.336,3.0498-10.2432,2.6191
				C85.7584,42.0117,86.0269,40.1621,86.1842,39.3262z"/>
			<path class="st5" d="M61.9547,23.0137c0.8017-1.1543,4.4755-6.9297,6.4609-6.752c1.9863,0.1777-2.7051,8.0664-3.4199,8.3018
				C64.2828,24.7949,61.1519,24.1699,61.9547,23.0137z"/>
			<path class="st5" d="M45.897,26.6621c-0.7226-0.3555,0.7286-8.1797,2.0538-8.4629c1.3242-0.2832,1.8076,6.1494,1.3037,7.2539
				C48.7525,26.5586,46.6217,27.0156,45.897,26.6621z"/>
			<path class="st6" d="M32.6744,41.0244c-0.3828-1.2012,0.5576-9.5127,1.3896-9.0186c0.8369,0.4971,1.5293,7.8663,1.0557,8.4082
				C34.6461,40.958,33.0592,42.2256,32.6744,41.0244z"/>
		</g>
		<g>
			<g>
				<g>
					<path class="st7" d="M48.5631,140.7988c2.6884-2.956,8.4238-4.7549,12.0996-2.79c-0.0069-3.2491-0.3799-3.8389-3.4903-5.0244
						c-2.3144-0.8829-5.9189-1.668-6.3047-4.5821c3.8438,2.4951,4.2081-2.084,1.0665-4.0224
						c-2.2217-1.3721-7.1338-2.3516-7.7061-5.1377c3.7353,0.8408,5.1885-2.9239,1.6211-4.5176
						c-2.126-0.9512-7.1738-1.002-6.8213-5.1484c1.0078-0.1778,2.0078-0.1416,3.0049,0.1152
						c-0.2471-2.4844-2.4238-5.1309-3.9717-7.0186c-1.3877,4.7764-8.8926,13.7959-8.8926,13.7959L48.5631,140.7988z"/>
					<line class="st2" x1="39.0279" y1="109.5762" x2="33.5338" y2="116.3242"/>
					<line class="st2" x1="44.2281" y1="119.2422" x2="39.7935" y2="124.8027"/>
					<line class="st2" x1="50.8677" y1="128.4023" x2="46.609" y2="134.0039"/>
					<line class="st7" x1="47.6265" y1="118.1972" x2="45.6304" y2="121.2422"/>
					<line class="st2" x1="52.192" y1="130.7129" x2="53.984" y2="128.1865"/>
					<line class="st7" x1="42.0328" y1="109.6914" x2="40.105" y2="112.2597"/>
					<path class="st0" d="M48.5631,140.7988c2.6884-2.956,8.4238-4.7549,12.0996-2.79c-0.0069-3.2491-0.3799-3.8389-3.4903-5.0244
						c-2.3144-0.8829-5.9189-1.668-6.3047-4.5821c3.8438,2.4951,4.2081-2.084,1.0665-4.0224
						c-2.2217-1.3721-7.1338-2.3516-7.7061-5.1377c3.7353,0.8408,5.1885-2.9239,1.6211-4.5176
						c-2.126-0.9512-7.1738-1.002-6.8213-5.1484c1.0078-0.1778,2.0078-0.1416,3.0049,0.1152
						c-0.2471-2.4844-2.4238-5.1309-3.9717-7.0186c-1.3877,4.7764-8.8926,13.7959-8.8926,13.7959L48.5631,140.7988z"/>
					<line class="st2" x1="39.0279" y1="109.5762" x2="33.5338" y2="116.3242"/>
					<line class="st2" x1="44.2281" y1="119.2422" x2="39.7935" y2="124.8027"/>
					<line class="st2" x1="50.8677" y1="128.4023" x2="46.609" y2="134.0039"/>
					<line class="st7" x1="47.6265" y1="118.1972" x2="45.6304" y2="121.2422"/>
					<line class="st2" x1="52.192" y1="130.7129" x2="53.4703" y2="128.9521"/>
					<line class="st7" x1="42.0328" y1="109.6914" x2="40.105" y2="112.2597"/>
				</g>
				<polygon class="st8" points="29.1685,116.0742 26.4136,118.2305 46.1324,143.124 48.7388,140.9941 				"/>
			</g>
			<g>
				<path class="st4" d="M42.9078,113.0537c1.4756-3.75,2.6064-7.167,1.9248-11.375c-0.7188-4.4356-3.6777-5.54-7.333-7.3662
					c-7.2149-3.6065-17.6621-9.1592-16.875-18.5586c3.6982,1.333,6.3183,3.0391,8.2832,6.6514
					c1.6709,3.0732,2.0176,7.3232,4.666,9.6484"/>
				<path class="st4" d="M38.3463,94.7305c-1.5645-2.9473,1.8388-5.7315,2.8291-8.3428c0.9296-2.4492,0.5302-6.0469,1.0058-8.5498
					C38.5074,82.1553,32.8092,89.4385,38.3463,94.7305"/>
				<path class="st4" d="M31.398,90.6885c0.0801-0.8291-0.7265-2.3877-1.4131-3.2129c-1.7011-2.042-3.0507-4.0205-4.5654-6.1407"/>
				<path class="st4" d="M37.3463,93.5742c-0.001-2.3857,0.1093-4.6494,1.4375-6.5625"/>
			</g>
			<g>
				<path class="st4" d="M58.9078,133.2148c6.0097-2.6494,9.6953-1.0185,15.6162,0.1231c6.4629,1.248,8.375-1.6035,13.8984-3.6074
					c-6.1172-1.9083-13.8242-0.0098-19.3164,2.4658"/>
				<path class="st4" d="M68.2213,131.6777c1.8593-4.3144,8.1103-8.1885,7.8896-12.8896c-5.0439,0.83-9.2383,7.5195-8.8379,12.7529"
					/>
				<path class="st4" d="M77.7213,131.4492c-1.8262-0.0527-3.5694,0.7402-5.4102,0.75c-0.5898,0.0029-1.6602,0.1807-2.1523-0.0625"
					/>
				<path class="st4" d="M70.9713,124.9492c-0.6075,1.9414-2.9219,4.7109-3.6983,6.5918"/>
			</g>
		</g>
	</g>
	<g>
		<g>
			<polygon class="st9" points="95.0924,45.376 90.8424,41.3506 86.4537,37.4814 83.8843,31.6846 83.0777,26.8828 83.9791,22.8017
				87.023,18.8056 88.2008,14.9814 90.0064,12.8906 91.9459,9.0469 94.1988,8.2441 97.0582,9.168 98.2554,7.6875 99.9332,6.8965
				101.4244,7.7353 103.3092,10.1152 106.3092,12.6347 107.5953,13.1347 110.1949,12.6631 113.2633,13.5273 114.94,15.7607
				115.5357,17.9375 115.8228,21.9228 116.3492,24.1025 119.7398,24.5644 121.2681,25.2881 124.0689,25.6758 126.4371,28.1758
				128.1695,30.9258 129.3912,33.8945 129.0894,35.3183 126.9127,35.6972 124.2496,35.665 121.5123,37.6914 117.7711,40.5342
				113.6861,42.5605 111.9009,43.416 108.9361,46.1152 105.5181,47.8213 101.7496,47.6357 97.7369,46.748 			"/>
			<path class="st10" d="M105.5181,47.8213c2.9004-0.9395,5.669-3.0596,7.3672-5.7627c1.293-2.0596,3.5039-5.0928,2.8574-7.709
				c-0.2412-0.9795-1.5722-2.3584-2.6865-2.4082c-1.1191-0.0488-1.8877,1.1875-2.9863,1.2832
				c-1.7783,0.1533-1.5059-1.3252-2.4492-2.3281c-1.1084-1.1768-1.835-0.1934-3.041,0.1006
				c-1.7198,0.4209-3.0889-0.9541-4.7881-1.1612c-1.3399-0.1621-2.3076,0.3487-3.2588,1.2569
				c-3.8506,3.6738-4.2227,11.1757-0.0586,14.9355C97.1578,46.6445,103.6304,48.4316,105.5181,47.8213z"/>
			<path class="st10" d="M115.6119,33.4971c0.0508-1.2334,1.3457-2.7266,1.6015-4.0918c0.2735-1.4629,0.1397-3.1426-0.4423-4.5059
				c-0.4961-1.1602-0.8184-1.7139-0.9483-2.9766c-0.1797-1.7324-0.0752-3.8105-0.5947-5.4629
				c-0.7061-2.2461-2.9326-3.3837-5.0332-3.7968c-1.5557-0.3057-2.0899-0.0928-3.2647,0.9209
				c-1.2041,1.041-1.497,0.6816-3.0859-0.1094c-1.9375-0.9629-2.8232-1.5352-4.7266-0.3115
				c-1.249,0.8047-2.4169,1.6699-3.2753,2.7871"/>
			<path class="st10" d="M98.9654,29.8281c0.2715-1.3242,0.7998-2.7939-0.0137-3.9873c-0.7959-1.1689-1.375-1.3379-1.1884-2.9102
				c0.2392-2.0078,0.5371-4.9023-2.5362-5.125c-2.4873-0.1806-4.3467,2.7071-5.6123,4.336
				c-0.7724,0.9941-2.0498,1.7578-2.4541,3.0264c-0.459,1.4423-0.0469,3.7636,0.1182,5.2236
				c0.125,1.0996-0.1006,2.3135,0.0498,3.3662c0.1816,1.2695,1.0097,3.1123,1.4287,4.334c0.793,2.3193,5.5,7.4687,7.7168,7.9365"/>
			<path class="st10" d="M95.5943,17.7168c0.3115-1.6162,0.2861-1.3809-1.2031-2.3311c-0.9483-0.6054-1.4756-1.6318-2.6504-1.9511
				c-3.5147-0.9561-4.1484,2.8974-4.7178,5.371c-0.3252,1.4131-1.2724,1.3975-2.1748,2.544
				c-0.9248,1.1758-1.4932,2.9092-1.6875,4.3516c-0.3652,2.6904,0.4883,5.4404,1.3721,7.9257
				c0.3994,1.1231,0.6553,2.5176,1.459,3.4053c0.7138,0.7881,4.1416,3.5147,4.8506,4.3184"/>
			<path class="st10" d="M107.9156,30.9287c0.0459-0.8115,0.79-1.7617,0.876-2.7051c0.0791-0.8515-0.167-1.9062-0.4043-2.6933
				c-0.2617-0.8614-0.794-1.6241-1.0938-2.4678c-0.29-0.8076-0.2363-1.7647-0.6738-2.5098
				c-1.0293-1.751-3.2402-1.8525-4.9277-1.2558c-0.917,0.3252-3.4082,0.7949-3.7588,1.6298"/>
			<path class="st10" d="M116.3492,24.1025c-2.4639-0.8672-1.7373-4.7031-4.1738-5.8545c-1.7295-0.8174-4.4541,1.4414-5.0362,3.1631
				"/>
			<path class="st10" d="M103.7291,18.7705c0.6543-1.0156,2.3965-0.3555,2.4052-2.0703c0.0069-1.0098-1.7294-2.6104-2.29-3.2256"/>
			<path class="st10" d="M116.6636,24.1015c0.9707,0.5655,2.0293,0.1338,3.0762,0.4629c0.5244,0.1651,0.9971,0.5918,1.5283,0.7237
				c0.5352,0.1338,0.9795-0.0743,1.4629-0.0186c2.6455,0.2988,3.6553,3.0156,5.0303,5.0244
				c1.0107,1.4746,3.1895,5.3291-0.0615,5.4356c-1.4092,0.0468-2.3399-0.5362-3.7725,0.0498
				c-1.6152,0.6601-2.2832,1.9697-3.498,2.9814c-1.9932,1.6592-6.2959,3.7315-8.5284,4.6553"/>
			<path class="st10" d="M107.5953,13.1347c-1.1289-0.0683-2.6201-1.5341-3.4951-2.2324c-1.1319-0.9033-1.6641-2.2051-2.6758-3.167
				c-0.7129-0.6767-1.5938-1.125-2.4932-0.6826c-0.8955,0.4404-1.0556,1.791-1.873,2.1153
				c-0.8858,0.3496-1.9942-0.7872-2.8594-0.9239c-1.167-0.1836-2.125,0.4102-2.7002,1.4053
				c-0.9268,1.6064-0.9023,2.9404-2.3418,4.2353"/>
		</g>
		<path class="st11" d="M101.9088,47.2617c3.125,1.4336,4.1328-5.4746,4-7.25"/>
		<path class="st11" d="M99.9088,46.8867c0.1171-2.3389-1.0518-4.4297-0.1026-6.7803c0.5576-1.3808,1.6524-2.8467,2.7276-3.8447"/>
		<path class="st11" d="M94.6578,44.5537c-1.7197-4.25-5.9834-10.8242-2.874-15.417"/>
		<path class="st11" d="M105.0338,47.5117c0.9599-0.292,2.1298-2.5332,2.7314-3.3525c0.6934-0.9463,1.3555-2.0459,1.2686-3.2725"/>
		<path class="st11" d="M101.9088,47.1367c0-1.8652-0.4395-4.375,0.75-5.875"/>
		<path class="st11" d="M120.4088,36.0117c-2.25,1.3105-3.587,5.0918-6.125,5.75"/>
		<path class="st11" d="M113.2838,42.2617c1.4218-2.3047,3.1201-4.8486,3.9716-7.7178c0.5547-1.8701,1.4092-2.9082,2.5284-4.4072"/>
		<path class="st11" d="M93.7838,43.6367c-2.1426-0.8516-4.2969-5.7021-4.6348-7.8477c-0.2363-1.5058-0.1162-3.5556,0.2568-4.9902
			c0.5381-2.0723,2.5147-3.8662,2.753-5.9121"/>
		<path class="st11" d="M100.2838,29.5303c0.6884,0.1171,1.9414-0.3663,2.0966-1c-0.914-0.1739-1.6962,0.1923-2.4804,0.5654
			c-0.0752-1.2451,0.9531-4.8389,2.1338-5.459"/>
		<path class="st11" d="M108.9088,32.0117c0.6494-0.0039,3.6396-1.1514,3.3125-1.875c-0.3272-0.7236-2.6827,1.3779-3.168,1.4834
			c-0.2461-1.2305,1.3008-2.5908,1.7051-3.7061c0.3154-0.8681,0.2724-1.7412,0.2754-2.6523"/>
		<path class="st11" d="M97.9088,19.2617c0.3642-0.5049,1.8955-0.4014,1.4892-1.0967c-0.4062-0.6953-2.3662,0.9063-2.2392-0.7812
			c0.0976-1.2959,2.1045-1.6045,3.125-1.9971"/>
	</g>
</g>
</svg>
