<?xml version="1.0" encoding="utf-8"?>
<!-- Generator: Adobe Illustrator 23.0.1, SVG Export Plug-In . SVG Version: 6.00 Build 0)  -->
<svg version="1.1" id="Layer_1" xmlns="http://www.w3.org/2000/svg" xmlns:xlink="http://www.w3.org/1999/xlink" x="0px" y="0px"
	 viewBox="0 0 300 130" style="enable-background:new 0 0 300 130;" xml:space="preserve">
<style type="text/css">
	.st0{fill:#FFECF4;stroke:#000000;stroke-width:0.4687;stroke-linecap:round;stroke-miterlimit:10;}
	.st1{fill:#FF9EC7;}
	.st2{fill:#FFFFFF;stroke:#000000;stroke-width:0.4687;stroke-miterlimit:10;}
	.st3{fill:none;stroke:#000000;stroke-width:0.4687;stroke-miterlimit:10;}
	.st4{fill:none;stroke:#000000;stroke-width:0.4687;stroke-linecap:round;stroke-miterlimit:10;}
	.st5{fill:#FFC5DD;stroke:#000000;stroke-width:0.4687;stroke-miterlimit:10;}
	.st6{fill:#FFC5DD;stroke:#000000;stroke-width:0.4431;stroke-miterlimit:10;}
	.st7{fill:#FFFFFF;stroke:#000000;stroke-width:0.4687;stroke-linecap:round;stroke-miterlimit:10;}
	.st8{fill:#FFECF4;stroke:#000000;stroke-width:0.4687;stroke-linecap:round;stroke-linejoin:round;stroke-miterlimit:10;}
	.st9{fill:#F56CB5;}
	.st10{fill:none;stroke:#000000;stroke-width:0.375;stroke-linejoin:round;stroke-miterlimit:10;}
	.st11{fill:none;stroke:#000000;stroke-width:0.375;stroke-linecap:round;stroke-miterlimit:10;}
	.st12{fill:#FFECF4;}
	.st13{fill:#FFC5DD;stroke:#000000;stroke-width:0.4228;stroke-miterlimit:10;}
	.st14{fill:#FF8FF3;stroke:#000000;stroke-width:0.4687;stroke-miterlimit:10;}
	.st15{fill:none;stroke:#000000;stroke-width:0.3631;stroke-miterlimit:10;}
	.st16{fill:none;stroke:#000000;stroke-width:0.3964;stroke-linecap:round;stroke-linejoin:round;stroke-miterlimit:10;}
	.st17{fill:#F49DC3;stroke:#231F20;stroke-width:0.4687;stroke-miterlimit:10;}
	.st18{fill:none;stroke:#231F20;stroke-width:0.4687;stroke-linecap:round;stroke-miterlimit:10;}
	.st19{fill:#F49DC3;}
	.st20{fill:none;stroke:#231F20;stroke-width:0.4687;stroke-miterlimit:10;}
	.st21{fill:#FFFFFF;}
	.st22{fill:none;stroke:#000000;stroke-width:0.375;stroke-miterlimit:10;}
	.st23{fill:none;stroke:#231F20;stroke-width:0.43;stroke-miterlimit:10;}
	.st24{fill:none;stroke:#231F20;stroke-width:0.43;stroke-linecap:round;stroke-miterlimit:10;}
	.st25{fill:none;stroke:#231F20;stroke-width:0.5005;stroke-miterlimit:10;}
	.st26{fill:none;stroke:#231F20;stroke-width:0.5005;stroke-linecap:round;stroke-miterlimit:10;}
	.st27{fill:#801E47;}
</style>
<g>
	<g>
		<path class="st0" d="M98.492,60.9769c0.2215-0.2064,0.3547-0.4682,0.503-0.7227c0.0847-0.1451,0.2211-0.282,0.276-0.4252
			c-0.4014-0.2193-0.9264-0.4495-1.185,0.0975c-0.1616,0.3424,0.1767,0.8166,0.3671,1.0696"/>
		<path class="st1" d="M112.43,70.2326c0.8294,0.1479,1.6945,0.3708,2.6959,0.5639c3.0291,0.5849,3.9253-0.7515,6.5141-1.6908
			c-2.8671-0.8944-6.4793-0.0046-9.0534,1.1557L112.43,70.2326z"/>
		<path class="st1" d="M111.7032,70.0184c0.8714-2.0221,3.8012-3.8379,3.6978-6.0412c-2.364,0.389-4.3299,3.5243-4.1422,5.9772
			L111.7032,70.0184z"/>
		<path class="st1" d="M95.7714,51.7171c-3.1481-1.6876-6.6921-4.1377-6.3763-7.9096c1.7333,0.6248,2.9613,1.4244,3.8823,3.1175
			c0.7831,1.4404,0.9456,3.4323,2.1869,4.5221L95.7714,51.7171z"/>
		<path class="st1" d="M97.7011,52.7016c-0.7333-1.3814,0.8618-2.6863,1.326-3.9102c0.4357-1.1479,0.2485-2.8341,0.4714-4.0072
			C97.7766,46.8077,95.1059,50.2213,97.7011,52.7016z"/>
		<g>
			<g>
				<path class="st2" d="M97.3788,64.0609c0,0,4.204-3.1436,5.8197-8.8639c1.4839-5.2545-1.1603-11.3887-2.2295-13.1156
					c-1.0701-1.7265-5.0416-4.5583-5.9181-6.9246c-0.877-2.3659,0.2082-8.6626,0.6591-9.9638
					c1.2326-1.1328,1.5951,1.5658,1.5567,2.0473c-0.0394,0.482,0.022,2.8662,0.006,5.7909
					c0.6618,2.9289,2.5988,3.6525,2.5988,3.6525s-1.3704-3.9582-1.3882-5.1707c-0.0169-1.2133,2.8241-10.5387,3.3628-13.371
					c2.0359-0.9877,2.2464,1.732,2.1819,2.5485c-0.0641,0.8175-1.0221,5.3694-0.7186,5.3886
					c0.3044,0.0192,4.9437-6.1644,6.158-7.4986c1.5946-2.3631,5.6925-1.2317,0.6248,4.0223
					c-2.5746,3.0437-5.2911,6.7384-5.406,7.8634c-0.1492,1.4665,1.3635,3.2214,1.7384,3.7139
					c0.5666-0.1181-0.227-2.7343,1.401-4.4842c2.6534-2.7719,14.55-3.1037,14.55-3.1037s3.636,1.2596-0.3121,2.7481
					c-2.1517,0.5749-7.6506,0.7149-10.167,2.5636c-1.2285,1.1264-0.9223,5.2174-0.585,7.2615
					c0.3369,2.0432,1.5036,4.183,3.2333,3.6616c1.7283-0.5209,2.8204-0.4971,3.8951-5.4092
					c0.1222-7.9604,4.0868-8.2547,4.6279-7.7004c0.5406,0.5547-1.6532,11.6161-2.2469,14.1852
					c-0.5941,2.5695,0.6692,9.0031-2.9247,13.3211c-3.5935,4.3189-14.7121,16.2733-14.7121,16.2733L97.3788,64.0609z"/>
				<path class="st3" d="M95.71,25.193c1.2326-1.1328,1.6162,1.5685,1.5567,2.0473"/>
				<path class="st4" d="M106.5975,33.9759c-0.1153,2.2849,0.5117,7.1906,0.5117,7.1906"/>
				<path class="st4" d="M103.637,25.6466c0,0-2.754,3.4955-2.8639,5.2929c-0.1085,1.797,2.132,7.3938,2.132,7.3938"/>
				<path class="st5" d="M122.7554,33.7901c0.3167-0.0384,1.6294-5.6915,0.4389-4.7844c-1.19,0.9067-2.2409,4.2663-2.1164,4.4292
					C121.2029,33.596,122.4396,33.8285,122.7554,33.7901z"/>
				<path class="st5" d="M120.1222,26.7341c0.075-0.3918,4.8764-0.3644,5.0265,0.2334c0.1497,0.5978-4.3757,1.4294-4.8009,1.2275
					C119.9227,27.9928,120.0485,27.1259,120.1222,26.7341z"/>
				<path class="st5" d="M108.7661,19.0886c0.3757-0.541,2.0976-3.2479,3.0282-3.1646c0.931,0.0833-1.2679,3.7806-1.6029,3.891
					C109.8573,19.9234,108.3898,19.6305,108.7661,19.0886z"/>
				<path class="st5" d="M101.24,20.7986c-0.3387-0.1666,0.3415-3.8337,0.9626-3.9665c0.6206-0.1327,0.8472,2.8822,0.611,3.3998
					C102.5783,20.75,101.5797,20.9642,101.24,20.7986z"/>
				<path class="st6" d="M95.0427,27.53c-0.1794-0.563,0.2613-4.4585,0.6513-4.2269c0.3923,0.233,0.7168,3.6869,0.4948,3.9408
					C95.9668,27.4989,95.223,28.093,95.0427,27.53z"/>
			</g>
			<g>
				<g>
					<g>
						<path class="st7" d="M102.4896,74.2934c1.26-1.3855,3.9482-2.2286,5.671-1.3076c-0.0032-1.5228-0.1781-1.7993-1.6359-2.3549
							c-1.0847-0.4138-2.7741-0.7818-2.955-2.1476c1.8016,1.1694,1.9723-0.9768,0.4999-1.8853
							c-1.0413-0.6431-3.3435-1.1022-3.6118-2.408c1.7507,0.3941,2.4318-1.3704,0.7598-2.1174
							c-0.9964-0.4458-3.3623-0.4696-3.1971-2.413c0.4723-0.0833,0.941-0.0664,1.4084,0.054
							c-0.1158-1.1644-1.136-2.4048-1.8615-3.2896c-0.6504,2.2387-4.1679,6.466-4.1679,6.466L102.4896,74.2934z"/>
						<line class="st2" x1="98.0205" y1="59.6596" x2="95.4455" y2="62.8224"/>
						<line class="st2" x1="100.4578" y1="64.19" x2="98.3793" y2="66.7962"/>
						<line class="st2" x1="103.5697" y1="68.4833" x2="101.5737" y2="71.1087"/>
						<line class="st7" x1="102.0506" y1="63.7002" x2="101.1151" y2="65.1274"/>
						<path class="st2" d="M105.0303,68.3821"/>
						<line class="st2" x1="104.1904" y1="69.5662" x2="105.0303" y2="68.3821"/>
						<line class="st7" x1="99.4289" y1="59.7136" x2="98.5253" y2="60.9174"/>
						<path class="st0" d="M102.4896,74.2934c1.26-1.3855,3.9482-2.2286,5.671-1.3076c-0.0032-1.5228-0.1781-1.7993-1.6359-2.3549
							c-1.0847-0.4138-2.7741-0.7818-2.955-2.1476c1.8016,1.1694,1.9723-0.9768,0.4999-1.8853
							c-1.0413-0.6431-3.3435-1.1022-3.6118-2.408c1.7507,0.3941,2.4318-1.3704,0.7598-2.1174
							c-0.9964-0.4458-3.3623-0.4696-3.1971-2.413c0.4723-0.0833,0.941-0.0664,1.4084,0.054
							c-0.1158-1.1644-1.136-2.4048-1.8615-3.2896c-0.6504,2.2387-4.1679,6.466-4.1679,6.466L102.4896,74.2934z"/>
						<line class="st2" x1="98.0205" y1="59.6596" x2="95.4455" y2="62.8224"/>
						<line class="st2" x1="100.4578" y1="64.19" x2="98.3793" y2="66.7962"/>
						<line class="st2" x1="103.5697" y1="68.4833" x2="101.5737" y2="71.1087"/>
						<line class="st7" x1="102.0506" y1="63.7002" x2="101.1151" y2="65.1274"/>
						<path class="st2" d="M105.0303,68.3821"/>
						<line class="st2" x1="104.1904" y1="69.5662" x2="104.7895" y2="68.7409"/>
						<line class="st7" x1="99.4289" y1="59.7136" x2="98.5253" y2="60.9174"/>
					</g>
					<polygon class="st8" points="93.3995,62.7052 92.1083,63.7158 101.3503,75.3832 102.5719,74.3849 					"/>
				</g>
				<g>
					<path class="st4" d="M99.839,61.2895c0.6916-1.7576,1.2216-3.3591,0.9021-5.3314c-0.3369-2.0789-1.7237-2.5965-3.4369-3.4525
						c-3.3816-1.6903-8.2781-4.2928-7.9092-8.6982c1.7333,0.6248,2.9613,1.4244,3.8823,3.1175
						c0.7831,1.4404,0.9456,3.4323,2.1869,4.5221"/>
					<path class="st4" d="M97.7011,52.7016c-0.7333-1.3814,0.8618-2.6863,1.326-3.9102c0.4357-1.1479,0.2485-2.8341,0.4714-4.0072
						C97.7766,46.8077,95.1059,50.2213,97.7011,52.7016"/>
					<path class="st4" d="M94.4445,50.8071c0.0375-0.3886-0.3405-1.1191-0.6623-1.5059c-0.7973-0.9571-1.4298-1.8844-2.1398-2.8781"
						/>
					<path class="st4" d="M97.2324,52.1596c-0.0005-1.1182,0.0512-2.1791,0.6737-3.0758"/>
				</g>
				<g>
					<path class="st4" d="M107.338,70.7388c2.8167-1.2418,4.5441-0.4774,7.3192,0.0577c3.0291,0.5849,3.9253-0.7515,6.5141-1.6908
						c-2.8671-0.8944-6.4793-0.0046-9.0534,1.1557"/>
					<path class="st4" d="M111.7032,70.0184c0.8714-2.0221,3.8012-3.8379,3.6978-6.0412c-2.364,0.389-4.3299,3.5243-4.1422,5.9772"
						/>
					<path class="st4" d="M116.1558,69.9113c-0.8559-0.0247-1.6729,0.3469-2.5357,0.3515
						c-0.2764,0.0014-0.7781,0.0847-1.0088-0.0293"/>
					<path class="st4" d="M112.9921,66.8648c-0.2847,0.9099-1.3695,2.208-1.7334,3.0895"/>
				</g>
			</g>
		</g>
		<g>
			<g>
				<polygon class="st9" points="124.2974,29.5696 122.3055,27.6829 120.2486,25.8695 119.0443,23.1526 118.6663,20.902 
					119.0887,18.9892 120.5154,17.1163 121.0674,15.3239 121.9137,14.344 122.8227,12.5425 123.8786,12.1662 125.2188,12.5992 
					125.7799,11.9053 126.5663,11.5346 127.2652,11.9277 128.1486,13.0432 129.5546,14.224 130.1574,14.4584 131.3758,14.2374 
					132.814,14.6424 133.5998,15.6892 133.879,16.7094 134.0136,18.5773 134.2603,19.5989 135.8494,19.8154 136.5658,20.1546 
					137.8784,20.3363 138.9884,21.508 139.8004,22.7969 140.373,24.1883 140.2315,24.8556 139.2113,25.0332 137.9632,25.0181 
					136.6802,25.9679 134.9267,27.3003 133.0121,28.25 132.1754,28.651 130.7858,29.916 129.1839,30.7157 127.4176,30.6287 
					125.5369,30.2126 				"/>
				<path class="st10" d="M129.1839,30.7157c1.3594-0.4403,2.657-1.434,3.4529-2.7009c0.606-0.9653,1.6423-2.3869,1.3392-3.6131
					c-0.1131-0.4591-0.7369-1.1054-1.2591-1.1287c-0.5245-0.0229-0.8848,0.5566-1.3997,0.6014
					c-0.8335,0.0718-0.7058-0.6211-1.1479-1.0912c-0.5195-0.5516-0.86-0.0906-1.4253,0.0472
					c-0.8061,0.1973-1.4477-0.4472-2.2441-0.5442c-0.628-0.076-1.0816,0.1634-1.5274,0.5891
					c-1.8047,1.7219-1.9791,5.2379-0.0275,7.0001C125.2655,30.1641,128.2991,31.0017,129.1839,30.7157z"/>
				<path class="st10" d="M133.9147,24.0021c0.0238-0.5781,0.6307-1.2779,0.7506-1.9178c0.1282-0.6856,0.0655-1.4729-0.2073-2.1119
					c-0.2325-0.5438-0.3836-0.8033-0.4445-1.3951c-0.0842-0.812-0.0352-1.7859-0.2787-2.5604
					c-0.3309-1.0527-1.3745-1.5859-2.359-1.7795c-0.7291-0.1433-0.9795-0.0435-1.5301,0.4316
					c-0.5643,0.4879-0.7016,0.3195-1.4463-0.0513c-0.9081-0.4513-1.3232-0.7195-2.2153-0.146
					c-0.5854,0.3772-1.1328,0.7827-1.5351,1.3063"/>
				<path class="st10" d="M126.1127,22.2824c0.1272-0.6206,0.3749-1.3095-0.0064-1.8688c-0.373-0.5479-0.6445-0.6271-0.557-1.364
					c0.1121-0.941,0.2517-2.2977-1.1887-2.402c-1.1658-0.0846-2.0373,1.2688-2.6304,2.0322
					c-0.362,0.4659-0.9607,0.8239-1.1502,1.4184c-0.2151,0.676-0.022,1.764,0.0554,2.4483
					c0.0586,0.5154-0.0471,1.0843,0.0233,1.5777c0.0851,0.595,0.4732,1.4587,0.6696,2.0313
					c0.3717,1.087,2.5778,3.5005,3.6168,3.7198"/>
				<path class="st10" d="M124.5327,16.606c0.146-0.7575,0.1341-0.6472-0.5639-1.0926c-0.4445-0.2837-0.6916-0.7648-1.2422-0.9145
					c-1.6473-0.4481-1.9443,1.358-2.2112,2.5173c-0.1524,0.6623-0.5964,0.655-1.0193,1.1923
					c-0.4334,0.5511-0.6999,1.3635-0.7909,2.0396c-0.1712,1.261,0.2289,2.5499,0.6431,3.7147
					c0.1872,0.5264,0.3071,1.18,0.6838,1.596c0.3345,0.3694,1.9411,1.6473,2.2734,2.024"/>
				<path class="st10" d="M130.3076,22.7983c0.0215-0.3803,0.3703-0.8257,0.4106-1.2679c0.0371-0.3991-0.0783-0.8934-0.1895-1.2623
					c-0.1227-0.4037-0.3721-0.7612-0.5126-1.1566c-0.1359-0.3785-0.1107-0.8271-0.3158-1.1763
					c-0.4824-0.8207-1.5187-0.8682-2.3096-0.5886c-0.4298,0.1524-1.5974,0.3726-1.7617,0.7639"/>
				<path class="st10" d="M134.2603,19.5989c-1.1548-0.4065-0.8143-2.2043-1.9562-2.744c-0.8106-0.3831-2.0876,0.6756-2.3604,1.4825
					"/>
				<path class="st10" d="M128.3454,17.0998c0.3067-0.476,1.1232-0.1666,1.1273-0.9703c0.0032-0.4733-0.8106-1.2235-1.0733-1.5118"
					/>
				<path class="st10" d="M134.4077,19.5984c0.455,0.265,0.9511,0.0627,1.4418,0.217c0.2458,0.0774,0.4673,0.2774,0.7163,0.3392
					c0.2508,0.0627,0.4591-0.0348,0.6856-0.0087c1.2399,0.14,1.7132,1.4134,2.3577,2.3549
					c0.4737,0.6911,1.4949,2.4977-0.0288,2.5476c-0.6605,0.0219-1.0967-0.2513-1.7681,0.0233
					c-0.757,0.3094-1.0701,0.9232-1.6395,1.3974c-0.9342,0.7777-2.9508,1.7489-3.9972,2.1819"/>
				<path class="st10" d="M130.1574,14.4584c-0.5291-0.032-1.228-0.719-1.6381-1.0463c-0.5305-0.4234-0.7799-1.0335-1.2541-1.4843
					c-0.3341-0.3172-0.747-0.5273-1.1685-0.3199c-0.4197,0.2064-0.4948,0.8394-0.8779,0.9914
					c-0.4152,0.1639-0.9347-0.369-1.3402-0.433c-0.547-0.0861-0.996,0.1923-1.2656,0.6587
					c-0.4344,0.7529-0.4229,1.3781-1.0976,1.985"/>
			</g>
			<path class="st11" d="M127.4922,30.4534c1.4647,0.6719,1.937-2.5659,1.8748-3.398"/>
			<path class="st11" d="M126.5548,30.2776c0.0549-1.0962-0.493-2.0762-0.0481-3.1779c0.2613-0.6472,0.7745-1.3342,1.2784-1.802"/>
			<path class="st11" d="M124.0937,29.1842c-0.806-1.9919-2.8044-5.0732-1.347-7.2258"/>
			<path class="st11" d="M128.9569,30.5706c0.4499-0.1369,0.9982-1.1873,1.2802-1.5713c0.325-0.4435,0.6353-0.9589,0.5946-1.5338"/>
			<path class="st11" d="M127.4922,30.3948c0-0.8742-0.206-2.0505,0.3515-2.7536"/>
			<path class="st11" d="M136.163,25.1806c-1.0546,0.6142-1.6812,2.3865-2.8707,2.695"/>
			<path class="st11" d="M132.8236,28.1099c0.6664-1.0802,1.4624-2.2725,1.8615-3.6173c0.26-0.8765,0.6605-1.363,1.185-2.0656"/>
			<path class="st11" d="M123.6841,28.7544c-1.0042-0.3991-2.0139-2.6725-2.1723-3.6781c-0.1108-0.7058-0.0545-1.6665,0.1204-2.3389
				c0.2522-0.9713,1.1786-1.8121,1.2903-2.7709"/>
			<path class="st11" d="M126.7306,22.1429c0.3226,0.0549,0.9099-0.1717,0.9827-0.4687c-0.4284-0.0815-0.795,0.0901-1.1625,0.265
				c-0.0352-0.5836,0.4467-2.2679,1.0001-2.5586"/>
			<path class="st11" d="M130.7731,23.3059c0.3044-0.0018,1.7058-0.5396,1.5525-0.8788c-0.1534-0.3391-1.2574,0.6458-1.4848,0.6953
				c-0.1153-0.5767,0.6097-1.2143,0.7992-1.737c0.1478-0.4069,0.1277-0.8161,0.1291-1.2431"/>
			<path class="st11" d="M125.6175,17.3301c0.1707-0.2366,0.8884-0.1881,0.698-0.514c-0.1904-0.3259-1.109,0.4248-1.0495-0.3661
				c0.0457-0.6074,0.9864-0.752,1.4647-0.936"/>
		</g>
	</g>
	<g>
		<path class="st12" d="M210.3101,60.7336c-0.0554-0.1291-0.0421-0.3364-0.0943-0.492c-0.054-0.1611-0.1387-0.3048-0.1693-0.4746
			c-0.0485-0.2682-0.0687-0.319,0.1465-0.4165c0.1647-0.075,0.3502-0.0636,0.52-0.0156c0.4669,0.1314,0.3982,0.4311,0.1904,0.7909
			c-0.0833,0.1437-0.135,0.2641-0.2719,0.3662c-0.1369,0.102-0.3158,0.0682-0.3506,0.271"/>
		<g>
			<path class="st1" d="M194.4268,65.6489c-2.3499-1.7338-2.7385-6.9319-6.466-6.8344c1.64,2.2299,2.5243,5.146,5.3126,6.4591
				L194.4268,65.6489z"/>
		</g>
		<path class="st1" d="M210.592,55.0388c1.0701-1.8899,0.6111-3.3879,1.0381-5.4778c0.5053-2.4757,2.5041-2.8877,3.5742-4.8558
			c-0.958,3.078-0.2618,6.5177-3.0231,8.9229L210.592,55.0388z"/>
		<path class="st1" d="M208.6413,47.7055c0.0124-1.4102,1.3173-2.4363,1.7191-3.4492c0.6216-1.5626-0.1584-2.7234,0.0426-4.329
			c-2.2372,2.1956-2.1983,4.5189-1.7535,7.7774L208.6413,47.7055z"/>
		<g>
			<path class="st3" d="M192.8871,36.9979c0.7355,0.0572,3.674,1.4889,3.674,1.4889"/>
			<g>
				<g>
					<path class="st2" d="M202.2705,69.9976c0,0-9.7304-10.5432-11.1758-15.4009c-1.4463-4.8577-0.8577-9.54-1.2898-11.2637
						c-0.4985-1.9837-1.8583-12.7329-1.8583-12.7329l-0.6884-1.1296c0,0-3.7029-2.132-5.151-4.3034
						c-1.4308-2.1484,1.0362-2.8556,1.0362-2.8556s7.0162,5.0819,7.484,5.13c0.611,0.0645,4.1797-1.7979,8.7097,2.9389
						c-1.5287-6.4084,0.7914-6.2138,0.7914-6.2138s2.9385,9.1445,3.4159,10.4343c0.4779,1.2903,1.8706,1.5914,2.424,4.0969
						c0.5539,2.5068-2.3663,11.0037-1.6061,14.0873c0.7612,3.0822,5.795,11.6971,5.795,11.6971L202.2705,69.9976z"/>
					<line class="st3" x1="198.6935" y1="29.7053" x2="203.6688" y2="34.9186"/>
					<path class="st4" d="M190.6274,27.4415c2.8615,2.1709,9.7679,7.0162,11.2449,10.2979
						c0.2998,1.2074-0.3671,2.4844-0.3671,2.4844"/>
					<path class="st3" d="M187.2582,29.4705c0.5117,0.5808,9.4965,7.8043,9.7629,10.0434c0.2316,1.9448-0.109,6.0069-1.6295,5.8454
						c-1.9842-0.2298-2.05-11.0637-3.8923-12.1562"/>
					<path class="st5" d="M188.6066,34.6059c-0.3927,0.022-3.2602-4.1592-3.0199-4.604c0.2398-0.4454,1.5635,0.189,2.1247,0.4558
						c0.5598,0.2673,1.6152,1.44,1.9398,2.1892C189.9751,33.3958,188.9993,34.5844,188.6066,34.6059z"/>
					<path class="st13" d="M201.3661,27.4415c-0.2669-0.9319-1.2729-4.329-1.8002-4.2823c-0.5277,0.0457,0.1167,3.1339,0.335,3.7706
						C200.1184,27.5669,201.4521,27.7408,201.3661,27.4415z"/>
					<path class="st14" d="M186.7392,24.8792c0.4435-0.3872-4.2475-3.6099-4.9991-3.236c-0.7516,0.373,3.1911,3.6328,3.6071,3.7459
						C185.7638,25.5017,186.2965,25.266,186.7392,24.8792z"/>
				</g>
				<g>
					<g>
						<path class="st7" d="M202.6188,72.3214c-0.8001-1.6939-3.1238-3.2868-5.0403-2.9096
							c0.4486-1.4555,0.6962-1.6688,2.2533-1.7736c1.158-0.0782,2.8813,0.0636,3.4534-1.1891
							c-2.0647,0.5914-1.5997-1.5113,0.0746-1.9489c1.1836-0.3103,3.5193-0.0755,4.1578-1.2459
							c-1.7892-0.1355-1.9242-2.0217-0.1071-2.2469c1.0838-0.1346,3.3527,0.5346,3.7637-1.3718
							c-0.4275-0.2183-0.8806-0.3387-1.3626-0.3607c0.4513-1.0797,1.7896-1.9668,2.7426-2.6007
							c-0.0329,2.3311,2.0931,7.4025,2.0931,7.4025L202.6188,72.3214z"/>
						<line class="st2" x1="211.1742" y1="59.6356" x2="212.7108" y2="63.413"/>
						<line class="st2" x1="207.5176" y1="63.2542" x2="208.7425" y2="66.3547"/>
						<line class="st2" x1="203.2852" y1="66.449" x2="204.4263" y2="69.5436"/>
						<line class="st7" x1="206.1381" y1="62.3201" x2="206.6155" y2="63.9586"/>
						<path class="st2" d="M201.9185,65.9249"/>
						<line class="st2" x1="202.3753" y1="67.3031" x2="201.9185" y2="65.9249"/>
						<line class="st7" x1="209.8116" y1="59.2749" x2="210.3234" y2="60.6906"/>
						<path class="st0" d="M202.6188,72.3214c-0.8001-1.6939-3.1238-3.2868-5.0403-2.9096
							c0.4486-1.4555,0.6962-1.6688,2.2533-1.7736c1.158-0.0782,2.8813,0.0636,3.4534-1.1891
							c-2.0647,0.5914-1.5997-1.5113,0.0746-1.9489c1.1836-0.3103,3.5193-0.0755,4.1578-1.2459
							c-1.7892-0.1355-1.9242-2.0217-0.1071-2.2469c1.0838-0.1346,3.3527,0.5346,3.7637-1.3718
							c-0.4275-0.2183-0.8806-0.3387-1.3626-0.3607c0.4513-1.0797,1.7896-1.9668,2.7426-2.6007
							c-0.0329,2.3311,2.0931,7.4025,2.0931,7.4025L202.6188,72.3214z"/>
						<line class="st2" x1="211.1742" y1="59.6356" x2="212.7108" y2="63.413"/>
						<line class="st2" x1="207.5176" y1="63.2542" x2="208.7425" y2="66.3547"/>
						<line class="st2" x1="203.2852" y1="66.449" x2="204.4263" y2="69.5436"/>
						<line class="st7" x1="206.1381" y1="62.3201" x2="206.6155" y2="63.9586"/>
						<path class="st2" d="M201.9185,65.9249"/>
						<line class="st2" x1="202.3753" y1="67.3031" x2="201.9185" y2="65.9249"/>
						<line class="st7" x1="209.8116" y1="59.2749" x2="210.3234" y2="60.6906"/>
					</g>
					<polygon class="st0" points="214.7627,63.9586 215.6405,65.2438 203.3795,73.7037 202.5181,72.4898 					"/>
				</g>
				<g>
					<path class="st4" d="M209.5997,60.9789c-2.0862-3.5733,0.0901-5.1794,2.5815-7.3508c2.7613-2.4052,2.0652-5.8449,3.0231-8.9229
						c-1.0701,1.9681-3.0689,2.3801-3.5742,4.8558c-0.427,2.0899,0.032,3.588-1.0381,5.4778"/>
					<path class="st4" d="M209.0294,56.8052c-0.4902-0.7735,0.3094-3.5871,0.2261-4.7125c-0.108-1.4578-0.6925-3.0342-0.6206-4.4878
						c0.0545-1.1067,1.352-2.1535,1.7539-3.1664c0.6215-1.5626-0.1758-2.8652,0.0252-4.4708
						c-2.2378,2.1961-2.1655,4.7519-1.7713,7.6363"/>
					<path class="st4" d="M211.2232,54.2287c0.4669-0.3117,0.6275-1.1608,1.017-1.6322c0.7351-0.8884,0.7411-1.9219,1.0665-3.0282"
						/>
					<path class="st4" d="M209.0976,46.2408c-0.1286-0.9978,0.6953-2.2546,0.5955-3.2154"/>
				</g>
				<g>
					<path class="st4" d="M198.7059,67.8038c-0.8719-2.5966-3.4543-1.5979-5.4325-2.5302
						c-2.7883-1.3131-3.6727-4.2292-5.3126-6.4591c3.7276-0.0975,4.1161,5.1007,6.466,6.8344"/>
					<path class="st4" d="M193.7823,65.4745c-0.2124-0.5666-1.5456-1.7676-2.0089-2.2194
						c-0.6481-0.6335-0.7571-1.2463-1.1667-1.9535"/>
				</g>
			</g>
		</g>
		<g>
			<g>
				<polygon class="st9" points="187.433,27.9427 187.3822,29.0416 186.9579,29.9923 185.8077,30.7415 185.1157,31.4057 
					184.344,32.0634 183.0711,32.6676 183.1988,33.0777 183.4995,33.7862 182.6734,34.4961 181.839,35.1479 181.4188,36.0367 
					180.5519,36.8895 179.2557,37.8012 178.965,37.6282 179.0822,36.5942 179.1911,35.6284 179.1792,35.0834 178.5938,35.6033 
					178.1361,35.7191 176.8934,35.3927 176.0426,35.3964 175.2548,36.0006 174.4164,36.1956 173.3128,35.6884 172.0912,34.8183 
					171.3982,34.0329 172.5846,33.5431 173.5883,33.2443 174.4461,32.9101 175.6361,32.1755 176.2385,31.6268 174.6859,31.3951 
					173.0222,30.4065 171.5012,29.6348 169.8095,28.8553 169.8475,28.053 170.7268,27.2849 170.4059,26.354 170.1862,25.5379 
					170.7121,24.3611 171.3588,23.3331 171.3639,22.5413 171.6371,21.4483 172.0248,21.1503 172.9219,20.9425 173.3531,20.4619 
					173.8163,19.541 174.8273,18.9789 175.2878,18.1976 175.8915,17.7244 176.9314,17.7688 177.1589,16.8827 177.985,16.1677 
					178.9568,16.1261 179.6479,15.5864 180.1926,14.6312 181.0133,14.3301 182.401,14.9498 182.92,14.7758 184.0268,15.2235 
					184.7893,16.122 184.7234,15.0276 184.6401,14.0879 185.1724,14.055 185.7885,13.5094 186.3528,13.2045 187.098,13.8641 
					187.098,13.8641 187.206,14.0879 187.4536,14.5548 187.7571,15.2413 188.2867,17.0703 189.1902,19.1524 190.8828,17.8768 
					191.4581,17.2653 192.3694,15.9448 193.2161,16.2748 194.1911,17.2337 194.8158,18.5927 194.7183,19.4508 193.3406,20.3777 
					192.9415,21.2029 193.2853,22.3326 193.0701,23.0132 192.5035,23.2214 192.7543,23.8641 193.7151,25.0646 193.6976,26.0194 
					192.6756,26.5366 191.8673,26.9499 191.8517,27.8841 191.3968,28.156 190.2031,27.9655 189.2428,27.5903 				"/>
				<path class="st15" d="M187.4536,27.9761c0.5213,0.0394,1.0473-0.3465,1.5109-0.379c0.5241-0.0361,0.7996,0.2742,1.2386,0.3684
					c0.2289,0.0494,1.2468,0.2724,1.429,0.1611c0.5465-0.33-0.0503-0.7479,0.2353-1.1768c0.3772-0.5694,1.7644-0.2856,1.9979-1.2903
					c0.1721-0.7465-1.3219-1.5544-1.3608-2.4373"/>
				<path class="st15" d="M179.2145,35.0884c0.2366,0.5387-0.2847,1.9539-0.185,2.5471c0.1021,0.5941,1.3612-0.6527,1.9814-1.12
					c0.601-0.4536,0.6115-1.2376,1.055-1.6766c0.4874-0.4843,1.277-0.2984,1.4395-1.115c0.125-0.6271-1.0527-0.8069-0.081-1.3415"/>
				<path class="st15" d="M180.0603,28.5542c-0.5474-0.3328-1.6377-0.2984-2.3275-0.563c-0.6897-0.2622-1.169-0.6156-1.6939-1.114
					c-0.6783-0.6422-2.8524-2.11-2.3-2.824c0.5529-0.7141,1.6331,0.1556,2.1855-0.232c0.7447-0.5213,0.2861-1.2651,0.6513-1.9631
					c0.3712-0.7072,1.2189-0.671,1.8913-1.0605c0.8358-0.4861,1.3076-1.18,1.921-1.8784c0.9159-1.0445,2.3393-1.9018,3.3701-1.0307
					c0.7415,0.6234,1.9915,2.8044,1.7521,3.7825"/>
				<path class="st15" d="M176.2385,31.6268c-0.4412-0.2335-1.4157-0.2037-1.932-0.4591c-0.8467-0.4184-1.5557-1.0129-2.435-1.4015
					c-0.8234-0.3625-2.6588-0.4444-2.024-1.7132c0.5072-1.0129,1.7654-0.4577,2.5078-1.0802
					c0.3218-0.2696,0.2714-0.7182,0.757-0.9763c0.4316-0.2289,0.9749-0.1538,1.2175-0.5996"/>
				<path class="st15" d="M181.9058,17.7395c0.39-0.86-0.5474-2.7462,1.0142-2.9637c0.9008-0.1258,1.3571,0.7992,1.8693,1.3461
					c0.1574-0.6834-0.2463-1.3758-0.1492-2.034c0.9685,0.2101,1.0253-0.8893,1.7127-0.8834
					c0.5264,0.0037,1.2363,1.5942,1.4042,2.0368c0.2431,0.638,0.3035,1.3814,0.6088,2.0075
					c0.3446,0.7072,0.6481,1.1196,0.8243,1.9036"/>
				<path class="st15" d="M180.8073,18.4901c-0.2325-0.0265-0.9095-0.1583-1.1333-0.0828c-0.4449,0.151-1.9315,0.2659-2.1965,0.665
					c-0.1854,0.2788-0.8522,0.8678-1.1868,0.9543c-0.1863,0.048-2.197,0.1432-1.3653,2.9165"/>
				<path class="st15" d="M182.401,14.9498c-0.579-0.0434-0.8262-0.5584-1.3877-0.6197c-0.5625-0.0614-0.731,0.1323-1.0509,0.6302
					c-0.2504,0.3914-0.3177,0.8902-0.7699,1.0939c-0.557,0.2513-1.0953-0.1282-1.6171,0.3199
					c-0.8015,0.6888-0.6087,1.4733-0.384,2.3375c0.1432,0.5501-0.1094,0.6687-0.5438,1.1095"/>
				<path class="st15" d="M176.9314,17.7688c-0.996-0.1126-1.4198-0.2092-1.8162,0.7881c-0.2687,0.6742-0.4925,0.363-1.0962,0.7992
					c-0.3391,0.2463-0.4188,0.5474-0.5753,0.8967c-0.1337,0.2971-0.1959,0.5374-0.5218,0.6898
					c-0.4495,0.2105-0.947,0.027-1.2848,0.5058c-0.3465,0.4893-0.2138,1.3072-0.2783,1.8848"/>
				<path class="st15" d="M183.1388,26.9192c-0.9245-0.3689-2.1457,0.8216-2.8282,1.5809
					c-0.7112,0.7895-1.2994,2.8098-1.3237,3.9363c0.1671,0.0485,1.7594,0.8898,5.1236-0.2714
					c0.7881-0.2714,1.0211-0.936,1.6999-1.4184c0.9095-0.6467,1.3132-0.4893,1.5818-1.6885
					c0.2224-0.991-0.1551-1.8913,0.0966-2.8231c0.27-0.9955,0.9397-1.7068,0.552-2.8675c-0.2421-0.7277-1.3493-2.0308-2.2963-1.6757
					c-0.5955,0.2247-1.4408,1.8697-1.9325,2.4803C183.1521,24.9895,182.8139,25.8377,183.1388,26.9192z"/>
				<path class="st15" d="M179.4735,29.8998c-1.3502-0.2627-2.8931,1.4582-3.8374,2.2757c-1.3338,1.152-3.6928,1.4394-4.1889,1.7095
					c-0.4948,0.2701,2.3549,2.3938,3.1852,2.3242c1.1035-0.0915,0.9301-1.1552,2.2656-0.8161
					c1.0843,0.2746,1.5883,0.7799,2.3421-0.5264c0.2-0.3419,0.2728-0.7666,0.4806-1.1058c0.2009-0.3296,1.2582-0.7323,1.4417-1.0207
					"/>
				<path class="st15" d="M186.714,21.8126c0.0041-1.3109,2.5123-2.5233,3.4612-3.2067c1.223-0.8779,1.8519-2.3549,2.1943-2.6611
					c0.3414-0.3067,2.0628,1.2857,2.365,1.9846c0.8284,1.9214-1.4368,1.8409-1.7599,3.0643
					c-0.1442,0.5415,0.5076,0.9205,0.2696,1.5503c-0.2613,0.6893-1.294,0.8563-1.8725,1.0683
					c-0.9686,0.3556-2.2583,0.5606-3.29,0.3076"/>
				<path class="st15" d="M170.8032,27.5092c-0.0014-0.5694-0.6509-1.3951-0.617-1.9713c0.0311-0.5223,0.2632-0.7735,0.5259-1.1768
					c0.1634-0.2458,0.4229-0.9603,0.7168-1.0637c0.3794-0.1323,1.2687,0.9433,1.4289,0.6344
					c0.1593-0.309-0.4179-0.812,0.0265-1.0111c0.2824-0.1273,0.8573,0.1323,1.1699,0.1194c0.6742-0.027,1.7018-0.5291,2.3146,0.0655
					"/>
			</g>
			<path class="st16" d="M183.3746,24.8161c0.1212-0.8797,0.7749-2.7787-0.3794-3.382"/>
			<path class="st16" d="M179.2245,23.8499c0.3542,1.1557,2.4258,2.8117,3.6534,2.8657"/>
			<path class="st16" d="M181.39,27.4781c-1.504-0.0142-3.6333-0.8381-4.0297-2.4396"/>
			<path class="st16" d="M183.1974,25.1374c-0.6225-1.3411-0.9341-2.9426-1.8258-4.1583"/>
			<path class="st16" d="M182.8372,26.4368c-0.3849-0.3625-1.7132-1.7516-1.7187-2.2029"/>
			<path class="st16" d="M186.7281,21.5417c-0.0055-0.2943,0.2348-0.4207,0.3177-0.7246c0.195-0.725,0.1867-1.6377,0.1094-2.3878
				c-0.0774-0.7548-0.1327-1.7608-0.5658-2.4057"/>
			<path class="st16" d="M186.4833,21.5114c0.3332-1.0472-0.6779-2.8469-1.1878-3.6813"/>
			<path class="st16" d="M180.0603,28.5542c-0.6687,0.5556-2.2675,0.979-3.1234,1.1493c-1.3287,0.2659-2.1361-0.0009-3.3431-0.5758"
				/>
			<path class="st16" d="M188.201,24.2595c0.3575,0.3694,1.2505,0.682,1.5997,0.8481c-0.5397-0.2572-1.0802-0.5351-1.6295-0.7635
				c-0.254,0.8147,1.4583,2.8693,2.3096,2.2125"/>
			<path class="st16" d="M181.6907,33.6686c-0.0417-0.2938-0.1831-0.6097-0.3255-0.8952c-0.3789,0.5437-0.6293,1.4536-0.6591,2.0784
				"/>
			<path class="st16" d="M184.2767,25.7773c0.3812,0.4321,1.2092,0.5955,1.7191,0.8793c0.5781,0.3226,0.4339,0.4687,0.9759,0.8248"
				/>
			<path class="st16" d="M182.8422,27.56c-0.1877,0.3945-0.5039,0.8408-0.5973,1.2642c-0.1076,0.497,0.0513,1.7663,0.5813,2.0377"/>
			<path class="st16" d="M183.8199,27.961c0.4664,0.6829,0.8302,1.4655,1.4271,2.0427"/>
			<path class="st16" d="M189.4534,20.1356c-0.7575,0.4801-2.1146,0.628-2.5627,1.4125c1.2239-0.2806,2.3934-0.3534,3.5339,0.265"/>
			<path class="st16" d="M179.3472,29.9383c-0.3763,0.5012-1.0417,0.8257-1.3511,1.3315c0.271-0.2682,0.801-0.7401,1.1676-0.6975
				c-0.2701,0.6938-0.8038,1.0797-1.2738,1.6381c-0.2298,0.2723-0.3909,0.5506-0.5543,0.86
				c-0.0334,0.0645-0.2312,0.482-0.125,0.2623"/>
		</g>
	</g>
	<g>
		<g>
			<path class="st17" d="M252.8755,66.6858c0.2421-0.4311-0.0174-1.3864-0.086-1.8972c-0.1808-1.3388-0.2069-2.6515-0.2069-3.9999
				c0-1.6391-0.0083-3.0932-0.5991-4.6503c-0.6184-1.6294-1.4542-3.0392-2.2551-4.5647c-0.3488-0.6646-0.6275-1.4395-0.9992-2.0514
				c0.0192,1.5777-0.9026,4.0425,0.1625,5.4462c0.7919,1.0436,2.8982,2.8826,3.6525,3.9711"/>
			<path class="st1" d="M252.5551,62.2465c-0.7424-1.3768-2.7128-0.7739-3.9885-1.0669c-1.1964-0.2742-2.4954-1.3653-3.5948-1.8308
				C247.6105,59.0389,251.9317,58.7112,252.5551,62.2465z"/>
			<path class="st4" d="M252.5551,62.2465c-0.7424-1.3768-2.7128-0.7739-3.9885-1.0669c-1.1964-0.2742-2.4954-1.3653-3.5948-1.8308
				C247.6105,59.0389,251.9317,58.7112,252.5551,62.2465"/>
			<path class="st4" d="M252.3647,61.5558c-0.9301-0.6211-1.8409-1.1667-2.9326-1.1461"/>
			<path class="st18" d="M250.1219,54.9099c0.6142,1.1182,1.7814,1.975,2.1677,3.2222"/>
		</g>
		<g>
			<path class="st19" d="M270.2967,64.2343c-0.0164-0.3099,0.2115-0.4925,0.3126-0.7515c0.114-0.2929,0.1241-0.617,0.2161-0.9227
				c0.1661-0.552,0.3464-1.0838,0.6591-1.5805c0.1552-0.2467,0.3579-0.4472,0.5012-0.7003c0.1414-0.2508,0.185-0.5259,0.379-0.7461
				c0.3621-0.4119,1.0298-0.666,1.4766-1.0308c0.304-0.2485,0.6088-0.4302,1.017-0.3236c-0.0338,0.6829-0.1862,1.1969-0.411,1.7974
				c-0.2097,0.5616-0.2852,1.1676-0.4916,1.7178c-0.0893,0.2389-0.2659,0.4293-0.3799,0.6591
				c-0.1277,0.2563-0.1858,0.552-0.3744,0.7987c-0.2893,0.3785-0.8761,0.6005-1.3145,0.7987
				c-0.4298,0.1936-0.9932,0.3611-1.4692,0.2567"/>
			<g>
				<path class="st20" d="M266.1215,70.1533c0.4545-2.4949,2.7646-3.6168,3.9377-5.6829c1.3008-2.2885,1.045-5.1908,5.0302-6.4811
					c-0.9703,2.2153-0.7506,6.169-5.0302,6.4811"/>
				<path class="st18" d="M270.39,64.0869c0.9736,0.3021,2.273-2.2963,2.8204-2.8987"/>
			</g>
		</g>
		<g>
			<g>
				<g>
					<path class="st21" d="M261.8813,23.9488c0,0,3.1092-3.3861,4.01-4.8009c0.7259-1.1387,1.0674-1.9292,0.3922-3.0478
						c-0.4769-0.7891-4.3308,3.2731-4.3308,3.2731l0.032-0.2609c0.2184-1.6926,0.5273-3.3271,0.649-4.6865
						c0.249-2.7783-1.6386-2.6643-1.9498-1.6482c-0.3122,1.0166-1.5608,4.1999-2.0299,6.3658
						c-0.2019,0.9314-0.3456,2.148-0.308,3.9857l0.0082,0.276c0,0-2.8268,3.7353-2.7884,4.3244
						c0.0174,0.2755-0.0284,0.7657-0.0027,1.8551l0.0087,0.298c0,0-1.5411,2.0153-1.8248,3.0703
						c-0.2838,1.0546-0.255,6.9672-0.4897,7.0601c-0.2343,0.0925-2.6465-3.8877-2.7911-4.5496
						c-0.1456-0.6618,0.2458-3.3504,0.2545-4.1583c0.0128-1.3063,0.0975-2.446-1.4005-1.7626
						c-0.2893,0.1323-1.3306,6.0504-1.191,6.9804c0.1401,0.9301,3.42,7.0084,4.6736,9.3871
						c1.0807,2.8451,2.6597,8.8428,3.0039,11.2403c0.3442,2.3974-3.8305,15.1587-3.8305,15.1587l11.5273,3.6361
						c0,0,3.4351-13.3353,4.843-18.8282c1.4084-5.4934,3.8246-7.9934,4.0827-12.835c0.2577-4.8416-0.7982-7.6593-1.3672-10.1285
						c-0.5941-2.5783,0.1131-8.6539-0.8239-9.1464c-0.9374-0.492-2.5641-0.6289-3.3051,3.2804
						c-0.4371,3.182,0.7561,8.6269-0.0508,8.1998c-0.8074-0.4266-3.5148-6.8024-4.3546-9.8045
						c-0.2802-1.0019-0.4715-1.7823-0.5959-2.4446L261.8813,23.9488z"/>
				</g>
				<g>
					<path class="st18" d="M259.7488,34.5072c-1.7214-9.4864-1.564-13.1975-1.0948-15.3638
						c0.4692-2.1659,1.7177-5.3492,2.0299-6.3658c0.3112-1.0161,2.1988-1.1301,1.9498,1.6482
						c-0.1519,1.6958-0.5945,3.82-0.79,5.9506c-0.1959,2.1302-0.2284,3.0461,0.6838,6.3063
						c0.8398,3.0021,3.5472,9.3779,4.3546,9.8045c0.8069,0.427-0.3864-5.0179,0.0508-8.1998
						c0.741-3.9093,2.3677-3.7724,3.3051-3.2804c0.9369,0.4925,0.2298,6.5681,0.8239,9.1464
						c0.5689,2.4693,1.6249,5.2869,1.3672,10.1285c-0.2581,4.8416-2.6743,7.3416-4.0827,12.835
						c-1.4079,5.4929-4.843,18.8282-4.843,18.8282l-11.5273-3.6361c0,0,4.1747-12.7613,3.8305-15.1587
						c-0.3442-2.3975-1.9228-8.3952-3.0039-11.2403c-1.2537-2.3787-4.5336-8.4571-4.6736-9.3871
						c-0.1396-0.93,0.9017-6.8482,1.191-6.9804c1.4981-0.6833,1.4134,0.4563,1.4005,1.7626c-0.0087,0.8079-0.4,3.4964-0.2545,4.1583
						c0.1446,0.6618,2.5567,4.6421,2.7911,4.5496c0.2348-0.0929,0.2059-6.0056,0.4897-7.0601
						c0.2837-1.055,1.8248-3.0703,1.8248-3.0703"/>
					<path class="st18" d="M258.3542,23.4051c0,0-2.8268,3.7353-2.7884,4.3244c0.0385,0.5872-0.2142,2.1498,0.5529,8.4021"/>
					<path class="st18" d="M261.9527,19.3732c0,0,3.8539-4.0621,4.3303-3.2735c0.6756,1.1191,0.3341,1.9096-0.3918,3.0483
						c-0.9008,1.4148-4.01,4.8009-4.01,4.8009"/>
				</g>
			</g>
			<path class="st5" d="M270.6555,28.3071c0.3744-0.1721,0.2586-4.5793-0.6723-4.7784c-0.9314-0.1968-1.6642,2.5032-1.6578,3.4895
				C268.3308,28.0041,270.2806,28.4787,270.6555,28.3071z"/>
			<path class="st5" d="M259.8656,15.1417c-0.1149-0.547,1.0646-4.0791,1.883-4.1175c0.8188-0.0384-0.1373,3.1472-0.4554,3.6182
				C260.9746,15.1133,260.4107,15.3682,259.8656,15.1417z"/>
			<path class="st5" d="M248.6454,31.7092c-0.0842-0.6463,0.4815-3.8868,1.0221-3.5536c0.5401,0.3332,0.2101,3.0845,0.0659,3.3097
				C249.5892,31.6905,248.8143,31.7491,248.6454,31.7092z"/>
			<path class="st5" d="M263.053,18.1813c-0.2334-0.5748,3.4832-3.7326,3.9514-3.1989c0.4692,0.5342-1.585,2.717-2.1645,3.1271
				C264.2596,18.5195,263.7556,18.5296,263.053,18.1813z"/>
		</g>
		<g>
			<path class="st12" d="M264.4198,69.3739c0.1057-0.2843,0.2952-0.5067,0.4732-0.7429c0.1016-0.1332,0.1753-0.3121,0.2866-0.4179
				c0.356,0.2851,0.7712,0.6815,0.3661,1.131c-0.2536,0.2801-0.8211,0.1519-1.1273,0.0732"/>
			<g>
				<g>
					<path class="st7" d="M250.5916,70.8202c0.7927-1.6972,0.5346-4.5029-0.9795-5.7365c1.4061-0.584,1.7288-0.53,2.803,0.601
						c0.801,0.8417,1.7914,2.2583,3.1215,1.8985c-1.7736-1.2115,0.1401-2.197,1.547-1.1877
						c0.9941,0.7122,2.305,2.6593,3.6141,2.4039c-1.0381-1.4633,0.3268-2.7723,1.6605-1.5182
						c0.796,0.7479,1.7297,2.9215,3.4594,2.0203c-0.1053-0.4678-0.3017-0.8944-0.5937-1.2789
						c1.1191-0.3419,2.657,0.1209,3.7532,0.4499c-1.8148,1.4624-4.3592,6.3383-4.3592,6.3383L250.5916,70.8202z"/>
					<line class="st2" x1="265.8176" y1="69.3016" x2="263.8915" y2="72.8964"/>
					<line class="st2" x1="260.6977" y1="68.7995" x2="259.0948" y2="71.7214"/>
					<line class="st2" x1="255.5366" y1="67.5833" x2="253.8834" y2="70.4376"/>
					<line class="st7" x1="260.5357" y1="67.1403" x2="259.5795" y2="68.5546"/>
					<path class="st2" d="M255.067,66.196"/>
					<line class="st2" x1="254.2981" y1="67.4282" x2="255.067" y2="66.196"/>
					<line class="st7" x1="265.2239" y1="68.0227" x2="264.4623" y2="69.3208"/>
					<path class="st0" d="M250.5916,70.8202c0.7927-1.6972,0.5346-4.5029-0.9795-5.7365c1.4061-0.584,1.7288-0.53,2.803,0.601
						c0.801,0.8417,1.7914,2.2583,3.1215,1.8985c-1.7736-1.2115,0.1401-2.197,1.547-1.1877
						c0.9941,0.7122,2.305,2.6593,3.6141,2.4039c-1.0381-1.4633,0.3268-2.7723,1.6605-1.5182
						c0.796,0.7479,1.7297,2.9215,3.4594,2.0203c-0.1053-0.4678-0.3017-0.8944-0.5937-1.2789
						c1.1191-0.3419,2.657,0.1209,3.7532,0.4499c-1.8148,1.4624-4.3592,6.3383-4.3592,6.3383L250.5916,70.8202z"/>
					<line class="st2" x1="265.8176" y1="69.3016" x2="263.8915" y2="72.8964"/>
					<line class="st2" x1="260.6977" y1="68.7995" x2="259.0948" y2="71.7214"/>
					<line class="st2" x1="255.5366" y1="67.5833" x2="253.8834" y2="70.4376"/>
					<line class="st7" x1="260.5357" y1="67.1403" x2="259.5795" y2="68.5546"/>
					<path class="st2" d="M255.067,66.196"/>
					<line class="st2" x1="254.2981" y1="67.4282" x2="254.8281" y2="66.5567"/>
					<line class="st7" x1="265.2239" y1="68.0227" x2="264.4623" y2="69.3208"/>
				</g>
				<polygon class="st8" points="264.7887,74.7396 264.3538,76.3204 250.0258,72.2917 250.4753,70.779 				"/>
			</g>
		</g>
		<g>
			<g>
				<path class="st9" d="M265.7155,30.8291c-0.3003,0.7644-0.7126,1.1406-0.0645,1.8583c0.5511,0.6092,1.4587,0.6856,2.0661,1.3191
					c0.7579,0.79,1.1177,2.0276,1.9068,2.7874c0.8367,0.8042,1.98,0.4833,3.0396,0.6c0.8239,0.0906,1.1932,0.9122,1.8729,0.99
					c0.5213,0.0604,1.1241-0.4778,1.6363-1.1081l0.3278-0.1016c0.3519,0.3327,0.5172,0.3891,0.941,0.1323
					c0.4119-0.2517,0.7145-0.4458,1.1749-0.5708c0.6339-0.1721,1.3511-0.1771,1.6321-0.855
					c0.3369-0.8097-0.3972-1.5219-0.7813-2.1841c0.5231-0.4989,1.5983-0.0105,1.9796-0.5534
					c0.232-0.3309-0.1044-0.7388-0.2357-1.0898l0.1126,0.4106c0.7822-0.6701,2.2515-0.2577,2.9572-0.9978
					c0.341-0.357,0.1936-1.1265,0.2673-1.5429c0.1401-0.7941,0.2115-0.5117,0.6742-1.1022c-0.325-0.8179-1.4431-1.066-2.0057-1.6427
					c0.6175-0.5392,1.6377,0.1698,1.4601-1.0569c-0.0879-0.6041-0.8395-1.401-1.1805-1.9214l-0.0329,0.32
					c0.1071-0.8061-0.3538-0.9566-0.6761-1.5663c-0.0879-0.1653-0.1405-0.3607-0.1931-0.5625l0.0499-0.3053
					c1.288-1.1209-0.2838-2.489-1.06-3.3719c-0.8298-0.9461-0.4481-2.7215-1.7324-3.372c-0.5351-0.2723-1.0678-0.1235-1.5672,0.0861
					c-0.7603,0.3167-0.6312,0.3332-1.3905,0.1653l0.595-0.0691c-0.6435-0.9804-0.763-2.213-1.488-3.0863
					c-0.9836-1.1855-1.7905-0.5039-3.0854-0.4632c-0.7057,0.0219-0.8815-0.601-1.2445-1.0601
					c-0.184-0.2316-0.3542-0.3286-0.6508-0.3231c-0.2939,0.0055-0.8239-0.0389-1.0866,0.0773
					c-0.3012,0.135-0.5369,0.3067-0.7021,0.5863c-0.1973,0.3318-0.6683,2.1201-0.6651,2.5037l-0.3323-0.936
					c-0.7428-1.6564-2.9019-2.6931-4.1981-1.8317c-0.26,0.4083,0.6655,1.4596,0.8367,2.2441
					c0.2096,0.9493,0.2485,1.0422-0.6097,1.2298c-0.9466,0.2083-2.2455-0.0998-2.3545,1.2225
					c-0.0709,0.8555,0.8367,2.2666,1.4857,2.7613l1.1269,0.4468c-0.4889,0.2298-1.6469-0.6344-2.1311-0.32
					c-0.5694,0.3698-0.3396,0.979-1.0029,1.4084c-0.4943,0.3186-1.3392,0.2591-1.7187,0.8033
					c-0.3268,0.4692-0.1858,1.3511-0.3369,1.9283c0.4532-0.0659,1.0363-0.1387,1.2697,0.3328
					c-0.5493,0.4033-1.4665,0.785-1.1223,1.4994c0.1492,0.309,0.1007,1.2967,0.0943,1.6441
					c-0.0499,2.6511,3.3925-1.1159,3.8283-1.3131c0.5135,0.833-0.4724,2.0697-0.4614,2.982
					c0.0147,0.9918,0.8678,1.2152,1.5512,1.7123c0.4151,0.3012,0.5945,0.3167,0.9415,0.8243
					c0.3579,0.5259,0.6668,1.0509,1.3896,1.017"/>
				<g>
					<path class="st22" d="M269.39,30.2382c-1.1314-0.7502-1.5635-2.7462-1.9581-3.955c-0.487-1.4931-1.3113-2.8414,0.1977-4.085
						c0.5598-0.4641,1.2468-0.7946,1.9713-0.7333c0.9777,0.0829,1.1301,0.7451,1.8249,1.239
						c0.693,0.4925,1.4409,0.021,2.1677,0.3675c0.623,0.298,0.909,1.2088,1.2418,1.7773c0.8257,1.4079,2.5371,1.0633,3.4291,2.4583
						c0.9443,1.4775,0.0247,2.4707-1.0678,3.4552c-1.4408,1.3003-2.3352,1.3718-4.1546,0.849
						C271.7691,31.247,270.5443,30.5984,269.39,30.2382z"/>
					<path class="st22" d="M274.8628,24.7274c0.492-0.0865,0.9708-0.6348,1.5324-0.7662c0.5383-0.1268,1.0811,0.07,1.5636,0.2302
						c0.5867,0.1931,1.142,0.6632,1.7617,0.7754c0.6074,0.1108,1.31-0.3749,1.8972-0.1758c2.338,0.801-2.0835,4.5835-3.2762,4.7121"
						/>
					<path class="st22" d="M271.4258,22.7039c1.2276-0.8829,0.2536-1.5997,0.108-2.6085c-0.0787-0.547,0.389-0.616-0.0471-1.1749
						c-0.3121-0.4019-0.898-0.1657-1.1136-0.7452c0.4453-0.4678,0.1313-1.1351-0.282-1.5438
						c-0.3908-0.3868-0.3625-0.2032-0.7611-0.3831c-0.1392-0.0631-0.6719-0.3707-0.8198-0.4
						c-1.158-0.2261-2.8327,0.676-2.8964,1.9004c-0.0343,0.6467,0.1245,1.2651,0.0106,1.8908
						c-0.1044,0.5744-0.4289,1.1104-0.466,1.6949c-0.0769,1.1841,0.8802,2.4506,1.6468,3.3284"/>
					<path class="st22" d="M264.5214,18.8958c-0.4889,0.2298-1.6469-0.6344-2.1311-0.32c-0.5694,0.3698-0.3396,0.979-1.0029,1.4084
						c-0.4943,0.3186-1.3392,0.2591-1.7187,0.8033c-0.3268,0.4692-0.1858,1.3511-0.3369,1.9283
						c0.4532-0.0659,1.0363-0.1387,1.2697,0.3328c-0.5493,0.4033-1.4665,0.785-1.1223,1.4994
						c0.1492,0.309,0.1007,1.2967,0.0943,1.6441c-0.0499,2.6511,3.3925-1.1159,3.8283-1.3131
						c0.5135,0.833-0.4724,2.0697-0.4614,2.982c0.0147,0.9918,0.8678,1.2152,1.5512,1.7123
						c0.4151,0.3012,0.5945,0.3167,0.9415,0.8243c0.3579,0.5259,0.6668,1.0509,1.3896,1.017
						c0.7259-0.0352,1.9109-1.0413,2.149-1.6509"/>
					<path class="st22" d="M282.3929,25.7783c0.5461-0.0517,0.9918-0.6701,1.0706-1.2582c0.1071-0.8061-0.3538-0.9566-0.6761-1.5663
						c-0.249-0.4692-0.2092-1.1846-0.7057-1.5727c-0.3534-0.2751-1.245-0.3479-1.4619-0.428"/>
					<path class="st22" d="M283.4965,24.2001c0.341,0.5204,1.0926,1.3173,1.1805,1.9214c0.1776,1.2267-0.8427,0.5177-1.4601,1.0569
						c0.5625,0.5767,1.6807,0.8248,2.0057,1.6427c-0.4627,0.5905-0.5341,0.308-0.6742,1.1022
						c-0.0737,0.4165,0.0737,1.1859-0.2673,1.5429c-0.7057,0.7401-2.175,0.3277-2.9572,0.9978"/>
					<path class="st22" d="M268.5666,13.7589c-0.0032-0.3836,0.4678-2.1718,0.6651-2.5037
						c0.1652-0.2797,0.4009-0.4513,0.7021-0.5863c0.2628-0.1162,0.7928-0.0718,1.0866-0.0773
						c0.2966-0.0055,0.4669,0.0915,0.6508,0.3231c0.363,0.4591,0.5388,1.082,1.2445,1.0601
						c1.2949-0.0408,2.1018-0.7223,3.0854,0.4632c0.725,0.8733,0.8445,2.1059,1.488,3.0863"/>
					<path class="st22" d="M282.6442,22.086c1.288-1.1209-0.2838-2.489-1.06-3.3719c-0.8298-0.9461-0.4481-2.7215-1.7324-3.372
						c-0.5351-0.2723-1.0678-0.1235-1.5672,0.0861c-0.7603,0.3167-0.6312,0.3332-1.3905,0.1653
						c-1.2381-0.2732-1.3091,0.0861-2.3819,0.7895"/>
					<path class="st22" d="M277.101,23.9017c0.0956-0.573,0.2201-1.4925-0.4792-2.0404c-0.5305-0.4156-1.3887-0.0458-1.8129-0.4975
						c0.5882-0.8202,1.1781-1.3841,0.2412-2.1036c-0.7465-0.5731-1.3269-0.519-1.7713-1.5141
						c-0.2311-0.519-0.3295-1.801-0.9776-2.1137c-0.5575-0.271-1.91,0.4687-2.3632,0.8577"/>
					<path class="st22" d="M279.8582,24.927c0.7831-0.487,0.6802-1.2317,0.6312-2.0706c-0.0174-0.3144-0.0851-0.6376-0.0838-0.9479
						c0.0009-0.3364,0.1671-0.5616,0.2486-0.8852c0.4201-1.6665-2.0757-0.6175-2.5266-1.5891"/>
					<path class="st22" d="M274.8193,17.6485c0.92-0.6028,1.5585-0.8504,2.5293-0.0554c0.2797,0.2288,0.7758,0.7039,0.8646,1.0902
						c0.0705,0.3048-0.118,0.4879-0.1917,0.7538c-0.1584,0.5676,0.2815,1.0134,0.2476,1.6144
						c-0.0403,0.7254-0.4055,1.439-1.2065,1.3255"/>
					<path class="st22" d="M274.6101,19.0139c0.0224-0.5877,0.2705-1.353,0.1858-1.9736c-0.0636-0.4715-0.4339-0.7635-0.5584-1.2056
						c-0.1158-0.4101-0.0576-0.8417-0.2632-1.2459c-0.3776-0.7461-1.9649-0.9493-2.7686-0.8797
						c-0.6106,0.0512-2.2025,1.0184-2.3128,1.656"/>
					<path class="st22" d="M265.7155,30.8291c-0.3003,0.7644-0.7126,1.1406-0.0645,1.8583
						c0.5511,0.6092,1.4587,0.6856,2.0661,1.3191c0.7579,0.79,1.1177,2.0276,1.9068,2.7874c0.8367,0.8042,1.98,0.4833,3.0396,0.6
						c0.8239,0.0906,1.1932,0.9122,1.8729,0.99c1.0005,0.1163,2.2981-1.9704,2.6804-2.689c1.0399-1.953-0.2522-2.6863-0.6312-4.426"
						/>
					<path class="st22" d="M279.5533,29.0289c0.1378,0.5744,0.7415,1.2133,1.0701,1.7155c0.2893,0.4408,0.4147,0.8468,0.5877,1.3091
						c0.1313,0.3511,0.4678,0.7589,0.2357,1.0898c-0.3813,0.5428-1.4565,0.0545-1.9796,0.5534
						c0.384,0.6623,1.1182,1.3745,0.7813,2.1841c-0.281,0.6779-0.9983,0.6829-1.6321,0.855c-0.4604,0.125-0.763,0.319-1.1749,0.5708
						c-0.4238,0.2568-0.5891,0.2005-0.941-0.1323"/>
					<path class="st22" d="M268.8819,15.9271c0.1323-0.6843-0.3094-2.3489-0.6477-3.1042
						c-0.7428-1.6564-2.9019-2.6931-4.1981-1.8317c-0.26,0.4083,0.6655,1.4596,0.8367,2.2441
						c0.2096,0.9493,0.2485,1.0422-0.6097,1.2298c-0.9466,0.2083-2.2455-0.0998-2.3545,1.2225
						c-0.0709,0.8555,0.8367,2.2666,1.4857,2.7613c0.8651,0.6582,1.6161,0.1863,2.2299,1.1905"/>
				</g>
			</g>
			<path class="st11" d="M269.173,29.8565c-0.0774-0.6847,0.1858-2.7705,0.6742-3.4548c0.3026,0.6737-0.4201,3.0282-0.1043,3.7784
				c0.5396-0.1149,1.2179-1.1324,1.6619-1.4528c0.048,0.4051-0.5058,1.2555-0.6188,1.6953c1.1768,0.757,3.8864-0.411,3.9866-1.9777"
				/>
			<path class="st11" d="M268.1862,19.7677c-0.3552,0.1794-0.7287,1.0344-0.9136,1.4917c-0.1913,0.4738-0.3616,1.678-0.682,1.9206"
				/>
			<path class="st11" d="M266.5637,24.1928c0.3904-0.5286-0.1309-1.537-0.2307-2.154c-0.2366-1.4454,0.2417-2.8327,0.4065-4.1894"/>
			<path class="st11" d="M278.6329,29.1296c0.7296-0.1982,1.2161-1.5374,1.5837-2.1846"/>
			<path class="st11" d="M272.9702,32.2201c-0.2902,0.5117-0.7204,1.7452-1.2504,1.9612"/>
			<path class="st11" d="M273.5482,32.41c0.606,1.0623,0.6129,2.7724,0.1945,3.8809"/>
			<path class="st11" d="M274.7904,32.6365c0.4115,0.4618,0.7868,0.6459,0.7804,1.3946c-0.0041,0.5817-0.3323,1.2344-0.3062,1.753"
				/>
			<path class="st11" d="M264.5882,20.6721c-0.7698-0.3593-1.8546,0.0503-2.5045,0.428"/>
			<path class="st11" d="M264.3017,21.5377c-1.1681,0.3726-1.7237,1.4377-2.522,2.2684"/>
			<path class="st11" d="M268.7322,15.6744c-0.5035-0.5062-0.6971-1.39-1.4377-1.6798c-0.0728,0.465,0.6028,1.0079,0.5786,1.6066
				c-0.7135-0.2536-2.035,0.0334-2.5421,0.6261"/>
			<path class="st11" d="M278.7729,29.0038c0.6902-0.9955,0.2385-1.9174,0.103-2.9568"/>
			<path class="st11" d="M271.7307,22.6389c0.1982,0.2252,0.8637,0.1419,1.1173,0.07c0.465-0.1323,0.828-0.4696,1.2129-0.7342"/>
			<path class="st11" d="M271.9252,22.4755c0.1721-0.5044,1.0395-0.6413,1.3173-1.1708"/>
			<path class="st11" d="M271.933,21.074c0.1772-0.1314,0.3355-0.5131,0.4472-0.7346c-0.2174-0.0911-0.6783,0.3987-0.8472,0.1241
				c-0.1286-0.2096,0.5913-1.3855,0.7831-1.331"/>
		</g>
	</g>
	<g>
		<g>
			<g>
				<path class="st19" d="M36.8451,67.673c-0.8065,0.2284-1.6455,0.5863-2.6218,0.8948c-2.862,0.9063-3.7092-1.1644-6.1552-2.619
					c2.7092-1.3859,6.1223-0.0073,8.555,1.7905L36.8451,67.673z"/>
			</g>
			<g>
				<path class="st20" d="M41.1398,68.479c-2.6616-1.9242-4.2938-0.7397-6.9164,0.0888c-2.862,0.9063-3.7092-1.1644-6.1552-2.619
					c2.7092-1.3859,6.1223-0.0073,8.555,1.7905"/>
				<path class="st18" d="M31.6172,66.9045c1.5406,0.0091,2.8707,0.7383,4.5024,0.7383"/>
			</g>
		</g>
		<g>
			<g>
				<path class="st19" d="M53.3381,54.8453c2.8598-1.548,7.0011-3.9308,6.6894-7.9655c-1.466,0.5721-3.4941,1.2971-4.2731,2.8478
					C55.092,51.0468,54.3876,53.8475,53.3381,54.8453"/>
			</g>
			<g>
				<path class="st23" d="M51.1942,62.8891c0,0-1.033-3.0758-0.763-4.8824c0.2847-1.9036,1.4578-2.3773,2.9069-3.1614
					c2.8598-1.548,7.0011-3.9308,6.6894-7.9655c-1.466,0.5721-3.4941,1.2971-4.2731,2.8478
					c-0.6623,1.3191-1.3667,4.1198-2.4162,5.1176"/>
				<path class="st24" d="M54.097,54.4283c-0.0266-0.3987,0.8046-1.1131,1.0326-1.3823c0.5612-0.6637,1.1964-1.1626,1.8382-1.7178
					c0.758-0.655,1.4006-1.4408,1.8569-2.3526"/>
			</g>
		</g>
		<path class="st12" d="M51.8551,60.5259c-0.0554-0.1291-0.0421-0.3364-0.0943-0.492c-0.054-0.1611-0.1387-0.3048-0.1693-0.4746
			c-0.0485-0.2682-0.0687-0.319,0.1465-0.4165c0.1647-0.075,0.3502-0.0636,0.52-0.0156c0.4669,0.1314,0.3982,0.4311,0.1904,0.7909
			c-0.0833,0.1437-0.135,0.2641-0.2719,0.3662c-0.1369,0.102-0.3158,0.0682-0.3506,0.271"/>
		<path class="st3" d="M34.4321,36.7902c0.7355,0.0572,3.674,1.4889,3.674,1.4889"/>
		<g>
			<path class="st2" d="M43.8155,69.7899c0,0-9.7304-10.5432-11.1758-15.4009c-1.4463-4.8577-0.8577-9.54-1.2898-11.2637
				c-0.4985-1.9837-1.8583-12.7329-1.8583-12.7329l-0.6884-1.1296c0,0-3.7028-2.132-5.151-4.3034
				c-1.4308-2.1484,1.0362-2.8556,1.0362-2.8556s7.0162,5.0819,7.484,5.13c0.611,0.0645,4.1797-1.7979,8.7097,2.9389
				c-1.5287-6.4084,0.7913-6.2138,0.7913-6.2138s2.9385,9.1445,3.4159,10.4343c0.4779,1.2903,1.8706,1.5914,2.424,4.0969
				c0.5539,2.5068-2.3663,11.0037-1.6061,14.0873c0.7612,3.0822,5.795,11.6971,5.795,11.6971L43.8155,69.7899z"/>
			<line class="st3" x1="40.2385" y1="29.4976" x2="45.2138" y2="34.7109"/>
			<path class="st4" d="M32.1724,27.2338c2.8615,2.1709,9.7679,7.0162,11.2449,10.2979c0.2998,1.2074-0.3671,2.4844-0.3671,2.4844"
				/>
			<path class="st3" d="M28.8032,29.2628c0.5117,0.5808,9.4965,7.8043,9.7629,10.0434c0.2316,1.9448-0.109,6.0069-1.6294,5.8454
				c-1.9842-0.2298-2.0501-11.0637-3.8923-12.1562"/>
			<path class="st5" d="M30.1516,34.3982c-0.3927,0.022-3.2602-4.1592-3.0199-4.604c0.2398-0.4453,1.5635,0.189,2.1247,0.4558
				c0.5598,0.2673,1.6152,1.44,1.9398,2.1892C31.5202,33.1881,30.5443,34.3767,30.1516,34.3982z"/>
			<path class="st13" d="M42.9111,27.2338c-0.2669-0.9319-1.2729-4.329-1.8001-4.2823c-0.5277,0.0457,0.1167,3.1339,0.335,3.7706
				C41.6634,27.3592,42.9972,27.5331,42.9111,27.2338z"/>
			<path class="st5" d="M28.2842,24.6715c0.4435-0.3872-4.2475-3.61-4.9991-3.236c-0.7516,0.373,3.1911,3.6328,3.6071,3.7459
				C27.3088,25.294,27.8416,25.0583,28.2842,24.6715z"/>
		</g>
		<g>
			<g>
				<path class="st7" d="M44.1638,72.1136c-0.8001-1.6939-3.1238-3.2868-5.0403-2.9096c0.4486-1.4555,0.6962-1.6688,2.2533-1.7736
					c1.158-0.0782,2.8813,0.0636,3.4534-1.1891c-2.0647,0.5914-1.5997-1.5113,0.0746-1.9489
					c1.1836-0.3103,3.5193-0.0755,4.1578-1.2459c-1.7892-0.1354-1.9242-2.0216-0.1071-2.2469
					c1.0839-0.1346,3.3527,0.5346,3.7637-1.3718c-0.4275-0.2183-0.8806-0.3387-1.3626-0.3607
					c0.4513-1.0797,1.7896-1.9668,2.7426-2.6007c-0.0329,2.3311,2.0931,7.4025,2.0931,7.4025L44.1638,72.1136z"/>
				<line class="st2" x1="52.7193" y1="59.4279" x2="54.2558" y2="63.2053"/>
				<line class="st2" x1="49.0627" y1="63.0465" x2="50.2875" y2="66.147"/>
				<line class="st2" x1="44.8302" y1="66.2413" x2="45.9713" y2="69.3359"/>
				<line class="st7" x1="47.6831" y1="62.1123" x2="48.1605" y2="63.7509"/>
				<path class="st2" d="M43.4635,65.7172"/>
				<line class="st2" x1="43.9203" y1="67.0954" x2="43.4635" y2="65.7172"/>
				<line class="st7" x1="51.3567" y1="59.0672" x2="51.8684" y2="60.4829"/>
				<path class="st0" d="M44.1638,72.1136c-0.8001-1.6939-3.1238-3.2868-5.0403-2.9096c0.4486-1.4555,0.6962-1.6688,2.2533-1.7736
					c1.158-0.0782,2.8813,0.0636,3.4534-1.1891c-2.0647,0.5914-1.5997-1.5113,0.0746-1.9489
					c1.1836-0.3103,3.5193-0.0755,4.1578-1.2459c-1.7892-0.1354-1.9242-2.0216-0.1071-2.2469
					c1.0839-0.1346,3.3527,0.5346,3.7637-1.3718c-0.4275-0.2183-0.8806-0.3387-1.3626-0.3607
					c0.4513-1.0797,1.7896-1.9668,2.7426-2.6007c-0.0329,2.3311,2.0931,7.4025,2.0931,7.4025L44.1638,72.1136z"/>
				<line class="st2" x1="52.7193" y1="59.4279" x2="54.2558" y2="63.2053"/>
				<line class="st2" x1="49.0627" y1="63.0465" x2="50.2875" y2="66.147"/>
				<line class="st2" x1="44.8302" y1="66.2413" x2="45.9713" y2="69.3359"/>
				<line class="st7" x1="47.6831" y1="62.1123" x2="48.1605" y2="63.7509"/>
				<path class="st2" d="M43.4635,65.7172"/>
				<line class="st2" x1="43.9203" y1="67.0954" x2="43.4635" y2="65.7172"/>
				<line class="st7" x1="51.3567" y1="59.0672" x2="51.8684" y2="60.4829"/>
			</g>
			<polygon class="st0" points="56.3077,63.7509 57.1855,65.0361 44.9245,73.496 44.0631,72.2821 			"/>
		</g>
		<g>
			<path class="st9" d="M28.0224,28.9772c1.3145-1.0619,2.7243-2.862,3.2154-4.5093c0.611-2.0578-0.2719-4.2214-0.904-6.211
				c-0.3186-1.0065-0.8179-2.0336-1.6912-2.6698c-0.5836-0.4248-1.2175-0.7973-1.8908-1.0587
				c-0.6147-0.2385-0.7863-0.8129-1.3923-1.0578c-0.3941-0.1602-1.1332,0.0618-1.5585,0.0494
				c-1.0101-0.0288-2.0308,0.0233-2.8931,0.6087l-0.2787,0.038c-0.7786-0.4298-1.7874,0.2746-2.2556,0.8211
				c-0.2948,0.3442-0.5085,0.8367-0.8587,1.1182c-0.3117,0.2508-0.709,0.1776-1.0546,0.3492
				c-0.5717,0.2856-0.925,1.2294-1.0962,1.8166c-0.1039,0.352-0.1607,0.7067-0.1295,1.0733
				c0.0256,0.2801,0.1021,0.5658,0.0169,0.8335l-0.0604,0.087c-0.3346,0.5035-0.4431,1.0202-0.4069,1.6194
				c0.0366,0.5941,0.8055,3.3719,1.5488,3.3962c0.8069,1.2907,2.0212,2.5045,2.7179,3.1623
				c0.6751,0.6381,1.4614,1.1672,2.321,1.5224c0.7927,0.3268,1.5136,0.6769,2.446,0.5932c0.9328-0.0842,2.657-0.4366,3.6841-1.1543
				L28.0224,28.9772z"/>
			<g>
				<path class="st25" d="M19.0509,28.4435c-1.3919-1.3159-4.8567-4.8558-2.9948-6.7855c0.7694-0.7955,1.6908-0.1446,2.3357-0.6984
					c0.2641-0.2266-0.3213-0.8596,0.3675-1.0853c0.2316-0.076,1.0857,0.563,1.3095,0.6848c1.4391,0.7891,1.2592,0.66,2.1458-0.5406
					c0.8362-1.131,1.2866-0.9511,2.4757-0.3602c1.8271,0.9049,3.9894,2.9142,4.5487,4.9277
					c0.4962,1.7919-0.2105,3.7536-1.737,4.8187c-1.0271,0.7177-2.7513,1.0701-3.6841,1.1543
					c-0.9324,0.0838-1.6533-0.2664-2.446-0.5932C20.5123,29.6107,19.726,29.0815,19.0509,28.4435z"/>
				<path class="st25" d="M28.0224,28.9772c1.3145-1.0619,2.7243-2.862,3.2154-4.5093c0.611-2.0578-0.2719-4.2214-0.904-6.211
					c-0.3186-1.0065-0.8179-2.0336-1.6912-2.6698c-0.5836-0.4248-1.2175-0.7973-1.8908-1.0587
					c-0.6147-0.2385-0.7863-0.8129-1.3923-1.0578c-0.3941-0.1602-1.1332,0.0618-1.5585,0.0494
					c-1.0101-0.0288-2.0308,0.0233-2.8931,0.6087c-0.4723,0.3204-0.8202,0.6033-1.0468,1.1402
					c-0.1474,0.3451-0.2856,1.0907-0.7323,1.168"/>
				<path class="st25" d="M24.8706,13.4142c-1.5851-0.0288-2.435,0.6756-2.8918,1.299c-0.0915,0.125-0.3726,0.5016-0.3414,0.6683
					c0.0622,0.3277,0.2042,0.0961,0.4559,0.1506c0.3698,0.0815,0.6916,0.2755,0.6394,0.6801
					c-0.0664,0.4999-0.5538,0.6628-0.8939,0.9393c-0.8573,0.6961-0.5218,1.4747-0.3959,2.3869
					c0.0645,0.4756-0.2787,1.4308-0.8971,1.185"/>
				<path class="st25" d="M16.2149,25.0135c-0.7447-0.0247-1.3942-2.5344-1.4308-3.1284c-0.0362-0.5992,0.0723-1.1159,0.4069-1.6194
					c0.3167-0.4778,0.8038-0.7369,1.2001-1.1369c0.8477-0.8509,0.8001-2.413,2.0972-2.6488c0.79-0.1442,1.39,0.2641,2.153,0.3868
					c0.3424,0.0559,0.7456,0.3076,0.8349,0.6806"/>
				<path class="st25" d="M20.6291,14.1667c-0.7786-0.4298-1.7874,0.2746-2.2556,0.8211c-0.2948,0.3442-0.5085,0.8367-0.8587,1.1182
					c-0.3117,0.2508-0.709,0.1776-1.0546,0.3492c-0.5717,0.2856-0.925,1.2294-1.0962,1.8166
					c-0.1039,0.352-0.1607,0.7067-0.1295,1.0733c0.0256,0.2801,0.1021,0.5658,0.0169,0.8335"/>
				<path class="st26" d="M28.0224,28.9772c0.6481-1.7132-0.5886-3.6131-1.4166-3.9212c-0.4641,0.5506-0.0961,1.2697,0.0774,1.8656
					c0.1954,0.676,0.2334,1.3859,0.3661,2.0766c-0.7927-0.4527-2.4002-2.786-3.0538-2.0125
					c-0.6532,0.7712,1.5946,1.601,2.056,2.3329c-1.0811,0.2678-2.3929-0.3076-3.3197-0.8239
					c-1.0083-0.5607-3.0021-2.0904-2.7371-3.4868"/>
				<path class="st26" d="M29.0454,28.0142c1.0674-0.9529,1.3076-3.0277,1.3667-4.3652c0.0645-1.5095-0.1304-3.3032-1.0829-4.5285"
					/>
				<path class="st26" d="M29.3346,26.9605c0.6939-0.3904,0.243-1.9677,0.1551-2.5705c-0.2275-1.5246-0.5501-3.1668-1.2976-4.5377
					c-0.3616-0.6651-0.9493-1.7576-1.6702-2.1192"/>
			</g>
		</g>
	</g>
</g>
<g>
	<path class="st27" d="M29.2012,94.0119c0.4878,0.1821,0.9899,0.4449,1.5064,0.7892c0.4205,0.2681,0.746,0.4016,0.9756,0.4016
		c0.1721,0,0.3058-0.1005,0.4017-0.3012c0.0955-0.2009,0.1721-0.5211,0.2295-0.9612h0.66
		c-0.0959,1.1095-0.1435,3.0607-0.1435,5.8535h-0.66c-0.1148-1.5495-0.5595-2.8551-1.3342-3.9168
		c-0.7748-1.0617-1.8987-1.5925-3.3716-1.5925c-1.0329,0-1.875,0.3112-2.525,0.9326c-0.6506,0.6219-0.9756,1.4202-0.9756,2.3959
		c0,0.7272,0.1672,1.3585,0.5021,1.8938c0.3345,0.5357,0.7604,0.9948,1.2769,1.3773c0.5164,0.3828,1.2526,0.8706,2.2094,1.4633
		l0.8321,0.5165c1.2051,0.7461,2.1565,1.4016,2.855,1.9656c0.6981,0.5644,1.2576,1.21,1.6787,1.9368
		c0.4205,0.7272,0.6312,1.5782,0.6312,2.5537c0,1.7409-0.5739,3.0848-1.7216,4.0316c-1.1478,0.9468-2.6017,1.4202-4.3615,1.4202
		c-0.9182,0-1.6692-0.0959-2.2524-0.2869c-0.5838-0.1909-1.1433-0.4492-1.6786-0.7746c-0.4211-0.2678-0.7461-0.4018-0.9757-0.4018
		c-0.1721,0-0.3062,0.1004-0.4016,0.3014c-0.0959,0.2007-0.1722,0.5214-0.2296,0.9612h-0.66
		c0.0762-1.0519,0.1148-3.3473,0.1148-6.8865h0.66c0.1336,1.9323,0.612,3.5005,1.4347,4.7058
		c0.8223,1.2051,2.0848,1.8076,3.7876,1.8076c1.0329,0,1.9126-0.32,2.6398-0.9613c0.7268-0.6406,1.0904-1.5925,1.0904-2.8551
		c0-1.071-0.3587-1.9799-1.076-2.7259c-0.7173-0.7459-1.8508-1.5875-3.4003-2.525c-1.1289-0.6886-2.0422-1.3006-2.7403-1.8363
		c-0.6985-0.5354-1.2674-1.181-1.7073-1.9369c-0.4403-0.7554-0.66-1.64-0.66-2.6542c0-1.6069,0.5165-2.8357,1.5494-3.6872
		c1.033-0.851,2.3144-1.2769,3.845-1.2769C28.0484,93.7394,28.7133,93.8303,29.2012,94.0119z"/>
	<path class="st27" d="M48.0672,111.2714c0,0.88,0.1623,1.5207,0.4878,1.9225c0.325,0.4016,0.8895,0.6025,1.6929,0.6025v0.6025
		c-0.5931-0.0574-1.1863-0.086-1.779-0.086c-1.2051,0-2.2,0.1336-2.9841,0.4016v-3.3858c-0.4592,1.1862-1.1096,2.0565-1.9512,2.6111
		c-0.842,0.5547-1.7602,0.8321-2.7546,0.8321c-1.3011,0-2.2955-0.3635-2.9842-1.0902c-0.3443-0.3825-0.5882-0.8703-0.7317-1.4635
		c-0.1435-0.5927-0.2152-1.358-0.2152-2.2955v-7.2021c0-0.8798-0.1627-1.5209-0.4878-1.9225
		c-0.3255-0.4018-0.8896-0.6027-1.693-0.6027v-0.6025c0.5927,0.0574,1.1859,0.0862,1.779,0.0862
		c1.2052,0,2.1996-0.1337,2.9842-0.4018v11.2767c0,0.7272,0.043,1.3154,0.1291,1.7647c0.086,0.4496,0.2869,0.8179,0.6025,1.1048
		c0.3156,0.2869,0.7985,0.4303,1.4491,0.4303c0.7268,0,1.3867-0.2296,1.9799-0.6886c0.5927-0.4592,1.0568-1.0855,1.3916-1.8796
		c0.3345-0.7936,0.5022-1.6687,0.5022-2.6255v-5.9396c0-0.8798-0.1628-1.5209-0.4878-1.9225
		c-0.3254-0.4018-0.8895-0.6027-1.6929-0.6027v-0.6025c0.5927,0.0574,1.1858,0.0862,1.779,0.0862
		c1.2052,0,2.1995-0.1337,2.9841-0.4018V111.2714z"/>
	<path class="st27" d="M58.1098,99.5069c0.5354,0.2107,0.9658,0.4592,1.2913,0.7461c0.2102,0.1532,0.3825,0.2294,0.5165,0.2294
		c0.3443,0,0.5545-0.4205,0.6312-1.2624h0.6601c-0.0767,0.9375-0.1149,2.5635-0.1149,4.878h-0.6599
		c-0.2107-1.2626-0.617-2.305-1.2195-3.1277c-0.6025-0.8223-1.4971-1.2338-2.6828-1.2338c-0.6887,0-1.2532,0.1963-1.693,0.5881
		c-0.4403,0.3923-0.66,0.9326-0.66,1.6213c0,0.6697,0.2296,1.2293,0.6887,1.6785c0.4591,0.4498,1.1953,0.9899,2.2095,1.6213
		c0.1721,0.0959,0.4303,0.2583,0.7746,0.4877c0.8796,0.574,1.5877,1.081,2.1234,1.5209c0.5354,0.4403,0.9706,0.9468,1.3055,1.5207
		c0.3345,0.574,0.5023,1.2339,0.5023,1.98c0,1.2624-0.4736,2.2479-1.4204,2.9555c-0.9468,0.7074-2.109,1.0615-3.4863,1.0615
		c-0.8608,0-1.6167-0.134-2.2669-0.4016c-0.421-0.2102-0.8133-0.4685-1.1764-0.7748c-0.0767-0.0762-0.1628-0.1147-0.2583-0.1147
		c-0.134,0-0.2537,0.0959-0.3587,0.2869c-0.1054,0.1914-0.1865,0.459-0.2439,0.8034H51.912
		c0.0762-1.0904,0.1147-3.003,0.1147-5.7388h0.66c0.2103,1.7983,0.5927,3.142,1.1478,4.0315
		c0.5545,0.8895,1.5014,1.3342,2.8406,1.3342c0.6694,0,1.2626-0.2196,1.7791-0.6599c0.5163-0.4398,0.7746-1.1284,0.7746-2.066
		c0-0.7459-0.2537-1.3773-0.7603-1.8938c-0.507-0.5163-1.3342-1.1379-2.4819-1.865c-0.9376-0.5927-1.6598-1.0805-2.1665-1.4635
		c-0.507-0.3823-0.9325-0.851-1.2769-1.406c-0.3443-0.5545-0.5165-1.2051-0.5165-1.9512c0-1.2051,0.4017-2.1234,1.2052-2.7546
		c0.8034-0.6312,1.8171-0.9468,3.0416-0.9468C56.9621,99.1912,57.5741,99.2966,58.1098,99.5069z"/>
	<path class="st27" d="M64.5514,113.6673c-0.5839-0.6025-0.8752-1.4392-0.8752-2.5108c0-0.8608,0.234-1.5682,0.703-2.1234
		c0.4685-0.5545,1.0232-0.9943,1.6642-1.3198c0.6407-0.3251,1.4871-0.6694,2.5395-1.033c1.071-0.3631,1.8651-0.6981,2.3815-1.0043
		c0.5165-0.3058,0.7748-0.7172,0.7748-1.2338v-1.7791c0-1.1092-0.2345-1.8696-0.703-2.281c-0.469-0.4111-1.124-0.617-1.9654-0.617
		c-1.3393,0-2.2861,0.3443-2.8408,1.033c0.3825,0.0959,0.703,0.2968,0.9612,0.6025c0.2583,0.3061,0.3874,0.6886,0.3874,1.1477
		c0,0.4783-0.1534,0.8564-0.459,1.1335c-0.3063,0.2774-0.6986,0.4161-1.1766,0.4161c-0.5357,0-0.9375-0.1673-1.2051-0.5023
		c-0.2681-0.3344-0.4018-0.741-0.4018-1.2195c0-0.459,0.11-0.8415,0.33-1.1477c0.2197-0.3058,0.5496-0.612,0.9899-0.9182
		c0.4592-0.3251,1.0424-0.5927,1.7504-0.8034c0.7074-0.2102,1.4822-0.3156,2.3241-0.3156c1.492,0,2.6206,0.3541,3.3858,1.0617
		c0.478,0.4401,0.7985,0.9711,0.9612,1.5925c0.1624,0.6219,0.244,1.4396,0.244,2.4533v7.9769c0,0.4785,0.0667,0.8228,0.2007,1.033
		c0.1337,0.2107,0.3633,0.3156,0.6887,0.3156c0.2296,0,0.4447-0.0524,0.6456-0.1578c0.2007-0.1049,0.4161-0.2533,0.6456-0.4447
		l0.3156,0.4878c-0.4977,0.3828-0.9232,0.6555-1.2769,0.8177c-0.3543,0.1624-0.799,0.244-1.3344,0.244
		c-0.9181,0-1.5594-0.2296-1.9225-0.6887c-0.3636-0.459-0.5452-1.0805-0.5452-1.8651c-0.5739,0.9568-1.2338,1.6213-1.9798,1.9943
		c-0.7461,0.3731-1.588,0.5596-2.525,0.5596C66.0292,114.5712,65.1346,114.2699,64.5514,113.6673z M71.7392,111.2426v-5.6239
		c-0.1721,0.2681-0.4115,0.4878-0.7172,0.6599c-0.3063,0.1722-0.7748,0.4018-1.406,0.6887
		c-0.7272,0.3063-1.3155,0.5981-1.7647,0.8752c-0.4498,0.2774-0.837,0.6555-1.1621,1.1333
		c-0.3254,0.4785-0.4878,1.0904-0.4878,1.8365c0,0.8608,0.2102,1.5114,0.6312,1.9512c0.4206,0.4403,0.9757,0.6601,1.6644,0.6601
		C69.7593,113.4235,70.8399,112.6967,71.7392,111.2426z"/>
	<path class="st27" d="M89.7872,100.2816c0.3631,0.3828,0.6214,0.8608,0.7748,1.4347c0.1529,0.5739,0.2296,1.3486,0.2296,2.3241
		v7.6613c0,0.7848,0.1622,1.3249,0.4877,1.6213c0.3251,0.2968,0.8896,0.4447,1.6931,0.4447v0.6025
		c-1.7603-0.0762-2.908-0.1147-3.4434-0.1147c-0.5357,0-1.6069,0.0385-3.2138,0.1147v-0.6025c0.7076,0,1.2003-0.148,1.4778-0.4447
		c0.2771-0.2964,0.4161-0.8365,0.4161-1.6213v-8.2925c0-1.071-0.1532-1.8889-0.459-2.4533
		c-0.3063-0.564-0.9281-0.8465-1.8651-0.8465c-0.7846,0-1.4827,0.2296-2.0947,0.6887c-0.6124,0.459-1.0858,1.0858-1.4202,1.8794
		c-0.3349,0.7939-0.5023,1.6785-0.5023,2.6542v6.37c0,0.7848,0.1386,1.3249,0.4161,1.6213
		c0.2771,0.2968,0.7699,0.4447,1.4778,0.4447v0.6025c-1.6069-0.0762-2.6784-0.1147-3.2138-0.1147
		c-0.5357,0-1.6834,0.0385-3.4432,0.1147v-0.6025c0.8034,0,1.3675-0.148,1.6929-0.4447c0.3251-0.2964,0.4878-0.8365,0.4878-1.6213
		v-8.9811c0-0.8798-0.1627-1.5209-0.4878-1.9225c-0.3254-0.4018-0.8895-0.6027-1.6929-0.6027v-0.6025
		c0.612,0.0574,1.2051,0.0862,1.7789,0.0862c1.2052,0,2.1996-0.1337,2.9842-0.4018v3.3858c0.478-1.2239,1.1428-2.109,1.9943-2.6542
		c0.851-0.5452,1.8122-0.8177,2.8837-0.8177C88.0845,99.1912,89.0985,99.5549,89.7872,100.2816z"/>
	<path class="st27" d="M106.3431,100.2816c0.3631,0.3828,0.6214,0.8608,0.7748,1.4347c0.1529,0.5739,0.2296,1.3486,0.2296,2.3241
		v7.6613c0,0.7848,0.1622,1.3249,0.4877,1.6213c0.3251,0.2968,0.8896,0.4447,1.6931,0.4447v0.6025
		c-1.7603-0.0762-2.908-0.1147-3.4434-0.1147c-0.5357,0-1.6069,0.0385-3.2138,0.1147v-0.6025c0.7076,0,1.2003-0.148,1.4778-0.4447
		c0.2771-0.2964,0.4161-0.8365,0.4161-1.6213v-8.2925c0-1.071-0.1532-1.8889-0.459-2.4533
		c-0.3063-0.564-0.9281-0.8465-1.8651-0.8465c-0.7846,0-1.4827,0.2296-2.0947,0.6887c-0.6124,0.459-1.0858,1.0858-1.4202,1.8794
		c-0.3349,0.7939-0.5023,1.6785-0.5023,2.6542v6.37c0,0.7848,0.1386,1.3249,0.4161,1.6213
		c0.2771,0.2968,0.7699,0.4447,1.4778,0.4447v0.6025c-1.6069-0.0762-2.6784-0.1147-3.2138-0.1147
		c-0.5357,0-1.6834,0.0385-3.4432,0.1147v-0.6025c0.8034,0,1.3675-0.148,1.6929-0.4447c0.3251-0.2964,0.4878-0.8365,0.4878-1.6213
		v-8.9811c0-0.8798-0.1627-1.5209-0.4878-1.9225c-0.3254-0.4018-0.8895-0.6027-1.6929-0.6027v-0.6025
		c0.612,0.0574,1.2051,0.0862,1.7789,0.0862c1.2052,0,2.1996-0.1337,2.9842-0.4018v3.3858c0.478-1.2239,1.1428-2.109,1.9943-2.6542
		c0.851-0.5452,1.8122-0.8177,2.8837-0.8177C104.6403,99.1912,105.6544,99.5549,106.3431,100.2816z"/>
	<path class="st27" d="M110.8047,113.6673c-0.5839-0.6025-0.8752-1.4392-0.8752-2.5108c0-0.8608,0.234-1.5682,0.703-2.1234
		c0.4685-0.5545,1.0232-0.9943,1.6642-1.3198c0.6407-0.3251,1.4871-0.6694,2.5395-1.033c1.071-0.3631,1.8651-0.6981,2.3815-1.0043
		c0.5165-0.3058,0.7748-0.7172,0.7748-1.2338v-1.7791c0-1.1092-0.2345-1.8696-0.703-2.281c-0.469-0.4111-1.124-0.617-1.9654-0.617
		c-1.3393,0-2.2861,0.3443-2.8408,1.033c0.3825,0.0959,0.703,0.2968,0.9612,0.6025c0.2583,0.3061,0.3874,0.6886,0.3874,1.1477
		c0,0.4783-0.1534,0.8564-0.459,1.1335c-0.3063,0.2774-0.6986,0.4161-1.1766,0.4161c-0.5357,0-0.9375-0.1673-1.2051-0.5023
		c-0.2681-0.3344-0.4018-0.741-0.4018-1.2195c0-0.459,0.11-0.8415,0.33-1.1477c0.2197-0.3058,0.5496-0.612,0.9899-0.9182
		c0.4592-0.3251,1.0424-0.5927,1.7504-0.8034c0.7074-0.2102,1.4822-0.3156,2.3241-0.3156c1.492,0,2.6206,0.3541,3.3858,1.0617
		c0.478,0.4401,0.7985,0.9711,0.9612,1.5925c0.1624,0.6219,0.244,1.4396,0.244,2.4533v7.9769c0,0.4785,0.0667,0.8228,0.2007,1.033
		c0.1337,0.2107,0.3633,0.3156,0.6887,0.3156c0.2296,0,0.4447-0.0524,0.6456-0.1578c0.2007-0.1049,0.4161-0.2533,0.6456-0.4447
		l0.3156,0.4878c-0.4977,0.3828-0.9232,0.6555-1.2769,0.8177c-0.3543,0.1624-0.799,0.244-1.3344,0.244
		c-0.9181,0-1.5594-0.2296-1.9225-0.6887c-0.3636-0.459-0.5452-1.0805-0.5452-1.8651c-0.5739,0.9568-1.2338,1.6213-1.9798,1.9943
		c-0.7461,0.3731-1.588,0.5596-2.525,0.5596C112.2825,114.5712,111.3879,114.2699,110.8047,113.6673z M117.9924,111.2426v-5.6239
		c-0.1721,0.2681-0.4115,0.4878-0.7172,0.6599c-0.3063,0.1722-0.7748,0.4018-1.406,0.6887
		c-0.7272,0.3063-1.3155,0.5981-1.7647,0.8752c-0.4498,0.2774-0.837,0.6555-1.1622,1.1333
		c-0.3254,0.4785-0.4878,1.0904-0.4878,1.8365c0,0.8608,0.2102,1.5114,0.6312,1.9512c0.4206,0.4403,0.9757,0.6601,1.6644,0.6601
		C116.0126,113.4235,117.0931,112.6967,117.9924,111.2426z"/>
	<path class="st27" d="M128.4365,102.6344c0.478-1.2051,1.1428-2.0803,1.9943-2.6255c0.851-0.5452,1.8122-0.8177,2.8837-0.8177
		c1.3388,0,2.353,0.3636,3.0415,1.0904c0.3631,0.3828,0.6214,0.8608,0.7748,1.4347c0.1529,0.5739,0.2296,1.3486,0.2296,2.3241
		v7.6613c0,0.7848,0.1622,1.3249,0.4877,1.6213c0.3251,0.2968,0.8896,0.4447,1.6931,0.4447v0.6025
		c-1.7603-0.0762-2.908-0.1147-3.4433-0.1147c-0.5357,0-1.6069,0.0385-3.2138,0.1147v-0.6025c0.7076,0,1.2003-0.148,1.4778-0.4447
		c0.2771-0.2964,0.4161-0.8365,0.4161-1.6213v-8.2925c0-1.071-0.1532-1.8889-0.459-2.4533
		c-0.3063-0.564-0.9281-0.8465-1.8651-0.8465c-0.7846,0-1.4778,0.2201-2.0803,0.6599c-0.6026,0.4403-1.0761,1.0573-1.4204,1.8509
		c-0.3443,0.7939-0.5165,1.6883-0.5165,2.6828v6.3987c0,0.7848,0.1386,1.3249,0.4161,1.6213
		c0.2771,0.2968,0.7699,0.4447,1.4778,0.4447v0.6025c-1.6069-0.0762-2.6784-0.1147-3.2136-0.1147
		c-0.5358,0-1.6836,0.0385-3.4433,0.1147v-0.6025c0.8034,0,1.3675-0.148,1.6929-0.4447c0.3251-0.2964,0.4878-0.8365,0.4878-1.6213
		V95.3463c0-0.8796-0.1627-1.5209-0.4878-1.9225c-0.3254-0.4018-0.8895-0.6025-1.6929-0.6025v-0.6027
		c0.612,0.0575,1.2051,0.0862,1.7791,0.0862c1.2051,0,2.1994-0.1337,2.984-0.4018V102.6344z"/>
	<path class="st27" d="M168.249,94.8584c-0.3156,0.1147-0.5308,0.3349-0.6456,0.6599c-0.1147,0.3256-0.1721,0.8515-0.1721,1.5782
		v14.2322c0,0.7272,0.0574,1.2531,0.1721,1.5782c0.1149,0.3254,0.33,0.5452,0.6456,0.6599
		c0.3156,0.1149,0.8179,0.1914,1.5064,0.2296v0.5739c-0.8801-0.0574-2.0946-0.086-3.6441-0.086
		c-1.6454,0-2.8693,0.0287-3.6728,0.086v-0.5739c0.6886-0.0382,1.1908-0.1147,1.5064-0.2296
		c0.3156-0.1147,0.5308-0.3345,0.6455-0.6599c0.1149-0.3251,0.1722-0.851,0.1722-1.5782v-15.38l-6.9152,18.5651h-0.4592
		l-7.2308-18.6224v15.1504c0,0.7459,0.062,1.3011,0.1865,1.6642c0.1242,0.3636,0.3682,0.6268,0.7318,0.789
		c0.3631,0.1627,0.9275,0.2632,1.6929,0.3014v0.5739c-0.6887-0.0574-1.6642-0.086-2.9268-0.086
		c-1.1477,0-2.0372,0.0287-2.6686,0.086v-0.5739c0.6694-0.0382,1.1666-0.1386,1.4922-0.3014
		c0.325-0.1622,0.5452-0.4303,0.6599-0.8034c0.1149-0.373,0.1722-0.9227,0.1722-1.6498V97.0965
		c0-0.7268-0.0574-1.2526-0.1722-1.5782c-0.1147-0.325-0.33-0.5452-0.6456-0.6599c-0.3156-0.1147-0.8177-0.1911-1.5064-0.2296
		V94.055c0.6314,0.0574,1.5209,0.086,2.6686,0.086c0.9944,0,1.8078-0.0287,2.439-0.086l6.3127,16.6137l6.1691-16.5277h1.3486
		c1.5495,0,2.7639-0.0287,3.6441-0.086v0.5739C169.0669,94.6674,168.5646,94.7437,168.249,94.8584z"/>
	<path class="st27" d="M180.6302,100.1094c0.899,0.5932,1.3486,1.3298,1.3486,2.2094c0,0.4977-0.1435,0.8895-0.4305,1.1764
		c-0.2869,0.2869-0.6506,0.4305-1.0904,0.4305c-0.4401,0-0.8133-0.1291-1.119-0.3874c-0.3061-0.2583-0.459-0.6071-0.459-1.0473
		c0-0.4018,0.1147-0.7412,0.3443-1.0186c0.2296-0.2771,0.5165-0.4637,0.8608-0.5596c-0.1914-0.3443-0.5308-0.6312-1.0186-0.8608
		c-0.4878-0.2296-1.0093-0.3443-1.5638-0.3443c-0.7079,0-1.368,0.225-1.9798,0.6743c-0.6125,0.4497-1.119,1.1956-1.5209,2.2381
		c-0.4016,1.0429-0.6025,2.4151-0.6025,4.1175c0,2.3721,0.3825,4.0988,1.1477,5.1792c0.7649,1.081,1.7598,1.6213,2.9842,1.6213
		c0.8223,0,1.602-0.2389,2.3385-0.7174c0.7361-0.4778,1.3437-1.2239,1.8221-2.2381l0.5452,0.2009
		c-0.3254,1.0904-0.9326,2.0279-1.822,2.812c-0.8895,0.7841-2.0423,1.1764-3.4576,1.1764c-1.1864,0-2.2624-0.3061-3.228-0.9182
		c-0.9663-0.612-1.7267-1.4966-2.2812-2.6542c-0.555-1.1572-0.8321-2.5009-0.8321-4.0315c0-1.5495,0.282-2.9268,0.8464-4.1319
		c0.564-1.2052,1.3532-2.1472,2.3672-2.8264c1.0139-0.6787,2.1709-1.0186,3.472-1.0186
		C178.5831,99.1912,179.6927,99.4973,180.6302,100.1094z"/>
	<path class="st27" d="M190.6153,94.6288c-0.6887,0.0385-1.1908,0.1149-1.5064,0.2296c-0.3156,0.1147-0.5308,0.3349-0.6456,0.6599
		c-0.1147,0.3256-0.1722,0.8515-0.1722,1.5782v14.2322c0,0.7272,0.0575,1.2531,0.1722,1.5782
		c0.1149,0.3254,0.33,0.5452,0.6456,0.6599c0.3156,0.1149,0.8177,0.1914,1.5064,0.2296v0.5739
		c-0.8801-0.0574-2.0947-0.086-3.6441-0.086c-1.6454,0-2.8695,0.0287-3.6729,0.086v-0.5739
		c0.6887-0.0382,1.1908-0.1147,1.5064-0.2296c0.3156-0.1147,0.5309-0.3345,0.6456-0.6599c0.1149-0.3251,0.1722-0.851,0.1722-1.5782
		V97.0965c0-0.7268-0.0574-1.2526-0.1722-1.5782c-0.1147-0.325-0.33-0.5452-0.6456-0.6599
		c-0.3156-0.1147-0.8177-0.1911-1.5064-0.2296V94.055c0.8035,0.0574,2.0275,0.086,3.6729,0.086c1.5302,0,2.7446-0.0287,3.6441-0.086
		V94.6288z"/>
	<path class="st27" d="M204.7612,100.2816c0.3631,0.3828,0.6214,0.8608,0.7748,1.4347c0.1529,0.5739,0.2296,1.3486,0.2296,2.3241
		v7.6613c0,0.7848,0.1622,1.3249,0.4877,1.6213c0.3251,0.2968,0.8896,0.4447,1.6931,0.4447v0.6025
		c-1.7603-0.0762-2.908-0.1147-3.4434-0.1147c-0.5357,0-1.6069,0.0385-3.2138,0.1147v-0.6025c0.7076,0,1.2003-0.148,1.4778-0.4447
		c0.2771-0.2964,0.4161-0.8365,0.4161-1.6213v-8.2925c0-1.071-0.1532-1.8889-0.459-2.4533
		c-0.3063-0.564-0.9281-0.8465-1.8651-0.8465c-0.7846,0-1.4827,0.2296-2.0947,0.6887c-0.6124,0.459-1.0858,1.0858-1.4202,1.8794
		c-0.3349,0.7939-0.5023,1.6785-0.5023,2.6542v6.37c0,0.7848,0.1386,1.3249,0.4161,1.6213
		c0.2771,0.2968,0.7699,0.4447,1.4778,0.4447v0.6025c-1.6069-0.0762-2.6784-0.1147-3.2138-0.1147
		c-0.5357,0-1.6834,0.0385-3.4432,0.1147v-0.6025c0.8034,0,1.3675-0.148,1.6929-0.4447c0.3251-0.2964,0.4878-0.8365,0.4878-1.6213
		v-8.9811c0-0.8798-0.1627-1.5209-0.4878-1.9225c-0.3254-0.4018-0.8895-0.6027-1.6929-0.6027v-0.6025
		c0.612,0.0574,1.2051,0.0862,1.7789,0.0862c1.2052,0,2.1996-0.1337,2.9842-0.4018v3.3858c0.478-1.2239,1.1428-2.109,1.9943-2.6542
		c0.851-0.5452,1.8122-0.8177,2.8837-0.8177C203.0584,99.1912,204.0724,99.5549,204.7612,100.2816z"/>
	<path class="st27" d="M221.0874,110.9269c-0.3443,1.0524-0.9899,1.9563-1.9368,2.7117c-0.947,0.7554-2.0903,1.1333-3.4289,1.1333
		c-1.3585,0-2.535-0.311-3.5294-0.9324c-0.9948-0.6216-1.7554-1.4922-2.2812-2.6112c-0.5264-1.119-0.789-2.4148-0.789-3.8881
		c0-1.6642,0.2676-3.1082,0.8035-4.3327c0.5352-1.2241,1.2911-2.1665,2.2668-2.8264c0.9755-0.6601,2.1134-0.9899,3.4145-0.9899
		c1.7218,0,3.0461,0.5214,3.9741,1.5638c0.9276,1.0429,1.3917,2.6255,1.3917,4.7489h-8.9813
		c-0.0574,0.5357-0.086,1.1477-0.086,1.8363c0,1.2626,0.2053,2.3628,0.617,3.2998c0.4111,0.9375,0.9562,1.6598,1.6356,2.1665
		c0.6787,0.507,1.3916,0.7603,2.1376,0.7603c0.9182,0,1.7309-0.2197,2.439-0.6599c0.7074-0.4398,1.3006-1.1766,1.779-2.2096
		L221.0874,110.9269z M213.1679,101.0562c-0.6504,0.8801-1.0522,2.1807-1.2051,3.9025h6.2553
		c0.038-1.4922-0.1771-2.7354-0.6456-3.7303c-0.469-0.9944-1.1622-1.492-2.0803-1.492
		C214.5927,99.7364,213.8181,100.1766,213.1679,101.0562z"/>
	<path class="st27" d="M233.3828,99.8511c0.4877,0.4403,0.7317,0.9757,0.7317,1.6069c0,0.4977-0.1485,0.9231-0.4447,1.2769
		c-0.2969,0.3543-0.6936,0.5309-1.1908,0.5309c-0.421,0-0.7797-0.1337-1.0761-0.4018c-0.2968-0.2676-0.4447-0.6312-0.4447-1.0904
		c0-0.6312,0.3251-1.1477,0.9757-1.5495c-0.134-0.1909-0.3349-0.2869-0.6025-0.2869c-0.7461,0-1.4253,0.292-2.0374,0.8752
		c-0.6124,0.5837-1.0904,1.2962-1.4347,2.1376c-0.3443,0.8421-0.5165,1.6356-0.5165,2.3817v6.0831
		c0,0.8801,0.2533,1.4922,0.7605,1.8365c0.5065,0.3443,1.2669,0.5165,2.281,0.5165v0.6025l-0.6886-0.0287
		c-1.9512-0.0574-3.1949-0.086-3.7303-0.086c-0.4977,0-1.6261,0.0385-3.3858,0.1147v-0.6025c0.8034,0,1.3675-0.148,1.6929-0.4447
		c0.3251-0.2964,0.4878-0.8365,0.4878-1.6213v-8.9811c0-0.8798-0.1627-1.5209-0.4878-1.9225
		c-0.3254-0.4018-0.8895-0.6027-1.6929-0.6027v-0.6025c0.612,0.0574,1.2051,0.0862,1.7789,0.0862
		c1.2052,0,2.1996-0.1337,2.9842-0.4018v3.5867c0.3445-0.9563,0.8941-1.8078,1.65-2.5537c0.7554-0.7461,1.5925-1.1191,2.5106-1.1191
		C232.2681,99.1912,232.8949,99.4113,233.3828,99.8511z"/>
	<path class="st27" d="M247.4569,100.2816c0.3631,0.3828,0.6214,0.8608,0.7748,1.4347c0.1529,0.5739,0.2296,1.3486,0.2296,2.3241
		v7.6613c0,0.7848,0.1622,1.3249,0.4877,1.6213c0.3251,0.2968,0.8896,0.4447,1.6931,0.4447v0.6025
		c-1.7603-0.0762-2.908-0.1147-3.4434-0.1147c-0.5357,0-1.6069,0.0385-3.2138,0.1147v-0.6025c0.7076,0,1.2003-0.148,1.4778-0.4447
		c0.2771-0.2964,0.4161-0.8365,0.4161-1.6213v-8.2925c0-1.071-0.1532-1.8889-0.459-2.4533
		c-0.3063-0.564-0.9281-0.8465-1.8651-0.8465c-0.7846,0-1.4827,0.2296-2.0947,0.6887c-0.6124,0.459-1.0858,1.0858-1.4202,1.8794
		c-0.3349,0.7939-0.5023,1.6785-0.5023,2.6542v6.37c0,0.7848,0.1386,1.3249,0.4161,1.6213
		c0.2771,0.2968,0.7699,0.4447,1.4778,0.4447v0.6025c-1.6069-0.0762-2.6784-0.1147-3.2138-0.1147
		c-0.5357,0-1.6834,0.0385-3.4432,0.1147v-0.6025c0.8034,0,1.3675-0.148,1.6929-0.4447c0.3251-0.2964,0.4878-0.8365,0.4878-1.6213
		v-8.9811c0-0.8798-0.1627-1.5209-0.4878-1.9225c-0.3254-0.4018-0.8895-0.6027-1.6929-0.6027v-0.6025
		c0.612,0.0574,1.2051,0.0862,1.7789,0.0862c1.2052,0,2.1996-0.1337,2.9842-0.4018v3.3858c0.478-1.2239,1.1428-2.109,1.9943-2.6542
		c0.851-0.5452,1.8122-0.8177,2.8837-0.8177C245.7541,99.1912,246.7681,99.5549,247.4569,100.2816z"/>
	<path class="st27" d="M263.7832,110.9269c-0.3443,1.0524-0.9899,1.9563-1.9368,2.7117c-0.947,0.7554-2.0903,1.1333-3.4289,1.1333
		c-1.3585,0-2.535-0.311-3.5294-0.9324c-0.9948-0.6216-1.7553-1.4922-2.2812-2.6112c-0.5264-1.119-0.789-2.4148-0.789-3.8881
		c0-1.6642,0.2676-3.1082,0.8035-4.3327c0.5352-1.2241,1.2911-2.1665,2.2668-2.8264c0.9755-0.6601,2.1134-0.9899,3.4145-0.9899
		c1.7217,0,3.0461,0.5214,3.9741,1.5638c0.9276,1.0429,1.3917,2.6255,1.3917,4.7489h-8.9813
		c-0.0574,0.5357-0.086,1.1477-0.086,1.8363c0,1.2626,0.2053,2.3628,0.617,3.2998c0.4111,0.9375,0.9562,1.6598,1.6356,2.1665
		c0.6787,0.507,1.3915,0.7603,2.1376,0.7603c0.9182,0,1.731-0.2197,2.439-0.6599c0.7074-0.4398,1.3006-1.1766,1.7789-2.2096
		L263.7832,110.9269z M255.8636,101.0562c-0.6504,0.8801-1.0522,2.1807-1.2051,3.9025h6.2553
		c0.038-1.4922-0.1772-2.7354-0.6457-3.7303c-0.469-0.9944-1.1621-1.492-2.0803-1.492
		C257.2884,99.7364,256.5138,100.1766,255.8636,101.0562z"/>
	<path class="st27" d="M278.331,99.5929v0.5739c-0.3828,0.0387-0.7222,0.2107-1.0186,0.5165
		c-0.2968,0.3063-0.5788,0.8034-0.8464,1.4922l-4.7058,12.3384l-0.9756,2.4964c-0.3636,0.937-0.7748,1.6067-1.2338,2.0085
		c-0.2869,0.2676-0.6314,0.4592-1.033,0.5739c-0.4018,0.1147-0.8034,0.1722-1.2053,0.1722c-0.5739,0-1.0427-0.1534-1.406-0.4592
		c-0.3636-0.3063-0.5452-0.7272-0.5452-1.2626c0-0.459,0.1337-0.8275,0.4018-1.1046c0.2676-0.2776,0.6407-0.4161,1.119-0.4161
		c0.4205,0,0.7698,0.1193,1.0473,0.3587c0.2771,0.2389,0.416,0.5689,0.416,0.9899c0,0.5739-0.2582,1.0042-0.7747,1.2911
		c0.0382,0.0188,0.0955,0.0287,0.1722,0.0287c1.0519,0,1.8651-0.7459,2.439-2.2381l1.0042-2.6111l-5.1935-12.5393
		c-0.3256-0.6501-0.6505-1.0805-0.9756-1.2911c-0.3254-0.2104-0.6506-0.3158-0.9755-0.3158v-0.6025
		c0.8221,0.1149,1.7596,0.1722,2.812,0.1722c0.9563,0,2.1996-0.0574,3.7301-0.1722v0.6025c-0.6886,0-1.1908,0.0575-1.5064,0.1722
		s-0.4734,0.3923-0.4734,0.8321c0,0.4016,0.1149,0.8706,0.3443,1.406l3.4434,8.5508l3.1849-8.2925
		c0.2104-0.5739,0.3158-1.0137,0.3158-1.32c0-0.4398-0.1722-0.7648-0.5165-0.9755c-0.3445-0.2102-0.8896-0.3445-1.6356-0.4018
		v-0.5739c1.0137,0.0574,1.8171,0.0862,2.4102,0.0862C276.9919,99.6791,277.7186,99.6502,278.331,99.5929z"/>
</g>
</svg>
